#Produced by Art of Illusion 2.5, Sat Oct 06 00:10:02 CEST 2007
g Cube_3
usemtl flltbrown
v 0.4461 0.13637 0.05163
v 0.55177 0.13637 0.05163
v 0.55177 0.11056 -0.14439
v 0.4461 0.11056 -0.14439
v 0.4461 1.71332 -0.15598
v 0.55177 1.71332 -0.15598
v 0.55177 1.68752 -0.352
v 0.4461 1.68752 -0.352
v 0.49894 0.92485 -0.05217
v 0.55177 0.91194 -0.15018
v 0.49894 0.89904 -0.24819
v 0.4461 0.91194 -0.15018
v 0.49894 0.12347 -0.04638
v 0.49894 1.70042 -0.25399
vn 1 0 0
vn 0 -0.99144 0.13053
vn 0 -0.99144 0.13053
vn 0 -0.99144 0.13053
vn 0 -0.99144 0.13053
vn 1 0 0
vn 1 0 0
vn 1 0 0
vn 1 0 0
vn 0 0.13053 0.99144
vn 0 0.13053 0.99144
vn 0 0.13053 0.99144
vn 0 0.13053 0.99144
vn -1 0 0
vn -1 0 0
vn -1 0 -0
vn -1 0 0
vn 0 0.99144 -0.13053
vn 0 0.99144 -0.13053
vn 0 0.99144 -0.13053
vn 0 0.99144 -0.13053
vn 0 -0.13053 -0.99144
vn 0 -0.13053 -0.99144
vn 0 -0.13053 -0.99144
vn 0 -0.13053 -0.99144
f 2//2 1//2 13//2
f 3//3 2//3 13//3
f 4//4 3//4 13//4
f 1//5 4//5 13//5
f 2//6 3//6 10//6
f 3//7 7//7 10//7
f 7//8 6//8 10//8
f 6//9 2//9 10//9
f 1//10 2//10 9//10
f 2//11 6//11 9//11
f 6//12 5//12 9//12
f 5//13 1//13 9//13
f 4//14 1//14 12//14
f 1//15 5//15 12//15
f 5//16 8//16 12//16
f 8//17 4//17 12//17
f 5//18 6//18 14//18
f 6//19 7//19 14//19
f 7//20 8//20 14//20
f 8//21 5//21 14//21
f 3//22 4//22 11//22
f 4//23 8//23 11//23
f 8//24 7//24 11//24
f 7//25 3//25 11//25
g Cube_3_1
v -0.5439 0.13637 0.05163
v -0.43823 0.13637 0.05163
v -0.43823 0.11056 -0.14439
v -0.5439 0.11056 -0.14439
v -0.5439 1.70797 -0.15527
v -0.43823 1.70797 -0.15527
v -0.43823 1.68216 -0.35129
v -0.5439 1.68216 -0.35129
v -0.49106 0.92217 -0.05182
v -0.43823 0.90927 -0.14983
v -0.49106 0.89636 -0.24784
v -0.5439 0.90927 -0.14983
v -0.49106 0.12347 -0.04638
v -0.49106 1.69507 -0.25328
vn 1 0 0
vn 0 -0.99144 0.13053
vn 0 -0.99144 0.13053
vn 0 -0.99144 0.13053
vn 0 -0.99144 0.13053
vn 1 0 0
vn 1 0 0
vn 1 0 0
vn 1 0 0
vn 0 0.13053 0.99144
vn 0 0.13053 0.99144
vn 0 0.13053 0.99144
vn 0 0.13053 0.99144
vn -1 0 0
vn -1 0 0
vn -1 0 -0
vn -1 0 0
vn 0 0.99144 -0.13053
vn 0 0.99144 -0.13053
vn 0 0.99144 -0.13053
vn 0 0.99144 -0.13053
vn 0 -0.13053 -0.99144
vn 0 -0.13053 -0.99144
vn 0 -0.13053 -0.99144
vn 0 -0.13053 -0.99144
f 16//27 15//27 27//27
f 17//28 16//28 27//28
f 18//29 17//29 27//29
f 15//30 18//30 27//30
f 16//31 17//31 24//31
f 17//32 21//32 24//32
f 21//33 20//33 24//33
f 20//34 16//34 24//34
f 15//35 16//35 23//35
f 16//36 20//36 23//36
f 20//37 19//37 23//37
f 19//38 15//38 23//38
f 18//39 15//39 26//39
f 15//40 19//40 26//40
f 19//41 22//41 26//41
f 22//42 18//42 26//42
f 19//43 20//43 28//43
f 20//44 21//44 28//44
f 21//45 22//45 28//45
f 22//46 19//46 28//46
f 17//47 18//47 25//47
f 18//48 22//48 25//48
f 22//49 21//49 25//49
f 21//50 17//50 25//50
g Cube_3_2
v 0.52812 0.68074 -0.05433
v 0.52814 0.66512 -0.15885
v 0.52835 0.52291 -0.1376
v 0.52834 0.53853 -0.03308
v -0.52478 0.67918 -0.05422
v -0.52476 0.66356 -0.15873
v -0.52455 0.52135 -0.13748
v -0.52456 0.53697 -0.03297
v 0.00168 0.67215 -0.10653
v 0.00179 0.59324 -0.14816
v 0.00189 0.52994 -0.08528
v 0.00178 0.60885 -0.04365
v 0.52824 0.60182 -0.09596
v -0.52466 0.60027 -0.09585
vn 1 0 0
vn 1 0.00148 -0.00011
vn 1 0.00148 -0.00011
vn 1 0.00148 -0.00011
vn 1 0.00148 -0.00011
vn 0.00011 -0.1478 -0.98902
vn 0.00011 -0.1478 -0.98902
vn 0.00011 -0.1478 -0.98902
vn 0.00011 -0.1478 -0.98902
vn -0.00148 0.98902 -0.1478
vn -0.00148 0.98902 -0.1478
vn -0.00148 0.98902 -0.1478
vn -0.00148 0.98902 -0.1478
vn -0.00011 0.1478 0.98902
vn -0.00011 0.1478 0.98902
vn -0.00011 0.1478 0.98902
vn -0.00011 0.1478 0.98902
vn -1 -0.00148 0.00011
vn -1 -0.00148 0.00011
vn -1 -0.00148 0.00011
vn -1 -0.00148 0.00011
vn 0.00148 -0.98902 0.1478
vn 0.00148 -0.98902 0.1478
vn 0.00148 -0.98902 0.1478
vn 0.00148 -0.98902 0.1478
f 30//52 29//52 41//52
f 31//53 30//53 41//53
f 32//54 31//54 41//54
f 29//55 32//55 41//55
f 30//56 31//56 38//56
f 31//57 35//57 38//57
f 35//58 34//58 38//58
f 34//59 30//59 38//59
f 29//60 30//60 37//60
f 30//61 34//61 37//61
f 34//62 33//62 37//62
f 33//63 29//63 37//63
f 32//64 29//64 40//64
f 29//65 33//65 40//65
f 33//66 36//66 40//66
f 36//67 32//67 40//67
f 33//68 34//68 42//68
f 34//69 35//69 42//69
f 35//70 36//70 42//70
f 36//71 33//71 42//71
f 31//72 32//72 39//72
f 32//73 36//73 39//73
f 36//74 35//74 39//74
f 35//75 31//75 39//75
g Cube_3_3
v 0.52804 1.68333 -0.2023
v 0.52806 1.66772 -0.30682
v 0.52842 1.42774 -0.27096
v 0.5284 1.44336 -0.16644
v -0.52486 1.68178 -0.20219
v -0.52484 1.66616 -0.3067
v -0.52449 1.42618 -0.27084
v -0.5245 1.4418 -0.16632
v 0.0016 1.67475 -0.2545
v 0.00179 1.54695 -0.28883
v 0.00196 1.43477 -0.21864
v 0.00177 1.56257 -0.18431
v 0.52823 1.55554 -0.23663
v -0.52467 1.55398 -0.23651
vn 1 0 0
vn 1 0.00148 -0.00011
vn 1 0.00148 -0.00011
vn 1 0.00148 -0.00011
vn 1 0.00148 -0.00011
vn 0.00011 -0.1478 -0.98902
vn 0.00011 -0.1478 -0.98902
vn 0.00011 -0.1478 -0.98902
vn 0.00011 -0.1478 -0.98902
vn -0.00148 0.98902 -0.1478
vn -0.00148 0.98902 -0.1478
vn -0.00148 0.98902 -0.1478
vn -0.00148 0.98902 -0.1478
vn -0.00011 0.1478 0.98902
vn -0.00011 0.1478 0.98902
vn -0.00011 0.1478 0.98902
vn -0.00011 0.1478 0.98902
vn -1 -0.00148 0.00011
vn -1 -0.00148 0.00011
vn -1 -0.00148 0.00011
vn -1 -0.00148 0.00011
vn 0.00148 -0.98902 0.1478
vn 0.00148 -0.98902 0.1478
vn 0.00148 -0.98902 0.1478
vn 0.00148 -0.98902 0.1478
f 44//77 43//77 55//77
f 45//78 44//78 55//78
f 46//79 45//79 55//79
f 43//80 46//80 55//80
f 44//81 45//81 52//81
f 45//82 49//82 52//82
f 49//83 48//83 52//83
f 48//84 44//84 52//84
f 43//85 44//85 51//85
f 44//86 48//86 51//86
f 48//87 47//87 51//87
f 47//88 43//88 51//88
f 46//89 43//89 54//89
f 43//90 47//90 54//90
f 47//91 50//91 54//91
f 50//92 46//92 54//92
f 47//93 48//93 56//93
f 48//94 49//94 56//94
f 49//95 50//95 56//95
f 50//96 47//96 56//96
f 45//97 46//97 53//97
f 46//98 50//98 53//98
f 50//99 49//99 53//99
f 49//100 45//100 53//100
g assise
v -0.55055 0.14942 1.14967
v 0.5603 0.14942 1.14967
v 0.5603 -0.06118 1.14967
v -0.55055 -0.06118 1.14967
v -0.55055 0.14942 -0.12613
v 0.5603 0.14942 -0.12613
v 0.5603 -0.06118 -0.12613
v -0.55055 -0.06118 -0.12613
v 0.00488 0.14942 0.51177
v 0.5603 0.04412 0.51177
v 0.00488 -0.06118 0.51177
v -0.55055 0.04412 0.51177
v 0.00488 0.04412 1.14967
v 0.00488 0.04412 -0.12613
vn 1 0 0
vn -0 0 1
vn 0 0 1
vn 0 0 1
vn 0 0 1
vn 1 0 0
vn 1 0 0
vn 1 0 0
vn 1 0 0
vn 0 1 0
vn 0 1 0
vn 0 1 0
vn 0 1 0
vn -1 0 0
vn -1 0 0
vn -1 0 -0
vn -1 0 0
vn 0 0 -1
vn 0 0 -1
vn 0 0 -1
vn 0 0 -1
vn 0 -1 0
vn 0 -1 0
vn 0 -1 0
vn 0 -1 0
f 58//102 57//102 69//102
f 59//103 58//103 69//103
f 60//104 59//104 69//104
f 57//105 60//105 69//105
f 58//106 59//106 66//106
f 59//107 63//107 66//107
f 63//108 62//108 66//108
f 62//109 58//109 66//109
f 57//110 58//110 65//110
f 58//111 62//111 65//111
f 62//112 61//112 65//112
f 61//113 57//113 65//113
f 60//114 57//114 68//114
f 57//115 61//115 68//115
f 61//116 64//116 68//116
f 64//117 60//117 68//117
f 61//118 62//118 70//118
f 62//119 63//119 70//119
f 63//120 64//120 70//120
f 64//121 61//121 70//121
f 59//122 60//122 67//122
f 60//123 64//123 67//123
f 64//124 63//124 67//124
f 63//125 59//125 67//125
g Cube_3_4
v -0.24149 0.56578 -0.04785
v -0.18111 0.56578 -0.04785
v -0.18111 0.55305 -0.13308
v -0.24149 0.55305 -0.13308
v -0.24149 1.64253 -0.20877
v -0.18111 1.64253 -0.20877
v -0.18111 1.62979 -0.29401
v -0.24149 1.62979 -0.29401
v -0.2113 1.10416 -0.12831
v -0.18111 1.09779 -0.17093
v -0.2113 1.09142 -0.21355
v -0.24149 1.09779 -0.17093
v -0.2113 0.55941 -0.09047
v -0.2113 1.63616 -0.25139
vn 1 0 0
vn 0 -0.98902 0.14781
vn 0 -0.98902 0.14781
vn 0 -0.98902 0.14781
vn 0 -0.98902 0.14781
vn 1 0 0
vn 1 0 0
vn 1 0 0
vn 1 0 0
vn 0 0.14781 0.98902
vn 0 0.14781 0.98902
vn 0 0.14781 0.98902
vn 0 0.14781 0.98902
vn -1 0 0
vn -1 0 0
vn -1 0 -0
vn -1 0 0
vn 0 0.98902 -0.14781
vn 0 0.98902 -0.14781
vn 0 0.98902 -0.14781
vn 0 0.98902 -0.14781
vn 0 -0.14781 -0.98902
vn 0 -0.14781 -0.98902
vn 0 -0.14781 -0.98902
vn 0 -0.14781 -0.98902
f 72//127 71//127 83//127
f 73//128 72//128 83//128
f 74//129 73//129 83//129
f 71//130 74//130 83//130
f 72//131 73//131 80//131
f 73//132 77//132 80//132
f 77//133 76//133 80//133
f 76//134 72//134 80//134
f 71//135 72//135 79//135
f 72//136 76//136 79//136
f 76//137 75//137 79//137
f 75//138 71//138 79//138
f 74//139 71//139 82//139
f 71//140 75//140 82//140
f 75//141 78//141 82//141
f 78//142 74//142 82//142
f 75//143 76//143 84//143
f 76//144 77//144 84//144
f 77//145 78//145 84//145
f 78//146 75//146 84//146
f 73//147 74//147 81//147
f 74//148 78//148 81//148
f 78//149 77//149 81//149
f 77//150 73//150 81//150
g Cube_3_5
v -0.03927 0.56578 -0.04987
v 0.02112 0.56578 -0.04987
v 0.02112 0.55305 -0.13511
v -0.03927 0.55305 -0.13511
v -0.03927 1.64253 -0.21079
v 0.02112 1.64253 -0.21079
v 0.02112 1.62979 -0.29603
v -0.03927 1.62979 -0.29603
v -0.00908 1.10416 -0.13033
v 0.02112 1.09779 -0.17295
v -0.00908 1.09142 -0.21557
v -0.03927 1.09779 -0.17295
v -0.00908 0.55941 -0.09249
v -0.00908 1.63616 -0.25341
vn 1 0 0
vn 0 -0.98902 0.14781
vn 0 -0.98902 0.14781
vn 0 -0.98902 0.14781
vn 0 -0.98902 0.14781
vn 1 0 0
vn 1 0 0
vn 1 0 0
vn 1 0 0
vn 0 0.14781 0.98902
vn 0 0.14781 0.98902
vn 0 0.14781 0.98902
vn 0 0.14781 0.98902
vn -1 0 0
vn -1 0 0
vn -1 0 -0
vn -1 0 0
vn 0 0.98902 -0.14781
vn 0 0.98902 -0.14781
vn 0 0.98902 -0.14781
vn 0 0.98902 -0.14781
vn 0 -0.14781 -0.98902
vn 0 -0.14781 -0.98902
vn 0 -0.14781 -0.98902
vn 0 -0.14781 -0.98902
f 86//152 85//152 97//152
f 87//153 86//153 97//153
f 88//154 87//154 97//154
f 85//155 88//155 97//155
f 86//156 87//156 94//156
f 87//157 91//157 94//157
f 91//158 90//158 94//158
f 90//159 86//159 94//159
f 85//160 86//160 93//160
f 86//161 90//161 93//161
f 90//162 89//162 93//162
f 89//163 85//163 93//163
f 88//164 85//164 96//164
f 85//165 89//165 96//165
f 89//166 92//166 96//166
f 92//167 88//167 96//167
f 89//168 90//168 98//168
f 90//169 91//169 98//169
f 91//170 92//170 98//170
f 92//171 89//171 98//171
f 87//172 88//172 95//172
f 88//173 92//173 95//173
f 92//174 91//174 95//174
f 91//175 87//175 95//175
g Cube_3_6
v 0.16295 0.56578 -0.05189
v 0.22334 0.56578 -0.05189
v 0.22334 0.55305 -0.13713
v 0.16295 0.55305 -0.13713
v 0.16295 1.64253 -0.21281
v 0.22334 1.64253 -0.21281
v 0.22334 1.62979 -0.29805
v 0.16295 1.62979 -0.29805
v 0.19315 1.10416 -0.13235
v 0.22334 1.09779 -0.17497
v 0.19315 1.09142 -0.21759
v 0.16295 1.09779 -0.17497
v 0.19315 0.55941 -0.09451
v 0.19315 1.63616 -0.25543
vn 1 0 0
vn 0 -0.98902 0.14781
vn 0 -0.98902 0.14781
vn 0 -0.98902 0.14781
vn 0 -0.98902 0.14781
vn 1 0 0
vn 1 0 0
vn 1 0 0
vn 1 0 0
vn 0 0.14781 0.98902
vn 0 0.14781 0.98902
vn 0 0.14781 0.98902
vn 0 0.14781 0.98902
vn -1 0 0
vn -1 0 0
vn -1 0 -0
vn -1 0 0
vn 0 0.98902 -0.14781
vn 0 0.98902 -0.14781
vn 0 0.98902 -0.14781
vn 0 0.98902 -0.14781
vn 0 -0.14781 -0.98902
vn 0 -0.14781 -0.98902
vn 0 -0.14781 -0.98902
vn 0 -0.14781 -0.98902
f 100//177 99//177 111//177
f 101//178 100//178 111//178
f 102//179 101//179 111//179
f 99//180 102//180 111//180
f 100//181 101//181 108//181
f 101//182 105//182 108//182
f 105//183 104//183 108//183
f 104//184 100//184 108//184
f 99//185 100//185 107//185
f 100//186 104//186 107//186
f 104//187 103//187 107//187
f 103//188 99//188 107//188
f 102//189 99//189 110//189
f 99//190 103//190 110//190
f 103//191 106//191 110//191
f 106//192 102//192 110//192
f 103//193 104//193 112//193
f 104//194 105//194 112//194
f 105//195 106//195 112//195
f 106//196 103//196 112//196
f 101//197 102//197 109//197
f 102//198 106//198 109//198
f 106//199 105//199 109//199
f 105//200 101//200 109//200
g Cube_6
v 0.40381 -1.10912 0.0258
v 0.55345 -1.10912 0.02431
v 0.55195 -1.10912 -0.12533
v 0.40232 -1.10912 -0.12383
v 0.40381 -0.03099 0.0258
v 0.55345 -0.03099 0.02431
v 0.55195 -0.03099 -0.12533
v 0.40232 -0.03099 -0.12383
v 0.47863 -0.57006 0.02506
v 0.5527 -0.57006 -0.05051
v 0.47714 -0.57006 -0.12458
v 0.40306 -0.57006 -0.04902
v 0.47788 -1.10912 -0.04976
v 0.47788 -0.03099 -0.04976
vn 1 0 0
vn 0 -1 0
vn 0 -1 0
vn 0 -1 0
vn 0 -1 0
vn 0.99995 0 -0.01
vn 0.99995 0 -0.01
vn 0.99995 0 -0.01
vn 0.99995 0 -0.01
vn 0.01 0 0.99995
vn 0.01 0 0.99995
vn 0.01 0 0.99995
vn 0.01 0 0.99995
vn -0.99995 0 0.01
vn -0.99995 0 0.01
vn -0.99995 0 0.01
vn -0.99995 0 0.01
vn 0 1 0
vn 0 1 0
vn 0 1 0
vn 0 1 0
vn -0.01 0 -0.99995
vn -0.01 0 -0.99995
vn -0.01 0 -0.99995
vn -0.01 0 -0.99995
f 114//202 113//202 125//202
f 115//203 114//203 125//203
f 116//204 115//204 125//204
f 113//205 116//205 125//205
f 114//206 115//206 122//206
f 115//207 119//207 122//207
f 119//208 118//208 122//208
f 118//209 114//209 122//209
f 113//210 114//210 121//210
f 114//211 118//211 121//211
f 118//212 117//212 121//212
f 117//213 113//213 121//213
f 116//214 113//214 124//214
f 113//215 117//215 124//215
f 117//216 120//216 124//216
f 120//217 116//217 124//217
f 117//218 118//218 126//218
f 118//219 119//219 126//219
f 119//220 120//220 126//220
f 120//221 117//221 126//221
f 115//222 116//222 123//222
f 116//223 120//223 123//223
f 120//224 119//224 123//224
f 119//225 115//225 123//225
g Cube_6_1
v 0.40381 -1.10912 1.13052
v 0.55345 -1.10912 1.12902
v 0.55195 -1.10912 0.97938
v 0.40232 -1.10912 0.98088
v 0.40381 -0.03099 1.13052
v 0.55345 -0.03099 1.12902
v 0.55195 -0.03099 0.97938
v 0.40232 -0.03099 0.98088
v 0.47863 -0.57006 1.12977
v 0.5527 -0.57006 1.0542
v 0.47714 -0.57006 0.98013
v 0.40306 -0.57006 1.0557
v 0.47788 -1.10912 1.05495
v 0.47788 -0.03099 1.05495
vn 1 0 0
vn 0 -1 0
vn 0 -1 0
vn 0 -1 0
vn 0 -1 0
vn 0.99995 0 -0.01
vn 0.99995 0 -0.01
vn 0.99995 0 -0.01
vn 0.99995 0 -0.01
vn 0.01 0 0.99995
vn 0.01 0 0.99995
vn 0.01 0 0.99995
vn 0.01 0 0.99995
vn -0.99995 0 0.01
vn -0.99995 0 0.01
vn -0.99995 0 0.01
vn -0.99995 0 0.01
vn 0 1 0
vn 0 1 0
vn 0 1 0
vn 0 1 0
vn -0.01 0 -0.99995
vn -0.01 0 -0.99995
vn -0.01 0 -0.99995
vn -0.01 0 -0.99995
f 128//227 127//227 139//227
f 129//228 128//228 139//228
f 130//229 129//229 139//229
f 127//230 130//230 139//230
f 128//231 129//231 136//231
f 129//232 133//232 136//232
f 133//233 132//233 136//233
f 132//234 128//234 136//234
f 127//235 128//235 135//235
f 128//236 132//236 135//236
f 132//237 131//237 135//237
f 131//238 127//238 135//238
f 130//239 127//239 138//239
f 127//240 131//240 138//240
f 131//241 134//241 138//241
f 134//242 130//242 138//242
f 131//243 132//243 140//243
f 132//244 133//244 140//244
f 133//245 134//245 140//245
f 134//246 131//246 140//246
f 129//247 130//247 137//247
f 130//248 134//248 137//248
f 134//249 133//249 137//249
f 133//250 129//250 137//250
g Cube_6_2
v -0.53966 -1.10912 0.0258
v -0.39002 -1.10912 0.02431
v -0.39152 -1.10912 -0.12533
v -0.54116 -1.10912 -0.12383
v -0.53966 -0.03099 0.0258
v -0.39002 -0.03099 0.02431
v -0.39152 -0.03099 -0.12533
v -0.54116 -0.03099 -0.12383
v -0.46484 -0.57006 0.02506
v -0.39077 -0.57006 -0.05051
v -0.46634 -0.57006 -0.12458
v -0.54041 -0.57006 -0.04902
v -0.46559 -1.10912 -0.04976
v -0.46559 -0.03099 -0.04976
vn 1 0 0
vn 0 -1 0
vn 0 -1 0
vn 0 -1 0
vn 0 -1 0
vn 0.99995 0 -0.01
vn 0.99995 0 -0.01
vn 0.99995 0 -0.01
vn 0.99995 0 -0.01
vn 0.01 0 0.99995
vn 0.01 0 0.99995
vn 0.01 0 0.99995
vn 0.01 0 0.99995
vn -0.99995 0 0.01
vn -0.99995 0 0.01
vn -0.99995 0 0.01
vn -0.99995 0 0.01
vn 0 1 0
vn 0 1 0
vn 0 1 0
vn 0 1 0
vn -0.01 0 -0.99995
vn -0.01 0 -0.99995
vn -0.01 0 -0.99995
vn -0.01 0 -0.99995
f 142//252 141//252 153//252
f 143//253 142//253 153//253
f 144//254 143//254 153//254
f 141//255 144//255 153//255
f 142//256 143//256 150//256
f 143//257 147//257 150//257
f 147//258 146//258 150//258
f 146//259 142//259 150//259
f 141//260 142//260 149//260
f 142//261 146//261 149//261
f 146//262 145//262 149//262
f 145//263 141//263 149//263
f 144//264 141//264 152//264
f 141//265 145//265 152//265
f 145//266 148//266 152//266
f 148//267 144//267 152//267
f 145//268 146//268 154//268
f 146//269 147//269 154//269
f 147//270 148//270 154//270
f 148//271 145//271 154//271
f 143//272 144//272 151//272
f 144//273 148//273 151//273
f 148//274 147//274 151//274
f 147//275 143//275 151//275
g Cube_6_3
v -0.53456 -1.10912 1.13052
v -0.38492 -1.10912 1.12902
v -0.38642 -1.10912 0.97938
v -0.53606 -1.10912 0.98088
v -0.53456 -0.03099 1.13052
v -0.38492 -0.03099 1.12902
v -0.38642 -0.03099 0.97938
v -0.53606 -0.03099 0.98088
v -0.45974 -0.57006 1.12977
v -0.38567 -0.57006 1.0542
v -0.46124 -0.57006 0.98013
v -0.53531 -0.57006 1.0557
v -0.46049 -1.10912 1.05495
v -0.46049 -0.03099 1.05495
vn 1 0 0
vn 0 -1 0
vn 0 -1 0
vn 0 -1 0
vn 0 -1 0
vn 0.99995 0 -0.01
vn 0.99995 0 -0.01
vn 0.99995 0 -0.01
vn 0.99995 0 -0.01
vn 0.01 0 0.99995
vn 0.01 0 0.99995
vn 0.01 0 0.99995
vn 0.01 0 0.99995
vn -0.99995 0 0.01
vn -0.99995 0 0.01
vn -0.99995 0 0.01
vn -0.99995 0 0.01
vn 0 1 0
vn 0 1 0
vn 0 1 0
vn 0 1 0
vn -0.01 0 -0.99995
vn -0.01 0 -0.99995
vn -0.01 0 -0.99995
vn -0.01 0 -0.99995
f 156//277 155//277 167//277
f 157//278 156//278 167//278
f 158//279 157//279 167//279
f 155//280 158//280 167//280
f 156//281 157//281 164//281
f 157//282 161//282 164//282
f 161//283 160//283 164//283
f 160//284 156//284 164//284
f 155//285 156//285 163//285
f 156//286 160//286 163//286
f 160//287 159//287 163//287
f 159//288 155//288 163//288
f 158//289 155//289 166//289
f 155//290 159//290 166//290
f 159//291 162//291 166//291
f 162//292 158//292 166//292
f 159//293 160//293 168//293
f 160//294 161//294 168//294
f 161//295 162//295 168//295
f 162//296 159//296 168//296
f 157//297 158//297 165//297
f 158//298 162//298 165//298
f 162//299 161//299 165//299
f 161//300 157//300 165//300
g Cube_6_4
v -0.50542 -0.64423 1.02793
v -0.42593 -0.64503 1.02793
v -0.427 -0.75258 1.02793
v -0.5065 -0.75179 1.02793
v -0.50542 -0.64423 -0.0502
v -0.42593 -0.64503 -0.0502
v -0.427 -0.75258 -0.0502
v -0.5065 -0.75179 -0.0502
v -0.46567 -0.64463 0.48886
v -0.42646 -0.6988 0.48886
v -0.46675 -0.75218 0.48886
v -0.50596 -0.69801 0.48886
v -0.46621 -0.69841 1.02793
v -0.46621 -0.69841 -0.0502
vn 1 0 0
vn 0 0 1
vn 0 0 1
vn 0 0 1
vn 0 0 1
vn 0.99995 -0.01 0
vn 0.99995 -0.01 0
vn 0.99995 -0.01 0
vn 0.99995 -0.01 0
vn 0.01 0.99995 -0
vn 0.01 0.99995 -0
vn 0.01 0.99995 -0
vn 0.01 0.99995 -0
vn -0.99995 0.01 -0
vn -0.99995 0.01 -0
vn -0.99995 0.01 -0
vn -0.99995 0.01 -0
vn -0 -0 -1
vn -0 -0 -1
vn -0 -0 -1
vn -0 -0 -1
vn -0.01 -0.99995 0
vn -0.01 -0.99995 0
vn -0.01 -0.99995 0
vn -0.01 -0.99995 0
f 170//302 169//302 181//302
f 171//303 170//303 181//303
f 172//304 171//304 181//304
f 169//305 172//305 181//305
f 170//306 171//306 178//306
f 171//307 175//307 178//307
f 175//308 174//308 178//308
f 174//309 170//309 178//309
f 169//310 170//310 177//310
f 170//311 174//311 177//311
f 174//312 173//312 177//312
f 173//313 169//313 177//313
f 172//314 169//314 180//314
f 169//315 173//315 180//315
f 173//316 176//316 180//316
f 176//317 172//317 180//317
f 173//318 174//318 182//318
f 174//319 175//319 182//319
f 175//320 176//320 182//320
f 176//321 173//321 182//321
f 171//322 172//322 179//322
f 172//323 176//323 179//323
f 176//324 175//324 179//324
f 175//325 171//325 179//325
g Cube_6_5
v 0.43575 -0.63706 1.02793
v 0.51525 -0.63785 1.02793
v 0.51417 -0.7454 1.02793
v 0.43468 -0.74461 1.02793
v 0.43575 -0.63706 -0.0502
v 0.51525 -0.63785 -0.0502
v 0.51417 -0.7454 -0.0502
v 0.43468 -0.74461 -0.0502
v 0.4755 -0.63745 0.48886
v 0.51471 -0.69163 0.48886
v 0.47442 -0.74501 0.48886
v 0.43521 -0.69083 0.48886
v 0.47496 -0.69123 1.02793
v 0.47496 -0.69123 -0.0502
vn 1 0 0
vn 0 0 1
vn 0 0 1
vn 0 0 1
vn 0 0 1
vn 0.99995 -0.01 0
vn 0.99995 -0.01 0
vn 0.99995 -0.01 0
vn 0.99995 -0.01 0
vn 0.01 0.99995 -0
vn 0.01 0.99995 -0
vn 0.01 0.99995 -0
vn 0.01 0.99995 -0
vn -0.99995 0.01 -0
vn -0.99995 0.01 -0
vn -0.99995 0.01 -0
vn -0.99995 0.01 -0
vn -0 -0 -1
vn -0 -0 -1
vn -0 -0 -1
vn -0 -0 -1
vn -0.01 -0.99995 0
vn -0.01 -0.99995 0
vn -0.01 -0.99995 0
vn -0.01 -0.99995 0
f 184//327 183//327 195//327
f 185//328 184//328 195//328
f 186//329 185//329 195//329
f 183//330 186//330 195//330
f 184//331 185//331 192//331
f 185//332 189//332 192//332
f 189//333 188//333 192//333
f 188//334 184//334 192//334
f 183//335 184//335 191//335
f 184//336 188//336 191//336
f 188//337 187//337 191//337
f 187//338 183//338 191//338
f 186//339 183//339 194//339
f 183//340 187//340 194//340
f 187//341 190//341 194//341
f 190//342 186//342 194//342
f 187//343 188//343 196//343
f 188//344 189//344 196//344
f 189//345 190//345 196//345
f 190//346 187//346 196//346
f 185//347 186//347 193//347
f 186//348 190//348 193//348
f 190//349 189//349 193//349
f 189//350 185//350 193//350
g dessus
usemtl flbrown
v -0.51762 0.17451 1.10227
v 0.52014 0.17451 1.10227
v 0.52014 0.09934 1.10227
v -0.51762 0.09934 1.10227
v -0.51762 0.17451 0.07719
v 0.52014 0.17451 0.07719
v 0.52014 0.09934 0.07719
v -0.51762 0.09934 0.07719
v 0.00126 0.17451 0.58973
v 0.52014 0.13693 0.58973
v 0.00126 0.09934 0.58973
v -0.51762 0.13693 0.58973
v 0.00126 0.13693 1.10227
v 0.00126 0.13693 0.07719
vn 1 0 0
vn -0 0 1
vn 0 0 1
vn 0 0 1
vn 0 0 1
vn 1 0 0
vn 1 0 0
vn 1 0 0
vn 1 0 0
vn 0 1 0
vn 0 1 0
vn 0 1 0
vn 0 1 0
vn -1 0 0
vn -1 0 0
vn -1 0 -0
vn -1 0 0
vn 0 0 -1
vn 0 0 -1
vn 0 0 -1
vn 0 0 -1
vn 0 -1 0
vn 0 -1 0
vn 0 -1 0
vn 0 -1 0
f 198//352 197//352 209//352
f 199//353 198//353 209//353
f 200//354 199//354 209//354
f 197//355 200//355 209//355
f 198//356 199//356 206//356
f 199//357 203//357 206//357
f 203//358 202//358 206//358
f 202//359 198//359 206//359
f 197//360 198//360 205//360
f 198//361 202//361 205//361
f 202//362 201//362 205//362
f 201//363 197//363 205//363
f 200//364 197//364 208//364
f 197//365 201//365 208//365
f 201//366 204//366 208//366
f 204//367 200//367 208//367
f 201//368 202//368 210//368
f 202//369 203//369 210//369
f 203//370 204//370 210//370
f 204//371 201//371 210//371
f 199//372 200//372 207//372
f 200//373 204//373 207//373
f 204//374 203//374 207//374
f 203//375 199//375 207//375
