#Produced by Art of Illusion 2.4.1, Sun Sep 02 23:13:34 CEST 2007
#Etienne gerard, table basse 1
#Copyleft: cette oeuvre est libre, vous pouvez la copier, la diffuser et la modifier selon les termes de la Licence Art Libre http://www.artlibre.org
g Cube_3
usemtl metal
v 0.02 -0.42667 0.24608
v -0.03 -0.42667 0.24608
v -0.005 -0.42667 0.22108
v 0.02 -0.42667 0.19608
v -0.03 -0.42667 0.19608
v 0.02 -0.20167 0.22108
v 0.02 0.02333 0.19608
v 0.02 0.02333 0.24608
v -0.005 -0.20167 0.24608
v -0.03 0.02333 0.24608
v -0.03 -0.20167 0.22108
v -0.03 0.02333 0.19608
v -0.005 0.02333 0.22108
v -0.005 -0.20167 0.19608
vn 0 0 1
vn 1 0 0
vn 0 -1 0
vn -1 0 0
vn 0 0 1
vn 0 -1 0
vn 0 -1 0
vn 0 -1 0
vn 0 0 -1
vn 1 0 0
vn 0 -1 0
vn -1 0 0
vn 0 0 -1
vn 1 0 0
vn 0 0 -1
vn 0 1 0
vn 1 0 0
vn 0 1 0
vn 0 0 1
vn 1 0 0
vn 0 0 1
vn 0 1 0
vn -1 0 0
vn 0 0 1
vn -1 0 0
vn 0 1 0
vn 0 0 -1
vn -1 0 0
vn 0 1 0
vn 0 0 -1
f 1//3 2//6 3//7
f 4//8 1//3 3//7
f 5//11 4//8 3//7
f 2//6 5//11 3//7
f 1//2 4//10 6//14
f 4//10 7//17 6//14
f 7//17 8//20 6//14
f 8//20 1//2 6//14
f 2//5 1//1 9//21
f 1//1 8//19 9//21
f 8//19 10//24 9//21
f 10//24 2//5 9//21
f 5//12 2//4 11//25
f 2//4 10//23 11//25
f 10//23 12//28 11//25
f 12//28 5//12 11//25
f 10//22 8//18 13//29
f 8//18 7//16 13//29
f 7//16 12//26 13//29
f 12//26 10//22 13//29
f 4//9 5//13 14//30
f 5//13 12//27 14//30
f 12//27 7//15 14//30
f 7//15 4//9 14//30
g Cube_2
v 1.12 0.025 -0.205
v 0.02 0.025 -0.205
v 0.57 0 -0.205
v 1.12 -0.025 -0.205
v 0.02 -0.025 -0.205
v 1.12 0 -0.23
v 1.12 -0.025 -0.255
v 1.12 0.025 -0.255
v 0.57 0.025 -0.23
v 0.02 0.025 -0.255
v 0.02 0 -0.23
v 0.02 -0.025 -0.255
v 0.57 0 -0.255
v 0.57 -0.025 -0.23
vn 0 1 0
vn 1 0 0
vn 0 0 1
vn -1 0 0
vn 0 1 0
vn 0 0 1
vn 0 0 1
vn 0 0 1
vn 0 -1 0
vn 1 0 0
vn 0 0 1
vn -1 0 0
vn 0 -1 0
vn 1 0 0
vn 0 -1 0
vn 0 0 -1
vn 1 0 0
vn 0 0 -1
vn 0 1 0
vn 1 0 0
vn 0 1 0
vn 0 0 -1
vn -1 0 0
vn 0 1 0
vn -1 0 0
vn 0 0 -1
vn 0 -1 0
vn -1 0 0
vn 0 0 -1
vn 0 -1 0
f 15//33 16//36 17//37
f 18//38 15//33 17//37
f 19//41 18//38 17//37
f 16//36 19//41 17//37
f 15//32 18//40 20//44
f 18//40 21//47 20//44
f 21//47 22//50 20//44
f 22//50 15//32 20//44
f 16//35 15//31 23//51
f 15//31 22//49 23//51
f 22//49 24//54 23//51
f 24//54 16//35 23//51
f 19//42 16//34 25//55
f 16//34 24//53 25//55
f 24//53 26//58 25//55
f 26//58 19//42 25//55
f 24//52 22//48 27//59
f 22//48 21//46 27//59
f 21//46 26//56 27//59
f 26//56 24//52 27//59
f 18//39 19//43 28//60
f 19//43 26//57 28//60
f 26//57 21//45 28//60
f 21//45 18//39 28//60
g Cube_1_3
v -0.03 -0.2269 0.24535
v -0.03 -0.2269 -0.25465
v -0.005 -0.2269 -0.00465
v 0.02 -0.2269 0.24535
v 0.02 -0.2269 -0.25465
v -0.005 -0.2019 0.24535
v 0.02 -0.1769 0.24535
v -0.03 -0.1769 0.24535
v -0.03 -0.2019 -0.00465
v -0.03 -0.1769 -0.25465
v -0.005 -0.2019 -0.25465
v 0.02 -0.1769 -0.25465
v -0.005 -0.1769 -0.00465
v 0.02 -0.2019 -0.00465
vn -1 0 0
vn 0 0 1
vn 0 -1 0
vn 0 0 -1
vn -1 0 0
vn 0 -1 0
vn 0 -1 0
vn 0 -1 0
vn 1 0 0
vn 0 0 1
vn 0 -1 0
vn 0 0 -1
vn 1 0 0
vn 0 0 1
vn 1 0 0
vn 0 1 0
vn 0 0 1
vn 0 1 0
vn -1 0 0
vn 0 0 1
vn -1 0 0
vn 0 1 0
vn 0 0 -1
vn -1 0 0
vn 0 0 -1
vn 0 1 0
vn 1 0 0
vn 0 0 -1
vn 0 1 0
vn 1 0 0
f 29//63 30//66 31//67
f 32//68 29//63 31//67
f 33//71 32//68 31//67
f 30//66 33//71 31//67
f 29//62 32//70 34//74
f 32//70 35//77 34//74
f 35//77 36//80 34//74
f 36//80 29//62 34//74
f 30//65 29//61 37//81
f 29//61 36//79 37//81
f 36//79 38//84 37//81
f 38//84 30//65 37//81
f 33//72 30//64 39//85
f 30//64 38//83 39//85
f 38//83 40//88 39//85
f 40//88 33//72 39//85
f 38//82 36//78 41//89
f 36//78 35//76 41//89
f 35//76 40//86 41//89
f 40//86 38//82 41//89
f 32//69 33//73 42//90
f 33//73 40//87 42//90
f 40//87 35//75 42//90
f 35//75 32//69 42//90
g Cube_1
v -0.03 -0.02487 0.24535
v -0.03 -0.02487 -0.25465
v -0.005 -0.02487 -0.00465
v 0.02 -0.02487 0.24535
v 0.02 -0.02487 -0.25465
v -0.005 0.00013 0.24535
v 0.02 0.02513 0.24535
v -0.03 0.02513 0.24535
v -0.03 0.00013 -0.00465
v -0.03 0.02513 -0.25465
v -0.005 0.00013 -0.25465
v 0.02 0.02513 -0.25465
v -0.005 0.02513 -0.00465
v 0.02 0.00013 -0.00465
vn -1 0 0
vn 0 0 1
vn 0 -1 0
vn 0 0 -1
vn -1 0 0
vn 0 -1 0
vn 0 -1 0
vn 0 -1 0
vn 1 0 0
vn 0 0 1
vn 0 -1 0
vn 0 0 -1
vn 1 0 0
vn 0 0 1
vn 1 0 0
vn 0 1 0
vn 0 0 1
vn 0 1 0
vn -1 0 0
vn 0 0 1
vn -1 0 0
vn 0 1 0
vn 0 0 -1
vn -1 0 0
vn 0 0 -1
vn 0 1 0
vn 1 0 0
vn 0 0 -1
vn 0 1 0
vn 1 0 0
f 43//93 44//96 45//97
f 46//98 43//93 45//97
f 47//101 46//98 45//97
f 44//96 47//101 45//97
f 43//92 46//100 48//104
f 46//100 49//107 48//104
f 49//107 50//110 48//104
f 50//110 43//92 48//104
f 44//95 43//91 51//111
f 43//91 50//109 51//111
f 50//109 52//114 51//111
f 52//114 44//95 51//111
f 47//102 44//94 53//115
f 44//94 52//113 53//115
f 52//113 54//118 53//115
f 54//118 47//102 53//115
f 52//112 50//108 55//119
f 50//108 49//106 55//119
f 49//106 54//116 55//119
f 54//116 52//112 55//119
f 46//99 47//103 56//120
f 47//103 54//117 56//120
f 54//117 49//105 56//120
f 49//105 46//99 56//120
g Cube_1_2
v 1.12 -0.2269 0.24535
v 1.12 -0.2269 -0.25465
v 1.145 -0.2269 -0.00465
v 1.17 -0.2269 0.24535
v 1.17 -0.2269 -0.25465
v 1.145 -0.2019 0.24535
v 1.17 -0.1769 0.24535
v 1.12 -0.1769 0.24535
v 1.12 -0.2019 -0.00465
v 1.12 -0.1769 -0.25465
v 1.145 -0.2019 -0.25465
v 1.17 -0.1769 -0.25465
v 1.145 -0.1769 -0.00465
v 1.17 -0.2019 -0.00465
vn -1 0 0
vn 0 0 1
vn 0 -1 0
vn 0 0 -1
vn -1 0 0
vn 0 -1 0
vn 0 -1 0
vn 0 -1 0
vn 1 0 0
vn 0 0 1
vn 0 -1 0
vn 0 0 -1
vn 1 0 0
vn 0 0 1
vn 1 0 0
vn 0 1 0
vn 0 0 1
vn 0 1 0
vn -1 0 0
vn 0 0 1
vn -1 0 0
vn 0 1 0
vn 0 0 -1
vn -1 0 0
vn 0 0 -1
vn 0 1 0
vn 1 0 0
vn 0 0 -1
vn 0 1 0
vn 1 0 0
f 57//123 58//126 59//127
f 60//128 57//123 59//127
f 61//131 60//128 59//127
f 58//126 61//131 59//127
f 57//122 60//130 62//134
f 60//130 63//137 62//134
f 63//137 64//140 62//134
f 64//140 57//122 62//134
f 58//125 57//121 65//141
f 57//121 64//139 65//141
f 64//139 66//144 65//141
f 66//144 58//125 65//141
f 61//132 58//124 67//145
f 58//124 66//143 67//145
f 66//143 68//148 67//145
f 68//148 61//132 67//145
f 66//142 64//138 69//149
f 64//138 63//136 69//149
f 63//136 68//146 69//149
f 68//146 66//142 69//149
f 60//129 61//133 70//150
f 61//133 68//147 70//150
f 68//147 63//135 70//150
f 63//135 60//129 70//150
g Cube_1_1
v 1.12 -0.02487 0.24535
v 1.12 -0.02487 -0.25465
v 1.145 -0.02487 -0.00465
v 1.17 -0.02487 0.24535
v 1.17 -0.02487 -0.25465
v 1.145 0.00013 0.24535
v 1.17 0.02513 0.24535
v 1.12 0.02513 0.24535
v 1.12 0.00013 -0.00465
v 1.12 0.02513 -0.25465
v 1.145 0.00013 -0.25465
v 1.17 0.02513 -0.25465
v 1.145 0.02513 -0.00465
v 1.17 0.00013 -0.00465
vn -1 0 0
vn 0 0 1
vn 0 -1 0
vn 0 0 -1
vn -1 0 0
vn 0 -1 0
vn 0 -1 0
vn 0 -1 0
vn 1 0 0
vn 0 0 1
vn 0 -1 0
vn 0 0 -1
vn 1 0 0
vn 0 0 1
vn 1 0 0
vn 0 1 0
vn 0 0 1
vn 0 1 0
vn -1 0 0
vn 0 0 1
vn -1 0 0
vn 0 1 0
vn 0 0 -1
vn -1 0 0
vn 0 0 -1
vn 0 1 0
vn 1 0 0
vn 0 0 -1
vn 0 1 0
vn 1 0 0
f 71//153 72//156 73//157
f 74//158 71//153 73//157
f 75//161 74//158 73//157
f 72//156 75//161 73//157
f 71//152 74//160 76//164
f 74//160 77//167 76//164
f 77//167 78//170 76//164
f 78//170 71//152 76//164
f 72//155 71//151 79//171
f 71//151 78//169 79//171
f 78//169 80//174 79//171
f 80//174 72//155 79//171
f 75//162 72//154 81//175
f 72//154 80//173 81//175
f 80//173 82//178 81//175
f 82//178 75//162 81//175
f 80//172 78//168 83//179
f 78//168 77//166 83//179
f 77//166 82//176 83//179
f 82//176 80//172 83//179
f 74//159 75//163 84//180
f 75//163 82//177 84//180
f 82//177 77//165 84//180
f 77//165 74//159 84//180
g Cube_2_3
v 1.12 -0.175 -0.205
v 0.02 -0.175 -0.205
v 0.57 -0.2 -0.205
v 1.12 -0.225 -0.205
v 0.02 -0.225 -0.205
v 1.12 -0.2 -0.23
v 1.12 -0.225 -0.255
v 1.12 -0.175 -0.255
v 0.57 -0.175 -0.23
v 0.02 -0.175 -0.255
v 0.02 -0.2 -0.23
v 0.02 -0.225 -0.255
v 0.57 -0.2 -0.255
v 0.57 -0.225 -0.23
vn 0 1 0
vn 1 0 0
vn 0 0 1
vn -1 0 0
vn 0 1 0
vn 0 0 1
vn 0 0 1
vn 0 0 1
vn 0 -1 0
vn 1 0 0
vn 0 0 1
vn -1 0 0
vn 0 -1 0
vn 1 0 0
vn 0 -1 0
vn 0 0 -1
vn 1 0 0
vn 0 0 -1
vn 0 1 0
vn 1 0 0
vn 0 1 0
vn 0 0 -1
vn -1 0 0
vn 0 1 0
vn -1 0 0
vn 0 0 -1
vn 0 -1 0
vn -1 0 0
vn 0 0 -1
vn 0 -1 0
f 85//183 86//186 87//187
f 88//188 85//183 87//187
f 89//191 88//188 87//187
f 86//186 89//191 87//187
f 85//182 88//190 90//194
f 88//190 91//197 90//194
f 91//197 92//200 90//194
f 92//200 85//182 90//194
f 86//185 85//181 93//201
f 85//181 92//199 93//201
f 92//199 94//204 93//201
f 94//204 86//185 93//201
f 89//192 86//184 95//205
f 86//184 94//203 95//205
f 94//203 96//208 95//205
f 96//208 89//192 95//205
f 94//202 92//198 97//209
f 92//198 91//196 97//209
f 91//196 96//206 97//209
f 96//206 94//202 97//209
f 88//189 89//193 98//210
f 89//193 96//207 98//210
f 96//207 91//195 98//210
f 91//195 88//189 98//210
g Cube_2_2
v 1.12 -0.175 0.245
v 0.02 -0.175 0.245
v 0.57 -0.2 0.245
v 1.12 -0.225 0.245
v 0.02 -0.225 0.245
v 1.12 -0.2 0.22
v 1.12 -0.225 0.195
v 1.12 -0.175 0.195
v 0.57 -0.175 0.22
v 0.02 -0.175 0.195
v 0.02 -0.2 0.22
v 0.02 -0.225 0.195
v 0.57 -0.2 0.195
v 0.57 -0.225 0.22
vn 0 1 0
vn 1 0 0
vn 0 0 1
vn -1 0 0
vn 0 1 0
vn 0 0 1
vn 0 0 1
vn 0 0 1
vn 0 -1 0
vn 1 0 0
vn 0 0 1
vn -1 0 0
vn 0 -1 0
vn 1 0 0
vn 0 -1 0
vn 0 0 -1
vn 1 0 0
vn 0 0 -1
vn 0 1 0
vn 1 0 0
vn 0 1 0
vn 0 0 -1
vn -1 0 0
vn 0 1 0
vn -1 0 0
vn 0 0 -1
vn 0 -1 0
vn -1 0 0
vn 0 0 -1
vn 0 -1 0
f 99//213 100//216 101//217
f 102//218 99//213 101//217
f 103//221 102//218 101//217
f 100//216 103//221 101//217
f 99//212 102//220 104//224
f 102//220 105//227 104//224
f 105//227 106//230 104//224
f 106//230 99//212 104//224
f 100//215 99//211 107//231
f 99//211 106//229 107//231
f 106//229 108//234 107//231
f 108//234 100//215 107//231
f 103//222 100//214 109//235
f 100//214 108//233 109//235
f 108//233 110//238 109//235
f 110//238 103//222 109//235
f 108//232 106//228 111//239
f 106//228 105//226 111//239
f 105//226 110//236 111//239
f 110//236 108//232 111//239
f 102//219 103//223 112//240
f 103//223 110//237 112//240
f 110//237 105//225 112//240
f 105//225 102//219 112//240
g sweethome3d_window_pane
usemtl glasstransparent
v 1.125 0.021 0.195
v 0.02 0.021 0.195
v 0.5725 0.02 0.195
v 1.125 0.019 0.195
v 0.02 0.019 0.195
v 1.125 0.02 -0.005
v 1.125 0.019 -0.205
v 1.125 0.021 -0.205
v 0.5725 0.021 -0.005
v 0.02 0.021 -0.205
v 0.02 0.02 -0.005
v 0.02 0.019 -0.205
v 0.5725 0.02 -0.205
v 0.5725 0.019 -0.005
vn 0 1 0
vn 1 0 0
vn 0 0 1
vn -1 0 0
vn 0 1 0
vn 0 0 1
vn 0 0 1
vn 0 0 1
vn 0 -1 0
vn 1 0 0
vn 0 0 1
vn -1 0 0
vn 0 -1 0
vn 1 0 0
vn 0 -1 0
vn 0 0 -1
vn 1 0 0
vn 0 0 -1
vn 0 1 0
vn 1 0 0
vn 0 1 0
vn 0 0 -1
vn -1 0 0
vn 0 1 0
vn -1 0 0
vn 0 0 -1
vn 0 -1 0
vn -1 0 0
vn 0 0 -1
vn 0 -1 0
f 113//243 114//246 115//247
f 116//248 113//243 115//247
f 117//251 116//248 115//247
f 114//246 117//251 115//247
f 113//242 116//250 118//254
f 116//250 119//257 118//254
f 119//257 120//260 118//254
f 120//260 113//242 118//254
f 114//245 113//241 121//261
f 113//241 120//259 121//261
f 120//259 122//264 121//261
f 122//264 114//245 121//261
f 117//252 114//244 123//265
f 114//244 122//263 123//265
f 122//263 124//268 123//265
f 124//268 117//252 123//265
f 122//262 120//258 125//269
f 120//258 119//256 125//269
f 119//256 124//266 125//269
f 124//266 122//262 125//269
f 116//249 117//253 126//270
f 117//253 124//267 126//270
f 124//267 119//255 126//270
f 119//255 116//249 126//270
g Cube_2_1
usemtl metal
v 1.12 0.025 0.245
v 0.02 0.025 0.245
v 0.57 0 0.245
v 1.12 -0.025 0.245
v 0.02 -0.025 0.245
v 1.12 0 0.22
v 1.12 -0.025 0.195
v 1.12 0.025 0.195
v 0.57 0.025 0.22
v 0.02 0.025 0.195
v 0.02 0 0.22
v 0.02 -0.025 0.195
v 0.57 0 0.195
v 0.57 -0.025 0.22
vn 0 1 0
vn 1 0 0
vn 0 0 1
vn -1 0 0
vn 0 1 0
vn 0 0 1
vn 0 0 1
vn 0 0 1
vn 0 -1 0
vn 1 0 0
vn 0 0 1
vn -1 0 0
vn 0 -1 0
vn 1 0 0
vn 0 -1 0
vn 0 0 -1
vn 1 0 0
vn 0 0 -1
vn 0 1 0
vn 1 0 0
vn 0 1 0
vn 0 0 -1
vn -1 0 0
vn 0 1 0
vn -1 0 0
vn 0 0 -1
vn 0 -1 0
vn -1 0 0
vn 0 0 -1
vn 0 -1 0
f 127//273 128//276 129//277
f 130//278 127//273 129//277
f 131//281 130//278 129//277
f 128//276 131//281 129//277
f 127//272 130//280 132//284
f 130//280 133//287 132//284
f 133//287 134//290 132//284
f 134//290 127//272 132//284
f 128//275 127//271 135//291
f 127//271 134//289 135//291
f 134//289 136//294 135//291
f 136//294 128//275 135//291
f 131//282 128//274 137//295
f 128//274 136//293 137//295
f 136//293 138//298 137//295
f 138//298 131//282 137//295
f 136//292 134//288 139//299
f 134//288 133//286 139//299
f 133//286 138//296 139//299
f 138//296 136//292 139//299
f 130//279 131//283 140//300
f 131//283 138//297 140//300
f 138//297 133//285 140//300
f 133//285 130//279 140//300
g Cube_3_3
v 0.02 -0.42667 -0.205
v -0.03 -0.42667 -0.205
v -0.005 -0.42667 -0.23
v 0.02 -0.42667 -0.255
v -0.03 -0.42667 -0.255
v 0.02 -0.20167 -0.23
v 0.02 0.02333 -0.255
v 0.02 0.02333 -0.205
v -0.005 -0.20167 -0.205
v -0.03 0.02333 -0.205
v -0.03 -0.20167 -0.23
v -0.03 0.02333 -0.255
v -0.005 0.02333 -0.23
v -0.005 -0.20167 -0.255
vn 0 0 1
vn 1 0 0
vn 0 -1 0
vn -1 0 0
vn 0 0 1
vn 0 -1 0
vn 0 -1 0
vn 0 -1 0
vn 0 0 -1
vn 1 0 0
vn 0 -1 0
vn -1 0 0
vn 0 0 -1
vn 1 0 0
vn 0 0 -1
vn 0 1 0
vn 1 0 0
vn 0 1 0
vn 0 0 1
vn 1 0 0
vn 0 0 1
vn 0 1 0
vn -1 0 0
vn 0 0 1
vn -1 0 0
vn 0 1 0
vn 0 0 -1
vn -1 0 0
vn 0 1 0
vn 0 0 -1
f 141//303 142//306 143//307
f 144//308 141//303 143//307
f 145//311 144//308 143//307
f 142//306 145//311 143//307
f 141//302 144//310 146//314
f 144//310 147//317 146//314
f 147//317 148//320 146//314
f 148//320 141//302 146//314
f 142//305 141//301 149//321
f 141//301 148//319 149//321
f 148//319 150//324 149//321
f 150//324 142//305 149//321
f 145//312 142//304 151//325
f 142//304 150//323 151//325
f 150//323 152//328 151//325
f 152//328 145//312 151//325
f 150//322 148//318 153//329
f 148//318 147//316 153//329
f 147//316 152//326 153//329
f 152//326 150//322 153//329
f 144//309 145//313 154//330
f 145//313 152//327 154//330
f 152//327 147//315 154//330
f 147//315 144//309 154//330
g Cube_3_2
v 1.17 -0.42667 -0.205
v 1.12 -0.42667 -0.205
v 1.145 -0.42667 -0.23
v 1.17 -0.42667 -0.255
v 1.12 -0.42667 -0.255
v 1.17 -0.20167 -0.23
v 1.17 0.02333 -0.255
v 1.17 0.02333 -0.205
v 1.145 -0.20167 -0.205
v 1.12 0.02333 -0.205
v 1.12 -0.20167 -0.23
v 1.12 0.02333 -0.255
v 1.145 0.02333 -0.23
v 1.145 -0.20167 -0.255
vn 0 0 1
vn 1 0 0
vn 0 -1 0
vn -1 0 0
vn 0 0 1
vn 0 -1 0
vn 0 -1 0
vn 0 -1 0
vn 0 0 -1
vn 1 0 0
vn 0 -1 0
vn -1 0 0
vn 0 0 -1
vn 1 0 0
vn 0 0 -1
vn 0 1 0
vn 1 0 0
vn 0 1 0
vn 0 0 1
vn 1 0 0
vn 0 0 1
vn 0 1 0
vn -1 0 0
vn 0 0 1
vn -1 0 0
vn 0 1 0
vn 0 0 -1
vn -1 0 0
vn 0 1 0
vn 0 0 -1
f 155//333 156//336 157//337
f 158//338 155//333 157//337
f 159//341 158//338 157//337
f 156//336 159//341 157//337
f 155//332 158//340 160//344
f 158//340 161//347 160//344
f 161//347 162//350 160//344
f 162//350 155//332 160//344
f 156//335 155//331 163//351
f 155//331 162//349 163//351
f 162//349 164//354 163//351
f 164//354 156//335 163//351
f 159//342 156//334 165//355
f 156//334 164//353 165//355
f 164//353 166//358 165//355
f 166//358 159//342 165//355
f 164//352 162//348 167//359
f 162//348 161//346 167//359
f 161//346 166//356 167//359
f 166//356 164//352 167//359
f 158//339 159//343 168//360
f 159//343 166//357 168//360
f 166//357 161//345 168//360
f 161//345 158//339 168//360
g Cube_3_1
v 1.17 -0.42667 0.24608
v 1.12 -0.42667 0.24608
v 1.145 -0.42667 0.22108
v 1.17 -0.42667 0.19608
v 1.12 -0.42667 0.19608
v 1.17 -0.20167 0.22108
v 1.17 0.02333 0.19608
v 1.17 0.02333 0.24608
v 1.145 -0.20167 0.24608
v 1.12 0.02333 0.24608
v 1.12 -0.20167 0.22108
v 1.12 0.02333 0.19608
v 1.145 0.02333 0.22108
v 1.145 -0.20167 0.19608
vn 0 0 1
vn 1 0 0
vn 0 -1 0
vn -1 0 0
vn 0 0 1
vn 0 -1 0
vn 0 -1 0
vn 0 -1 0
vn 0 0 -1
vn 1 0 0
vn 0 -1 0
vn -1 0 0
vn 0 0 -1
vn 1 0 0
vn 0 0 -1
vn 0 1 0
vn 1 0 0
vn 0 1 0
vn 0 0 1
vn 1 0 0
vn 0 0 1
vn 0 1 0
vn -1 0 0
vn 0 0 1
vn -1 0 0
vn 0 1 0
vn 0 0 -1
vn -1 0 0
vn 0 1 0
vn 0 0 -1
f 169//363 170//366 171//367
f 172//368 169//363 171//367
f 173//371 172//368 171//367
f 170//366 173//371 171//367
f 169//362 172//370 174//374
f 172//370 175//377 174//374
f 175//377 176//380 174//374
f 176//380 169//362 174//374
f 170//365 169//361 177//381
f 169//361 176//379 177//381
f 176//379 178//384 177//381
f 178//384 170//365 177//381
f 173//372 170//364 179//385
f 170//364 178//383 179//385
f 178//383 180//388 179//385
f 180//388 173//372 179//385
f 178//382 176//378 181//389
f 176//378 175//376 181//389
f 175//376 180//386 181//389
f 180//386 178//382 181//389
f 172//369 173//373 182//390
f 173//373 180//387 182//390
f 180//387 175//375 182//390
f 175//375 172//369 182//390
