#Produced by Art of Illusion 2.5, Mon Sep 24 18:44:29 CEST 2007
g Couche:OBJECT018
usemtl lighttan
v -1.27 -1.92 -1.52
v -1.27 0.9 -1.52
v -1.27 0.9 -1.5
v -1.27 -1.92 -1.5
v -0.43 -1.92 -1.52
v -0.43 -1.92 -1.5
v -0.43 0.9 -1.5
v -0.43 0.9 -1.52
vn 1 0 0
vn -1 0 0
vn -1 0 0
vn 1 0 0
vn 1 0 0
vn 0 0 -1
vn 0 0 -1
vn 0 -1 0
vn 0 -1 0
vn 0 1 0
vn 0 1 0
vn 0 0 1
vn 0 0 1
f 1//2 3//2 2//2
f 1//3 4//3 3//3
f 5//4 7//4 6//4
f 5//5 8//5 7//5
f 1//6 8//6 5//6
f 1//7 2//7 8//7
f 4//8 5//8 6//8
f 4//9 1//9 5//9
f 2//10 7//10 8//10
f 2//11 3//11 7//11
f 6//12 3//12 4//12
f 6//13 7//13 3//13
g Couche:OBJECT017
usemtl lighttan
v -1.27 1.76 -0.52
v -0.43 1.76 -0.52
v -0.43 1.76 0.28
v -1.27 1.76 0.28
v -1.27 1.74 0.28
v -1.27 1.74 -0.52
v -0.43 1.74 0.28
v -0.43 1.74 -0.52
vn 1 0 0
vn 0 1 0
vn 0 1 0
vn -1 0 0
vn -1 0 0
vn 1 0 0
vn 1 0 0
vn 0 -1 0
vn 0 -1 0
vn 0 0 -1
vn 0 0 -1
vn 0 0 1
vn 0 0 1
f 9//15 11//15 10//15
f 9//16 12//16 11//16
f 12//17 14//17 13//17
f 12//18 9//18 14//18
f 15//19 10//19 11//19
f 15//20 16//20 10//20
f 13//21 16//21 15//21
f 13//22 14//22 16//22
f 10//23 14//23 9//23
f 10//24 16//24 14//24
f 12//25 15//25 11//25
f 12//26 13//26 15//26
g Couche:OBJECT016
usemtl lighttan
v -1.27 1.76 -1.52
v -0.43 1.76 -1.52
v -0.43 1.76 -0.52
v -1.27 1.76 -0.52
v -1.27 0.92 -0.52
v -1.27 0.92 -1.52
v -0.43 0.92 -1.52
v -0.43 0.92 -0.52
vn 1 0 0
vn 0 1 0
vn 0 1 0
vn -1 0 0
vn -1 0 0
vn 1 0 0
vn 1 0 0
vn 0 0 -1
vn 0 0 -1
vn 0 -1 0
vn 0 -1 0
vn 0 0 1
vn 0 0 1
f 17//28 19//28 18//28
f 17//29 20//29 19//29
f 17//30 21//30 20//30
f 17//31 22//31 21//31
f 18//32 24//32 23//32
f 18//33 19//33 24//33
f 18//34 22//34 17//34
f 18//35 23//35 22//35
f 21//36 23//36 24//36
f 21//37 22//37 23//37
f 20//38 24//38 19//38
f 20//39 21//39 24//39
g Couche:OBJECT015
usemtl lighttan
v -1.27 1.76 0.28
v -0.43 1.76 0.28
v -0.43 1.76 1.28
v -1.27 1.76 1.28
v -1.27 0.92 1.28
v -1.27 0.92 0.28
v -0.43 0.92 1.28
v -0.43 0.92 0.28
vn 1 0 0
vn 0 1 0
vn 0 1 0
vn -1 0 0
vn -1 0 0
vn 1 0 0
vn 1 0 0
vn 0 0 1
vn 0 0 1
vn 0 -1 0
vn 0 -1 0
vn 0 0 -1
vn 0 0 -1
f 25//41 27//41 26//41
f 25//42 28//42 27//42
f 28//43 30//43 29//43
f 28//44 25//44 30//44
f 31//45 26//45 27//45
f 31//46 32//46 26//46
f 28//47 31//47 27//47
f 28//48 29//48 31//48
f 29//49 32//49 31//49
f 29//50 30//50 32//50
f 26//51 30//51 25//51
f 26//52 32//52 30//52
g Couche:OBJECT014
usemtl lighttan
v -1.25 1.76 -0.52
v -1.25 1.76 0.28
v -1.27 1.76 0.28
v -1.27 1.76 -0.52
v -1.25 0.92 0.28
v -1.25 0.92 -0.52
v -1.27 0.92 -0.52
v -1.27 0.92 0.28
vn 1 0 0
vn 0 1 0
vn 0 1 0
vn 0 -1 0
vn 0 -1 0
vn -1 0 0
vn -1 0 0
vn 1 0 0
vn 1 0 0
vn 0 0 -1
vn 0 0 -1
vn 0 0 1
vn 0 0 1
f 33//54 35//54 34//54
f 33//55 36//55 35//55
f 37//56 39//56 38//56
f 37//57 40//57 39//57
f 35//58 39//58 40//58
f 35//59 36//59 39//59
f 37//60 33//60 34//60
f 37//61 38//61 33//61
f 36//62 38//62 39//62
f 36//63 33//63 38//63
f 40//64 34//64 35//64
f 40//65 37//65 34//65
g Couche:OBJECT013
usemtl lighttan
v -1.27 0.9 1.28
v -1.27 0.9 -1.52
v -1.27 0.92 -1.52
v -1.27 0.92 1.28
v -0.43 0.9 -1.52
v -0.43 0.9 1.28
v -0.43 0.92 1.28
v -0.43 0.92 -1.52
vn 1 0 0
vn -1 0 0
vn -1 0 0
vn 1 0 0
vn 1 0 0
vn 0 0 -1
vn 0 0 -1
vn 0 0 1
vn 0 0 1
vn 0 1 0
vn 0 1 0
vn 0 -1 0
vn 0 -1 0
f 41//67 43//67 42//67
f 41//68 44//68 43//68
f 45//69 47//69 46//69
f 45//70 48//70 47//70
f 42//71 48//71 45//71
f 42//72 43//72 48//72
f 46//73 44//73 41//73
f 46//74 47//74 44//74
f 43//75 47//75 48//75
f 43//76 44//76 47//76
f 41//77 45//77 46//77
f 41//78 42//78 45//78
g Couche:OBJECT012
usemtl lighttan
v -1.25 0.9 -1.5
v -1.25 0.9 0.28
v -1.27 0.9 0.28
v -1.27 0.9 -1.5
v -1.25 0.58 0.28
v -1.25 0.58 -1.5
v -1.27 0.58 -1.5
v -1.27 0.58 0.28
vn 1 0 0
vn 0 1 0
vn 0 1 0
vn 0 -1 0
vn 0 -1 0
vn -1 0 0
vn -1 0 0
vn 1 0 0
vn 1 0 0
vn 0 0 -1
vn 0 0 -1
vn 0 0 1
vn 0 0 1
f 49//80 51//80 50//80
f 49//81 52//81 51//81
f 53//82 55//82 54//82
f 53//83 56//83 55//83
f 51//84 55//84 56//84
f 51//85 52//85 55//85
f 53//86 49//86 50//86
f 53//87 54//87 49//87
f 52//88 54//88 55//88
f 52//89 49//89 54//89
f 56//90 50//90 51//90
f 56//91 53//91 50//91
g Couche:OBJECT011
usemtl lighttan
v -0.93 0.58 -1.5
v -0.93 0.58 0.28
v -0.93 0.6 0.28
v -0.93 0.6 -1.5
v -1.25 0.58 0.28
v -1.25 0.58 -1.5
v -1.25 0.6 -1.5
v -1.25 0.6 0.28
vn 1 0 0
vn 1 0 0
vn 1 0 0
vn -1 0 0
vn -1 0 0
vn 0 1 0
vn 0 1 0
vn 0 -1 0
vn 0 -1 0
vn 0 0 -1
vn 0 0 -1
vn 0 0 1
vn 0 0 1
f 57//93 59//93 58//93
f 57//94 60//94 59//94
f 61//95 63//95 62//95
f 61//96 64//96 63//96
f 59//97 63//97 64//97
f 59//98 60//98 63//98
f 61//99 57//99 58//99
f 61//100 62//100 57//100
f 60//101 62//101 63//101
f 60//102 57//102 62//102
f 64//103 58//103 59//103
f 64//104 61//104 58//104
g Couche:OBJECT010
usemtl lighttan
v -1.27 -0.42 0.28
v -1.27 0.9 0.28
v -1.27 0.9 0.3
v -1.27 -0.42 0.3
v -0.43 -0.42 0.3
v -0.43 0.9 0.3
v -0.43 0.9 0.28
v -0.43 -0.42 0.28
vn 1 0 0
vn -1 0 0
vn -1 0 0
vn 1 0 0
vn 1 0 0
vn 0 -1 0
vn 0 -1 0
vn 0 1 0
vn 0 1 0
vn 0 0 -1
vn 0 0 -1
vn 0 0 1
vn 0 0 1
f 65//106 67//106 66//106
f 65//107 68//107 67//107
f 69//108 71//108 70//108
f 69//109 72//109 71//109
f 68//110 72//110 69//110
f 68//111 65//111 72//111
f 66//112 70//112 71//112
f 66//113 67//113 70//113
f 65//114 71//114 72//114
f 65//115 66//115 71//115
f 69//116 67//116 68//116
f 69//117 70//117 67//117
g Couche:OBJECT022
usemtl lighttan
v 0.51 -0.9 -1.5
v 0.51 -0.9 -1.48
v -0.49 -0.9 -1.48
v -0.49 -0.9 -1.5
v 0.51 -1.5 -1.48
v 0.51 -1.5 -1.5
v -0.49 -1.5 -1.5
v -0.49 -1.5 -1.48
vn 1 0 0
vn 0 1 0
vn 0 1 0
vn 0 -1 0
vn 0 -1 0
vn -1 0 0
vn -1 0 0
vn 1 0 0
vn 1 0 0
vn 0 0 -1
vn 0 0 -1
vn 0 0 1
vn 0 0 1
f 73//119 75//119 74//119
f 73//120 76//120 75//120
f 77//121 79//121 78//121
f 77//122 80//122 79//122
f 75//123 79//123 80//123
f 75//124 76//124 79//124
f 77//125 73//125 74//125
f 77//126 78//126 73//126
f 76//127 78//127 79//127
f 76//128 73//128 78//128
f 80//129 74//129 75//129
f 80//130 77//130 74//130
g Couche:OBJECT021
usemtl black
v -0.4 -0.61 0.65
v -0.4 -0.59 0.65
v -0.44 -0.59 0.65
v -0.44 -0.61 0.65
v -0.4 -0.59 0.91
v -0.4 -0.61 0.91
v -0.44 -0.61 0.91
v -0.44 -0.59 0.91
vn 1 0 0
vn 0 -1 0
vn 0 0 -1
vn 1 0 0
vn 0 0 -1
vn 0 1 0
vn 0 1 0
vn -1 0 0
vn 0 0 -1
vn 0 0 -1
vn -1 0 0
vn 0 -1 0
vn 1 0 0
vn 0 1 0
vn 0 0 1
vn 1 0 0
vn 0 -1 0
vn 0 0 1
vn 0 -1 0
vn -1 0 0
vn 0 0 1
vn 0 0 1
vn -1 0 0
vn 0 1 0
f 81//133 83//139 82//135
f 81//133 84//140 83//139
f 85//145 87//151 86//148
f 85//145 88//152 87//151
f 83//138 87//150 88//153
f 83//138 84//141 87//150
f 85//143 81//131 82//134
f 85//143 86//146 81//131
f 84//142 86//147 87//149
f 84//142 81//132 86//147
f 88//154 82//136 83//137
f 88//154 85//144 82//136
g Couche:OBJECT020
usemtl black
v -0.39 1.46 -0.62
v -0.39 1.46 -0.6
v -0.43 1.46 -0.6
v -0.43 1.46 -0.62
v -0.39 1.2 -0.6
v -0.39 1.2 -0.62
v -0.43 1.2 -0.62
v -0.43 1.2 -0.6
vn 1 0 0
vn 0 0 -1
vn 0 1 0
vn 1 0 0
vn 0 1 0
vn 0 0 1
vn 0 0 1
vn -1 0 0
vn 0 1 0
vn 0 1 0
vn -1 0 0
vn 0 0 -1
vn 1 0 0
vn 0 0 1
vn 0 -1 0
vn 1 0 0
vn 0 0 -1
vn 0 -1 0
vn 0 0 -1
vn -1 0 0
vn 0 -1 0
vn 0 -1 0
vn -1 0 0
vn 0 0 1
f 89//157 91//163 90//159
f 89//157 92//164 91//163
f 93//169 95//175 94//172
f 93//169 96//176 95//175
f 91//162 95//174 96//177
f 91//162 92//165 95//174
f 93//167 89//155 90//158
f 93//167 94//170 89//155
f 92//166 94//171 95//173
f 92//166 89//156 94//171
f 96//178 90//160 91//161
f 96//178 93//168 90//160
g Couche:OBJECT009
usemtl lighttan
v 0.53 -1.92 -0.69
v 0.53 -1.92 -1.5
v 0.51 -1.92 -1.5
v 0.51 -1.92 -0.66979
v 0.53 -0.42 -0.69
v 0.53 -0.42 -1.5
v 0.51 -0.42 -0.66979
v 0.51 -0.42 -1.5
vn 1 0 0
vn 0 -1 0
vn 0 -1 0
vn 1 0 0
vn 1 0 0
vn 0 1 0
vn 0 1 0
vn 0.7107 0 0.70349
vn 0.7107 0 0.70349
vn 0 0 -1
vn 0 0 -1
vn -1 0 0
vn -1 0 0
f 97//180 99//180 98//180
f 97//181 100//181 99//181
f 97//182 102//182 101//182
f 97//183 98//183 102//183
f 102//184 103//184 101//184
f 102//185 104//185 103//185
f 97//186 103//186 100//186
f 97//187 101//187 103//187
f 98//188 104//188 102//188
f 98//189 99//189 104//189
f 99//190 103//190 104//190
f 99//191 100//191 103//191
g Couche:OBJECT008
usemtl lighttan
v 1.23 -0.42 -1.5
v 1.23 -0.42 -0.69
v 0.53 -0.42 -0.69
v 0.53 -0.42 -1.5
v 1.23 -0.44 -0.69
v 1.23 -0.44 -1.5
v 0.53 -0.44 -1.5
v 0.53 -0.44 -0.69
vn 1 0 0
vn 0 1 0
vn 0 1 0
vn 0 -1 0
vn 0 -1 0
vn -1 0 0
vn -1 0 0
vn 1 0 0
vn 1 0 0
vn 0 0 -1
vn 0 0 -1
vn 0 0 1
vn 0 0 1
f 105//193 107//193 106//193
f 105//194 108//194 107//194
f 109//195 111//195 110//195
f 109//196 112//196 111//196
f 107//197 111//197 112//197
f 107//198 108//198 111//198
f 109//199 105//199 106//199
f 109//200 110//200 105//200
f 108//201 110//201 111//201
f 108//202 105//202 110//202
f 112//203 106//203 107//203
f 112//204 109//204 106//204
g Couche:OBJECT007
usemtl lighttan
v -1.27 -0.44 0.28
v -0.43 -0.44 0.28
v 0.51 -0.44 -0.6698
v 0.51 -0.44 -1.5
v -1.27 -0.44 -1.5
v -1.27 -0.42 -1.5
v -1.27 -0.42 0.28
v 0.51 -0.42 -1.5
v 0.51 -0.42 -0.6698
v -0.43 -0.42 0.28
vn 1 0 0
vn 0 -1 0
vn 0 -1 0
vn 0 -1 0
vn -1 0 0
vn -1 0 0
vn 0 1 0
vn 0 1 0
vn 0 1 0
vn 0 0 1
vn 0 0 1
vn 0.71077 0 0.70343
vn 0.71077 0 0.70343
vn 0 0 -1
vn 0 0 -1
vn 1 0 0
vn 1 0 0
f 113//206 115//206 114//206
f 113//207 116//207 115//207
f 113//208 117//208 116//208
f 117//209 119//209 118//209
f 117//210 113//210 119//210
f 118//211 121//211 120//211
f 118//212 122//212 121//212
f 118//213 119//213 122//213
f 113//214 122//214 119//214
f 113//215 114//215 122//215
f 114//216 121//216 122//216
f 114//217 115//217 121//217
f 117//218 120//218 116//218
f 117//219 118//219 120//219
f 115//220 120//220 121//220
f 115//221 116//221 120//221
g Couche:OBJECT006
usemtl lighttan
v -1.27 -0.42 1.28
v -1.27 -0.42 1.26
v -1.27 0.9 1.26
v -1.27 0.9 1.28
v -0.43 -0.42 1.28
v -0.43 0.9 1.28
v -0.43 0.9 1.26
v -0.43 -0.42 1.26
vn 1 0 0
vn -1 0 0
vn -1 0 0
vn 1 0 0
vn 1 0 0
vn 0 0 1
vn 0 0 1
vn 0 -1 0
vn 0 -1 0
vn 0 1 0
vn 0 1 0
vn 0 0 -1
vn 0 0 -1
f 123//223 125//223 124//223
f 123//224 126//224 125//224
f 127//225 129//225 128//225
f 127//226 130//226 129//226
f 127//227 126//227 123//227
f 127//228 128//228 126//228
f 123//229 130//229 127//229
f 123//230 124//230 130//230
f 125//231 128//231 129//231
f 125//232 126//232 128//232
f 124//233 129//233 130//233
f 124//234 125//234 129//234
g Couche:OBJECT005
usemtl lighttan
v -1.27 -0.08 1.26
v -1.27 -0.08 0.3
v -1.27 -0.06 0.3
v -1.27 -0.06 1.26
v -0.63 -0.06 1.26
v -0.63 -0.06 0.3
v -0.63 -0.08 0.3
v -0.63 -0.08 1.26
vn 1 0 0
vn -1 0 0
vn -1 0 0
vn 1 0 0
vn 1 0 0
vn 0 0 1
vn 0 0 1
vn 0 1 0
vn 0 1 0
vn 0 0 -1
vn 0 0 -1
vn 0 -1 0
vn 0 -1 0
f 131//236 133//236 132//236
f 131//237 134//237 133//237
f 135//238 137//238 136//238
f 135//239 138//239 137//239
f 138//240 134//240 131//240
f 138//241 135//241 134//241
f 133//242 135//242 136//242
f 133//243 134//243 135//243
f 132//244 136//244 137//244
f 132//245 133//245 136//245
f 131//246 137//246 138//246
f 131//247 132//247 137//247
g Couche:OBJECT004
usemtl lighttan
v -1.27 -0.42 1.26
v -0.73 -0.42 1.26
v -0.73 -0.42 0.3
v -1.27 -0.42 0.3
v -1.27 -0.08 0.3
v -1.27 -0.08 1.26
v -0.73 -0.08 1.26
v -0.73 -0.08 0.3
vn 1 0 0
vn 0 -1 0
vn 0 -1 0
vn -1 0 0
vn -1 0 0
vn 1 0 0
vn 1 0 0
vn 0 0 1
vn 0 0 1
vn 0 0 -1
vn 0 0 -1
vn 0 1 0
vn 0 1 0
f 139//249 141//249 140//249
f 139//250 142//250 141//250
f 139//251 143//251 142//251
f 139//252 144//252 143//252
f 140//253 146//253 145//253
f 140//254 141//254 146//254
f 140//255 144//255 139//255
f 140//256 145//256 144//256
f 142//257 146//257 141//257
f 142//258 143//258 146//258
f 143//259 145//259 146//259
f 143//260 144//260 145//260
g Couche:OBJECT003
usemtl lighttan
v -1.27 -1.92 1.28
v -0.43 -1.92 1.28
v -0.43 -1.92 1.26
v -1.27 -1.92 1.26
v -1.27 -0.42 1.26
v -1.27 -0.42 1.28
v -0.43 -0.42 1.28
v -0.43 -0.42 1.26
vn 1 0 0
vn 0 -1 0
vn 0 -1 0
vn -1 0 0
vn -1 0 0
vn 1 0 0
vn 1 0 0
vn 0 0 1
vn 0 0 1
vn 0 1 0
vn 0 1 0
vn 0 0 -1
vn 0 0 -1
f 147//262 149//262 148//262
f 147//263 150//263 149//263
f 147//264 151//264 150//264
f 147//265 152//265 151//265
f 148//266 154//266 153//266
f 148//267 149//267 154//267
f 148//268 152//268 147//268
f 148//269 153//269 152//269
f 151//270 153//270 154//270
f 151//271 152//271 153//271
f 150//272 154//272 149//272
f 150//273 151//273 154//273
g Couche:OBJECT002
usemtl lighttan
v -1.28 -1.92 1.24
v -0.44 -1.92 1.24
v -0.44 -1.92 0.28
v -1.28 -1.92 0.28
v -1.28 -1.9 0.28
v -1.28 -1.9 1.24
v -0.44 -1.9 1.24
v -0.44 -1.9 0.28
vn 1 0 0
vn 0 -1 0
vn 0 -1 0
vn -1 0 0
vn -1 0 0
vn 1 0 0
vn 1 0 0
vn 0 0 1
vn 0 0 1
vn 0 0 -1
vn 0 0 -1
vn 0 1 0
vn 0 1 0
f 155//275 157//275 156//275
f 155//276 158//276 157//276
f 158//277 160//277 159//277
f 158//278 155//278 160//278
f 156//279 162//279 161//279
f 156//280 157//280 162//280
f 156//281 160//281 155//281
f 156//282 161//282 160//282
f 158//283 162//283 157//283
f 158//284 159//284 162//284
f 159//285 161//285 162//285
f 159//286 160//286 161//286
g Couche:OBJECT001
usemtl lighttan
v -1.27 -1.92 0.3
v -0.43 -1.92 0.3
v -0.43 -1.92 0.28
v -1.27 -1.92 0.28
v -1.27 -0.42 0.28
v -1.27 -0.42 0.3
v -0.43 -0.42 0.3
v -0.43 -0.42 0.28
vn 1 0 0
vn 0 -1 0
vn 0 -1 0
vn -1 0 0
vn -1 0 0
vn 1 0 0
vn 1 0 0
vn 0 1 0
vn 0 1 0
vn 0 0 -1
vn 0 0 -1
vn 0 0 1
vn 0 0 1
f 163//288 165//288 164//288
f 163//289 166//289 165//289
f 166//290 168//290 167//290
f 166//291 163//291 168//291
f 164//292 170//292 169//292
f 164//293 165//293 170//293
f 167//294 169//294 170//294
f 167//295 168//295 169//295
f 166//296 170//296 165//296
f 166//297 167//297 170//297
f 164//298 168//298 163//298
f 164//299 169//299 168//299
g Couche:OBJECT000
usemtl lighttan
v -1.27 -0.42 0.3
v -1.27 -0.42 1.26
v -1.27 -0.78 1.26
v -1.27 -0.78 0.3
v -0.43 -0.42 1.26
v -0.43 -0.42 0.3
v -0.43 -0.78 0.3
v -0.43 -0.78 1.26
vn 1 0 0
vn -1 0 0
vn -1 0 0
vn 1 0 0
vn 1 0 0
vn 0 1 0
vn 0 1 0
vn 0 0 1
vn 0 0 1
vn 0 0 -1
vn 0 0 -1
vn 0 -1 0
vn 0 -1 0
f 171//301 173//301 172//301
f 171//302 174//302 173//302
f 175//303 177//303 176//303
f 175//304 178//304 177//304
f 171//305 175//305 176//305
f 171//306 172//306 175//306
f 178//307 172//307 173//307
f 178//308 175//308 172//308
f 174//309 176//309 177//309
f 174//310 171//310 176//310
f 173//311 177//311 178//311
f 173//312 174//312 177//312
g Couche:OBJECT019
usemtl black
v -0.39 1.46 0.38
v -0.39 1.46 0.4
v -0.43 1.46 0.4
v -0.43 1.46 0.38
v -0.39 1.2 0.4
v -0.39 1.2 0.38
v -0.43 1.2 0.38
v -0.43 1.2 0.4
vn 1 0 0
vn 0 0 -1
vn 0 1 0
vn 1 0 0
vn 0 1 0
vn 0 0 1
vn 0 0 1
vn -1 0 0
vn 0 1 0
vn 0 1 0
vn -1 0 0
vn 0 0 -1
vn 1 0 0
vn 0 0 1
vn 0 -1 0
vn 1 0 0
vn 0 0 -1
vn 0 -1 0
vn 0 0 -1
vn -1 0 0
vn 0 -1 0
vn 0 -1 0
vn -1 0 0
vn 0 0 1
f 179//315 181//321 180//317
f 179//315 182//322 181//321
f 183//327 185//333 184//330
f 183//327 186//334 185//333
f 181//320 185//332 186//335
f 181//320 182//323 185//332
f 183//325 179//313 180//316
f 183//325 184//328 179//313
f 182//324 184//329 185//331
f 182//324 179//314 184//329
f 186//336 180//318 181//319
f 186//336 183//326 180//318
