#Produced by Art of Illusion 2.5, Tue Oct 09 15:36:16 EDT 2007
g Cube_2
v -0.05 0.93 0
v -0.05 0.93 0
v -0.05 0.93 0
v -0.05 0.93 0
v -0.05 0.99 -0
v -0.05 0.99 -0
v -0.05 0.99 -0
v -0.05 0.99 -0
v -0.05 0.96 0
v -0.05 0.96 0
v -0.05 0.96 0
v -0.05 0.96 0
v -0.05 0.93 0
v -0.05 0.99 -0
vn 1 0 0
vn 0 0 -0
vn 0 0 0
vn 0 0 0
vn 0 0 0
vn 0 0 0
vn 0 0 0
vn 0 0 -0
vn 0 0 0
vn 0 0 0
vn 0 0 0
vn 0 0 0
vn 0 0 0
vn 0 0 0
vn 0 0 0
vn 0 0 0
vn 0 0 0
vn 0 0 0
vn 0 0 0
vn 0 0 -0
vn 0 0 0
vn 0 0 -0
vn 0 0 0
vn 0 0 -0
vn 0 0 0
f 2//2 1//2 13//2
f 3//3 2//3 13//3
f 4//4 3//4 13//4
f 1//5 4//5 13//5
f 2//6 3//6 10//6
f 3//7 7//7 10//7
f 7//8 6//8 10//8
f 6//9 2//9 10//9
f 1//10 2//10 9//10
f 2//11 6//11 9//11
f 6//12 5//12 9//12
f 5//13 1//13 9//13
f 4//14 1//14 12//14
f 1//15 5//15 12//15
f 5//16 8//16 12//16
f 8//17 4//17 12//17
f 5//18 6//18 14//18
f 6//19 7//19 14//19
f 7//20 8//20 14//20
f 8//21 5//21 14//21
f 3//22 4//22 11//22
f 4//23 8//23 11//23
f 8//24 7//24 11//24
f 7//25 3//25 11//25
g Cube_1
v -2.42 0.74 0.165
v 1.27 0.74 0.165
v 1.27 0.74 -0.165
v -2.42 0.74 -0.165
v -2.42 0.88 0.165
v 1.27 0.88 0.165
v 1.27 0.88 -0.165
v -2.42 0.88 -0.165
v -0.575 0.81 0.165
v 1.27 0.81 -0
v -0.575 0.81 -0.165
v -2.42 0.81 -0
v -0.575 0.74 -0
v -0.575 0.88 -0
vn 1 0 0
vn 0 -1 0
vn 0 -1 0
vn 0 -1 0
vn 0 -1 0
vn 1 0 0
vn 1 0 0
vn 1 0 0
vn 1 0 0
vn 0 0 1
vn 0 0 1
vn 0 0 1
vn 0 0 1
vn -1 0 0
vn -1 0 0
vn -1 0 0
vn -1 0 0
vn 0 1 0
vn 0 1 0
vn 0 1 0
vn 0 1 0
vn 0 0 -1
vn 0 0 -1
vn 0 0 -1
vn 0 0 -1
f 16//27 15//27 27//27
f 17//28 16//28 27//28
f 18//29 17//29 27//29
f 15//30 18//30 27//30
f 16//31 17//31 24//31
f 17//32 21//32 24//32
f 21//33 20//33 24//33
f 20//34 16//34 24//34
f 15//35 16//35 23//35
f 16//36 20//36 23//36
f 20//37 19//37 23//37
f 19//38 15//38 23//38
f 18//39 15//39 26//39
f 15//40 19//40 26//40
f 19//41 22//41 26//41
f 22//42 18//42 26//42
f 19//43 20//43 28//43
f 20//44 21//44 28//44
f 21//45 22//45 28//45
f 22//46 19//46 28//46
f 17//47 18//47 25//47
f 18//48 22//48 25//48
f 22//49 21//49 25//49
f 21//50 17//50 25//50
g Cube_3
v 1.02 -0.61 0.045
v 1.11 -0.61 0.045
v 1.11 -0.61 -0.045
v 1.02 -0.61 -0.045
v 1.02 0.6 0.045
v 1.11 0.6 0.045
v 1.11 0.6 -0.045
v 1.02 0.6 -0.045
v 1.065 -0.005 0.045
v 1.11 -0.005 0
v 1.065 -0.005 -0.045
v 1.02 -0.005 0
v 1.065 -0.61 0
v 1.065 0.6 0
vn 1 0 0
vn 0 -1 0
vn 0 -1 0
vn 0 -1 0
vn 0 -1 0
vn 1 0 0
vn 1 0 0
vn 1 0 0
vn 1 0 0
vn 0 0 1
vn 0 0 1
vn 0 0 1
vn 0 0 1
vn -1 0 0
vn -1 0 0
vn -1 0 0
vn -1 0 0
vn 0 1 0
vn 0 1 0
vn 0 1 0
vn 0 1 0
vn 0 0 -1
vn 0 0 -1
vn 0 0 -1
vn 0 0 -1
f 30//52 29//52 41//52
f 31//53 30//53 41//53
f 32//54 31//54 41//54
f 29//55 32//55 41//55
f 30//56 31//56 38//56
f 31//57 35//57 38//57
f 35//58 34//58 38//58
f 34//59 30//59 38//59
f 29//60 30//60 37//60
f 30//61 34//61 37//61
f 34//62 33//62 37//62
f 33//63 29//63 37//63
f 32//64 29//64 40//64
f 29//65 33//65 40//65
f 33//66 36//66 40//66
f 36//67 32//67 40//67
f 33//68 34//68 42//68
f 34//69 35//69 42//69
f 35//70 36//70 42//70
f 36//71 33//71 42//71
f 31//72 32//72 39//72
f 32//73 36//73 39//73
f 36//74 35//74 39//74
f 35//75 31//75 39//75
g Cube_3_1
v 0.75 -0.62 0.045
v 0.84 -0.62 0.045
v 0.84 -0.62 -0.045
v 0.75 -0.62 -0.045
v 0.75 0.59 0.045
v 0.84 0.59 0.045
v 0.84 0.59 -0.045
v 0.75 0.59 -0.045
v 0.795 -0.015 0.045
v 0.84 -0.015 0
v 0.795 -0.015 -0.045
v 0.75 -0.015 0
v 0.795 -0.62 0
v 0.795 0.59 0
vn 1 0 0
vn 0 -1 0
vn 0 -1 0
vn 0 -1 0
vn 0 -1 0
vn 1 0 0
vn 1 0 0
vn 1 0 0
vn 1 0 0
vn 0 0 1
vn 0 0 1
vn 0 0 1
vn 0 0 1
vn -1 0 0
vn -1 0 0
vn -1 0 0
vn -1 0 0
vn 0 1 0
vn 0 1 0
vn 0 1 0
vn 0 1 0
vn 0 0 -1
vn 0 0 -1
vn 0 0 -1
vn 0 0 -1
f 44//77 43//77 55//77
f 45//78 44//78 55//78
f 46//79 45//79 55//79
f 43//80 46//80 55//80
f 44//81 45//81 52//81
f 45//82 49//82 52//82
f 49//83 48//83 52//83
f 48//84 44//84 52//84
f 43//85 44//85 51//85
f 44//86 48//86 51//86
f 48//87 47//87 51//87
f 47//88 43//88 51//88
f 46//89 43//89 54//89
f 43//90 47//90 54//90
f 47//91 50//91 54//91
f 50//92 46//92 54//92
f 47//93 48//93 56//93
f 48//94 49//94 56//94
f 49//95 50//95 56//95
f 50//96 47//96 56//96
f 45//97 46//97 53//97
f 46//98 50//98 53//98
f 50//99 49//99 53//99
f 49//100 45//100 53//100
g Cube_3_2
v 0.49 -0.62 0.045
v 0.58 -0.62 0.045
v 0.58 -0.62 -0.045
v 0.49 -0.62 -0.045
v 0.49 0.59 0.045
v 0.58 0.59 0.045
v 0.58 0.59 -0.045
v 0.49 0.59 -0.045
v 0.535 -0.015 0.045
v 0.58 -0.015 0
v 0.535 -0.015 -0.045
v 0.49 -0.015 0
v 0.535 -0.62 0
v 0.535 0.59 0
vn 1 0 0
vn 0 -1 0
vn 0 -1 0
vn 0 -1 0
vn 0 -1 0
vn 1 0 0
vn 1 0 0
vn 1 0 0
vn 1 0 0
vn 0 0 1
vn 0 0 1
vn 0 0 1
vn 0 0 1
vn -1 0 0
vn -1 0 0
vn -1 0 0
vn -1 0 0
vn 0 1 0
vn 0 1 0
vn 0 1 0
vn 0 1 0
vn 0 0 -1
vn 0 0 -1
vn 0 0 -1
vn 0 0 -1
f 58//102 57//102 69//102
f 59//103 58//103 69//103
f 60//104 59//104 69//104
f 57//105 60//105 69//105
f 58//106 59//106 66//106
f 59//107 63//107 66//107
f 63//108 62//108 66//108
f 62//109 58//109 66//109
f 57//110 58//110 65//110
f 58//111 62//111 65//111
f 62//112 61//112 65//112
f 61//113 57//113 65//113
f 60//114 57//114 68//114
f 57//115 61//115 68//115
f 61//116 64//116 68//116
f 64//117 60//117 68//117
f 61//118 62//118 70//118
f 62//119 63//119 70//119
f 63//120 64//120 70//120
f 64//121 61//121 70//121
f 59//122 60//122 67//122
f 60//123 64//123 67//123
f 64//124 63//124 67//124
f 63//125 59//125 67//125
g Cube_3_3
v 0.2 -0.62 0.055
v 0.29 -0.62 0.055
v 0.29 -0.62 -0.035
v 0.2 -0.62 -0.035
v 0.2 0.59 0.055
v 0.29 0.59 0.055
v 0.29 0.59 -0.035
v 0.2 0.59 -0.035
v 0.245 -0.015 0.055
v 0.29 -0.015 0.01
v 0.245 -0.015 -0.035
v 0.2 -0.015 0.01
v 0.245 -0.62 0.01
v 0.245 0.59 0.01
vn 1 0 0
vn 0 -1 0
vn 0 -1 0
vn 0 -1 0
vn 0 -1 0
vn 1 0 0
vn 1 0 0
vn 1 0 0
vn 1 0 0
vn 0 0 1
vn 0 0 1
vn 0 0 1
vn 0 0 1
vn -1 0 0
vn -1 0 0
vn -1 0 0
vn -1 0 0
vn 0 1 0
vn 0 1 0
vn 0 1 0
vn 0 1 0
vn 0 0 -1
vn 0 0 -1
vn 0 0 -1
vn 0 0 -1
f 72//127 71//127 83//127
f 73//128 72//128 83//128
f 74//129 73//129 83//129
f 71//130 74//130 83//130
f 72//131 73//131 80//131
f 73//132 77//132 80//132
f 77//133 76//133 80//133
f 76//134 72//134 80//134
f 71//135 72//135 79//135
f 72//136 76//136 79//136
f 76//137 75//137 79//137
f 75//138 71//138 79//138
f 74//139 71//139 82//139
f 71//140 75//140 82//140
f 75//141 78//141 82//141
f 78//142 74//142 82//142
f 75//143 76//143 84//143
f 76//144 77//144 84//144
f 77//145 78//145 84//145
f 78//146 75//146 84//146
f 73//147 74//147 81//147
f 74//148 78//148 81//148
f 78//149 77//149 81//149
f 77//150 73//150 81//150
g Cube_3_4
v -0.08 -0.62 0.055
v 0.01 -0.62 0.055
v 0.01 -0.62 -0.035
v -0.08 -0.62 -0.035
v -0.08 0.59 0.055
v 0.01 0.59 0.055
v 0.01 0.59 -0.035
v -0.08 0.59 -0.035
v -0.035 -0.015 0.055
v 0.01 -0.015 0.01
v -0.035 -0.015 -0.035
v -0.08 -0.015 0.01
v -0.035 -0.62 0.01
v -0.035 0.59 0.01
vn 1 0 0
vn 0 -1 0
vn 0 -1 0
vn 0 -1 0
vn 0 -1 0
vn 1 0 0
vn 1 0 0
vn 1 0 0
vn 1 0 0
vn 0 0 1
vn 0 0 1
vn 0 0 1
vn 0 0 1
vn -1 0 0
vn -1 0 0
vn -1 0 0
vn -1 0 0
vn 0 1 0
vn 0 1 0
vn 0 1 0
vn 0 1 0
vn 0 0 -1
vn 0 0 -1
vn 0 0 -1
vn 0 0 -1
f 86//152 85//152 97//152
f 87//153 86//153 97//153
f 88//154 87//154 97//154
f 85//155 88//155 97//155
f 86//156 87//156 94//156
f 87//157 91//157 94//157
f 91//158 90//158 94//158
f 90//159 86//159 94//159
f 85//160 86//160 93//160
f 86//161 90//161 93//161
f 90//162 89//162 93//162
f 89//163 85//163 93//163
f 88//164 85//164 96//164
f 85//165 89//165 96//165
f 89//166 92//166 96//166
f 92//167 88//167 96//167
f 89//168 90//168 98//168
f 90//169 91//169 98//169
f 91//170 92//170 98//170
f 92//171 89//171 98//171
f 87//172 88//172 95//172
f 88//173 92//173 95//173
f 92//174 91//174 95//174
f 91//175 87//175 95//175
g Cube_3_5
v -0.37 -0.61 0.055
v -0.28 -0.61 0.055
v -0.28 -0.61 -0.035
v -0.37 -0.61 -0.035
v -0.37 0.6 0.055
v -0.28 0.6 0.055
v -0.28 0.6 -0.035
v -0.37 0.6 -0.035
v -0.325 -0.005 0.055
v -0.28 -0.005 0.01
v -0.325 -0.005 -0.035
v -0.37 -0.005 0.01
v -0.325 -0.61 0.01
v -0.325 0.6 0.01
vn 1 0 0
vn 0 -1 0
vn 0 -1 0
vn 0 -1 0
vn 0 -1 0
vn 1 0 0
vn 1 0 0
vn 1 0 0
vn 1 0 0
vn 0 0 1
vn 0 0 1
vn 0 0 1
vn 0 0 1
vn -1 0 0
vn -1 0 0
vn -1 0 0
vn -1 0 0
vn 0 1 0
vn 0 1 0
vn 0 1 0
vn 0 1 0
vn 0 0 -1
vn 0 0 -1
vn 0 0 -1
vn 0 0 -1
f 100//177 99//177 111//177
f 101//178 100//178 111//178
f 102//179 101//179 111//179
f 99//180 102//180 111//180
f 100//181 101//181 108//181
f 101//182 105//182 108//182
f 105//183 104//183 108//183
f 104//184 100//184 108//184
f 99//185 100//185 107//185
f 100//186 104//186 107//186
f 104//187 103//187 107//187
f 103//188 99//188 107//188
f 102//189 99//189 110//189
f 99//190 103//190 110//190
f 103//191 106//191 110//191
f 106//192 102//192 110//192
f 103//193 104//193 112//193
f 104//194 105//194 112//194
f 105//195 106//195 112//195
f 106//196 103//196 112//196
f 101//197 102//197 109//197
f 102//198 106//198 109//198
f 106//199 105//199 109//199
f 105//200 101//200 109//200
g Cube_3_6
v -0.64 -0.62 0.055
v -0.55 -0.62 0.055
v -0.55 -0.62 -0.035
v -0.64 -0.62 -0.035
v -0.64 0.59 0.055
v -0.55 0.59 0.055
v -0.55 0.59 -0.035
v -0.64 0.59 -0.035
v -0.595 -0.015 0.055
v -0.55 -0.015 0.01
v -0.595 -0.015 -0.035
v -0.64 -0.015 0.01
v -0.595 -0.62 0.01
v -0.595 0.59 0.01
vn 1 0 0
vn 0 -1 0
vn 0 -1 0
vn 0 -1 0
vn 0 -1 0
vn 1 0 0
vn 1 0 0
vn 1 0 0
vn 1 0 0
vn 0 0 1
vn 0 0 1
vn 0 0 1
vn 0 0 1
vn -1 0 0
vn -1 0 0
vn -1 0 0
vn -1 0 0
vn 0 1 0
vn 0 1 0
vn 0 1 0
vn 0 1 0
vn 0 0 -1
vn 0 0 -1
vn 0 0 -1
vn 0 0 -1
f 114//202 113//202 125//202
f 115//203 114//203 125//203
f 116//204 115//204 125//204
f 113//205 116//205 125//205
f 114//206 115//206 122//206
f 115//207 119//207 122//207
f 119//208 118//208 122//208
f 118//209 114//209 122//209
f 113//210 114//210 121//210
f 114//211 118//211 121//211
f 118//212 117//212 121//212
f 117//213 113//213 121//213
f 116//214 113//214 124//214
f 113//215 117//215 124//215
f 117//216 120//216 124//216
f 120//217 116//217 124//217
f 117//218 118//218 126//218
f 118//219 119//219 126//219
f 119//220 120//220 126//220
f 120//221 117//221 126//221
f 115//222 116//222 123//222
f 116//223 120//223 123//223
f 120//224 119//224 123//224
f 119//225 115//225 123//225
g Cube_3_7
v -0.91 -0.62 0.055
v -0.82 -0.62 0.055
v -0.82 -0.62 -0.035
v -0.91 -0.62 -0.035
v -0.91 0.59 0.055
v -0.82 0.59 0.055
v -0.82 0.59 -0.035
v -0.91 0.59 -0.035
v -0.865 -0.015 0.055
v -0.82 -0.015 0.01
v -0.865 -0.015 -0.035
v -0.91 -0.015 0.01
v -0.865 -0.62 0.01
v -0.865 0.59 0.01
vn 1 0 0
vn 0 -1 0
vn 0 -1 0
vn 0 -1 0
vn 0 -1 0
vn 1 0 0
vn 1 0 0
vn 1 0 0
vn 1 0 0
vn 0 0 1
vn 0 0 1
vn 0 0 1
vn 0 0 1
vn -1 0 0
vn -1 0 0
vn -1 0 0
vn -1 0 0
vn 0 1 0
vn 0 1 0
vn 0 1 0
vn 0 1 0
vn 0 0 -1
vn 0 0 -1
vn 0 0 -1
vn 0 0 -1
f 128//227 127//227 139//227
f 129//228 128//228 139//228
f 130//229 129//229 139//229
f 127//230 130//230 139//230
f 128//231 129//231 136//231
f 129//232 133//232 136//232
f 133//233 132//233 136//233
f 132//234 128//234 136//234
f 127//235 128//235 135//235
f 128//236 132//236 135//236
f 132//237 131//237 135//237
f 131//238 127//238 135//238
f 130//239 127//239 138//239
f 127//240 131//240 138//240
f 131//241 134//241 138//241
f 134//242 130//242 138//242
f 131//243 132//243 140//243
f 132//244 133//244 140//244
f 133//245 134//245 140//245
f 134//246 131//246 140//246
f 129//247 130//247 137//247
f 130//248 134//248 137//248
f 134//249 133//249 137//249
f 133//250 129//250 137//250
g Cube_3_8
v -1.17 -0.62 0.055
v -1.08 -0.62 0.055
v -1.08 -0.62 -0.035
v -1.17 -0.62 -0.035
v -1.17 0.59 0.055
v -1.08 0.59 0.055
v -1.08 0.59 -0.035
v -1.17 0.59 -0.035
v -1.125 -0.015 0.055
v -1.08 -0.015 0.01
v -1.125 -0.015 -0.035
v -1.17 -0.015 0.01
v -1.125 -0.62 0.01
v -1.125 0.59 0.01
vn 1 0 0
vn 0 -1 0
vn 0 -1 0
vn 0 -1 0
vn 0 -1 0
vn 1 0 0
vn 1 0 0
vn 1 0 0
vn 1 0 0
vn 0 0 1
vn 0 0 1
vn 0 0 1
vn 0 0 1
vn -1 0 0
vn -1 0 0
vn -1 0 0
vn -1 0 0
vn 0 1 0
vn 0 1 0
vn 0 1 0
vn 0 1 0
vn 0 0 -1
vn 0 0 -1
vn 0 0 -1
vn 0 0 -1
f 142//252 141//252 153//252
f 143//253 142//253 153//253
f 144//254 143//254 153//254
f 141//255 144//255 153//255
f 142//256 143//256 150//256
f 143//257 147//257 150//257
f 147//258 146//258 150//258
f 146//259 142//259 150//259
f 141//260 142//260 149//260
f 142//261 146//261 149//261
f 146//262 145//262 149//262
f 145//263 141//263 149//263
f 144//264 141//264 152//264
f 141//265 145//265 152//265
f 145//266 148//266 152//266
f 148//267 144//267 152//267
f 145//268 146//268 154//268
f 146//269 147//269 154//269
f 147//270 148//270 154//270
f 148//271 145//271 154//271
f 143//272 144//272 151//272
f 144//273 148//273 151//273
f 148//274 147//274 151//274
f 147//275 143//275 151//275
g Cube_3_9
v -1.44 -0.63 0.045
v -1.35 -0.63 0.045
v -1.35 -0.63 -0.045
v -1.44 -0.63 -0.045
v -1.44 0.58 0.045
v -1.35 0.58 0.045
v -1.35 0.58 -0.045
v -1.44 0.58 -0.045
v -1.395 -0.025 0.045
v -1.35 -0.025 0
v -1.395 -0.025 -0.045
v -1.44 -0.025 0
v -1.395 -0.63 0
v -1.395 0.58 0
vn 1 0 0
vn 0 -1 0
vn 0 -1 0
vn 0 -1 0
vn 0 -1 0
vn 1 0 0
vn 1 0 0
vn 1 0 0
vn 1 0 0
vn 0 0 1
vn 0 0 1
vn 0 0 1
vn 0 0 1
vn -1 0 0
vn -1 0 0
vn -1 0 0
vn -1 0 0
vn 0 1 0
vn 0 1 0
vn 0 1 0
vn 0 1 0
vn 0 0 -1
vn 0 0 -1
vn 0 0 -1
vn 0 0 -1
f 156//277 155//277 167//277
f 157//278 156//278 167//278
f 158//279 157//279 167//279
f 155//280 158//280 167//280
f 156//281 157//281 164//281
f 157//282 161//282 164//282
f 161//283 160//283 164//283
f 160//284 156//284 164//284
f 155//285 156//285 163//285
f 156//286 160//286 163//286
f 160//287 159//287 163//287
f 159//288 155//288 163//288
f 158//289 155//289 166//289
f 155//290 159//290 166//290
f 159//291 162//291 166//291
f 162//292 158//292 166//292
f 159//293 160//293 168//293
f 160//294 161//294 168//294
f 161//295 162//295 168//295
f 162//296 159//296 168//296
f 157//297 158//297 165//297
f 158//298 162//298 165//298
f 162//299 161//299 165//299
f 161//300 157//300 165//300
g Cube_3_10
v -1.71 -0.62 0.045
v -1.62 -0.62 0.045
v -1.62 -0.62 -0.045
v -1.71 -0.62 -0.045
v -1.71 0.59 0.045
v -1.62 0.59 0.045
v -1.62 0.59 -0.045
v -1.71 0.59 -0.045
v -1.665 -0.015 0.045
v -1.62 -0.015 0
v -1.665 -0.015 -0.045
v -1.71 -0.015 0
v -1.665 -0.62 0
v -1.665 0.59 0
vn 1 0 0
vn 0 -1 0
vn 0 -1 0
vn 0 -1 0
vn 0 -1 0
vn 1 0 0
vn 1 0 0
vn 1 0 0
vn 1 0 0
vn 0 0 1
vn 0 0 1
vn 0 0 1
vn 0 0 1
vn -1 0 0
vn -1 0 0
vn -1 0 0
vn -1 0 0
vn 0 1 0
vn 0 1 0
vn 0 1 0
vn 0 1 0
vn 0 0 -1
vn 0 0 -1
vn 0 0 -1
vn 0 0 -1
f 170//302 169//302 181//302
f 171//303 170//303 181//303
f 172//304 171//304 181//304
f 169//305 172//305 181//305
f 170//306 171//306 178//306
f 171//307 175//307 178//307
f 175//308 174//308 178//308
f 174//309 170//309 178//309
f 169//310 170//310 177//310
f 170//311 174//311 177//311
f 174//312 173//312 177//312
f 173//313 169//313 177//313
f 172//314 169//314 180//314
f 169//315 173//315 180//315
f 173//316 176//316 180//316
f 176//317 172//317 180//317
f 173//318 174//318 182//318
f 174//319 175//319 182//319
f 175//320 176//320 182//320
f 176//321 173//321 182//321
f 171//322 172//322 179//322
f 172//323 176//323 179//323
f 176//324 175//324 179//324
f 175//325 171//325 179//325
g Cube_3_11
v -1.97 -0.62 0.045
v -1.88 -0.62 0.045
v -1.88 -0.62 -0.045
v -1.97 -0.62 -0.045
v -1.97 0.59 0.045
v -1.88 0.59 0.045
v -1.88 0.59 -0.045
v -1.97 0.59 -0.045
v -1.925 -0.015 0.045
v -1.88 -0.015 0
v -1.925 -0.015 -0.045
v -1.97 -0.015 0
v -1.925 -0.62 0
v -1.925 0.59 0
vn 1 0 0
vn 0 -1 0
vn 0 -1 0
vn 0 -1 0
vn 0 -1 0
vn 1 0 0
vn 1 0 0
vn 1 0 0
vn 1 0 0
vn 0 0 1
vn 0 0 1
vn 0 0 1
vn 0 0 1
vn -1 0 0
vn -1 0 0
vn -1 0 0
vn -1 0 0
vn 0 1 0
vn 0 1 0
vn 0 1 0
vn 0 1 0
vn 0 0 -1
vn 0 0 -1
vn 0 0 -1
vn 0 0 -1
f 184//327 183//327 195//327
f 185//328 184//328 195//328
f 186//329 185//329 195//329
f 183//330 186//330 195//330
f 184//331 185//331 192//331
f 185//332 189//332 192//332
f 189//333 188//333 192//333
f 188//334 184//334 192//334
f 183//335 184//335 191//335
f 184//336 188//336 191//336
f 188//337 187//337 191//337
f 187//338 183//338 191//338
f 186//339 183//339 194//339
f 183//340 187//340 194//340
f 187//341 190//341 194//341
f 190//342 186//342 194//342
f 187//343 188//343 196//343
f 188//344 189//344 196//344
f 189//345 190//345 196//345
f 190//346 187//346 196//346
f 185//347 186//347 193//347
f 186//348 190//348 193//348
f 190//349 189//349 193//349
f 189//350 185//350 193//350
g Cube_3_12
v -2.22 -0.62 0.045
v -2.13 -0.62 0.045
v -2.13 -0.62 -0.045
v -2.22 -0.62 -0.045
v -2.22 0.59 0.045
v -2.13 0.59 0.045
v -2.13 0.59 -0.045
v -2.22 0.59 -0.045
v -2.175 -0.015 0.045
v -2.13 -0.015 0
v -2.175 -0.015 -0.045
v -2.22 -0.015 0
v -2.175 -0.62 0
v -2.175 0.59 0
vn 1 0 0
vn 0 -1 0
vn 0 -1 0
vn 0 -1 0
vn 0 -1 0
vn 1 0 0
vn 1 0 0
vn 1 0 0
vn 1 0 0
vn 0 0 1
vn 0 0 1
vn 0 0 1
vn 0 0 1
vn -1 0 0
vn -1 0 0
vn -1 0 0
vn -1 0 0
vn 0 1 0
vn 0 1 0
vn 0 1 0
vn 0 1 0
vn 0 0 -1
vn 0 0 -1
vn 0 0 -1
vn 0 0 -1
f 198//352 197//352 209//352
f 199//353 198//353 209//353
f 200//354 199//354 209//354
f 197//355 200//355 209//355
f 198//356 199//356 206//356
f 199//357 203//357 206//357
f 203//358 202//358 206//358
f 202//359 198//359 206//359
f 197//360 198//360 205//360
f 198//361 202//361 205//361
f 202//362 201//362 205//362
f 201//363 197//363 205//363
f 200//364 197//364 208//364
f 197//365 201//365 208//365
f 201//366 204//366 208//366
f 204//367 200//367 208//367
f 201//368 202//368 210//368
f 202//369 203//369 210//369
f 203//370 204//370 210//370
f 204//371 201//371 210//371
f 199//372 200//372 207//372
f 200//373 204//373 207//373
f 204//374 203//374 207//374
f 203//375 199//375 207//375
g Cube_1_1
v -2.33 -0.82 0.125
v 1.19 -0.82 0.125
v 1.19 -0.82 -0.125
v -2.33 -0.82 -0.125
v -2.33 -0.57 0.125
v 1.19 -0.57 0.125
v 1.19 -0.57 -0.125
v -2.33 -0.57 -0.125
v -0.57 -0.695 0.125
v 1.19 -0.695 0
v -0.57 -0.695 -0.125
v -2.33 -0.695 0
v -0.57 -0.82 0
v -0.57 -0.57 0
vn 1 0 0
vn 0 -1 0
vn 0 -1 0
vn 0 -1 0
vn 0 -1 0
vn 1 0 0
vn 1 0 0
vn 1 0 0
vn 1 0 0
vn 0 0 1
vn 0 0 1
vn 0 0 1
vn 0 0 1
vn -1 0 0
vn -1 0 0
vn -1 0 0
vn -1 0 0
vn 0 1 0
vn 0 1 0
vn 0 1 0
vn 0 1 0
vn 0 0 -1
vn 0 0 -1
vn 0 0 -1
vn 0 0 -1
f 212//377 211//377 223//377
f 213//378 212//378 223//378
f 214//379 213//379 223//379
f 211//380 214//380 223//380
f 212//381 213//381 220//381
f 213//382 217//382 220//382
f 217//383 216//383 220//383
f 216//384 212//384 220//384
f 211//385 212//385 219//385
f 212//386 216//386 219//386
f 216//387 215//387 219//387
f 215//388 211//388 219//388
f 214//389 211//389 222//389
f 211//390 215//390 222//390
f 215//391 218//391 222//391
f 218//392 214//392 222//392
f 215//393 216//393 224//393
f 216//394 217//394 224//394
f 217//395 218//395 224//395
f 218//396 215//396 224//396
f 213//397 214//397 221//397
f 214//398 218//398 221//398
f 218//399 217//399 221//399
f 217//400 213//400 221//400
g Cube_1_2
v -2.31 0.57 0.125
v 1.19 0.57 0.125
v 1.19 0.57 -0.125
v -2.31 0.57 -0.125
v -2.31 0.8 0.125
v 1.19 0.8 0.125
v 1.19 0.8 -0.125
v -2.31 0.8 -0.125
v -0.56 0.685 0.125
v 1.19 0.685 0
v -0.56 0.685 -0.125
v -2.31 0.685 0
v -0.56 0.57 0
v -0.56 0.8 0
vn 1 0 0
vn 0 -1 0
vn 0 -1 0
vn 0 -1 0
vn 0 -1 0
vn 1 0 0
vn 1 0 0
vn 1 0 0
vn 1 0 0
vn 0 0 1
vn 0 0 1
vn 0 0 1
vn 0 0 1
vn -1 0 0
vn -1 0 0
vn -1 0 0
vn -1 0 0
vn 0 1 0
vn 0 1 0
vn 0 1 0
vn 0 1 0
vn 0 0 -1
vn 0 0 -1
vn 0 0 -1
vn 0 0 -1
f 226//402 225//402 237//402
f 227//403 226//403 237//403
f 228//404 227//404 237//404
f 225//405 228//405 237//405
f 226//406 227//406 234//406
f 227//407 231//407 234//407
f 231//408 230//408 234//408
f 230//409 226//409 234//409
f 225//410 226//410 233//410
f 226//411 230//411 233//411
f 230//412 229//412 233//412
f 229//413 225//413 233//413
f 228//414 225//414 236//414
f 225//415 229//415 236//415
f 229//416 232//416 236//416
f 232//417 228//417 236//417
f 229//418 230//418 238//418
f 230//419 231//419 238//419
f 231//420 232//420 238//420
f 232//421 229//421 238//421
f 227//422 228//422 235//422
f 228//423 232//423 235//423
f 232//424 231//424 235//424
f 231//425 227//425 235//425
