#Produced by Art of Illusion 2.4.1, Sun Jun 24 10:35:56 CEST 2007
#
# Copyright (c) 2006-2007 Emmanuel PUYBARET / eTeks <info@eteks.com>. All Rights Reserved.
#
# This program is free software; you can redistribute it and/or modify it under
# the terms of the GNU General Public License as published by the Free Software
# Foundation, and available at http://www.gnu.org/copyleft/gpl.txt
g Montant
usemtl white
v -0.4575 -1.02 0.0195
v 0.4575 -1.02 0.0195
v 0.4575 -1.02 -0.0755
v -0.4575 -1.02 -0.0755
v -0.4575 1.065 0.0195
v 0.4575 1.065 0.0195
v 0.4575 1.065 -0.0755
v -0.4575 1.065 -0.0755
v 0.4575 0.0225 -0.028
v -0.4575 0.0225 -0.028
v 0 1.065 -0.028
v 0.4135 -1.02 0.01493
v 0.4135 -1.02 0.0195
v 0.4135 -1.02 -0.02
v -0.4025 -1.02 -0.06979
v -0.4025 -1.02 -0.0755
v -0.4135 -1.02 0.01493
v -0.4135 -1.02 -0.02
v 0.4135 -0.99449 0.0195
v 0.4135 -0.91974 0.0195
v 0.4135 0.96474 0.0195
v 0.4135 1.021 0.0195
v 0.4135 0.99549 0.0195
v -0.4135 0.96474 0.0195
v -0.4135 -0.91974 0.0195
v 0.29785 -1.02 -0.0755
v -0.29785 -1.02 -0.0755
v -0.4025 0.7461 -0.0755
v -0.4025 -0.7561 -0.0755
v 0.29785 1.01 -0.0755
v -0.29785 1.01 -0.0755
v 0.4025 -0.7561 -0.0755
v 0.4025 0.7461 -0.0755
v -0.4135 -1.02 0.0195
v 0.4025 -1.02 -0.02
v 0.4025 -1.02 -0.06979
v 0.4025 -1.02 -0.02021
v 0.4025 -1.02 -0.0755
v -0.4025 -1.02 -0.02
v -0.4025 -1.02 -0.02021
v -0.4135 -1.01871 0.0195
v -0.4135 -0.99449 0.0195
v 0.09383 1.021 0.0195
v 0.40316 1.021 0.0195
v -0.4135 0.99549 0.0195
v 0.37065 -1.02 -0.0755
v -0.4025 0.93967 -0.0755
v -0.4025 -0.89467 -0.0755
v 0.4025 1.01 -0.0755
v 0.4025 1.00726 -0.0755
v -0.4025 1.01 -0.0755
v -0.4025 1.00726 -0.0755
v 0.4025 -0.89467 -0.0755
v 0.4025 0.93967 -0.0755
v 0.39244 -1.02 0.0195
v 0.4025 -1.02 0.0195
v -0.4135 1.021 0.0195
v 0.4025 -1.01294 -0.0755
v -0.4025 -1.01294 -0.0755
v 0.4025 1.0058 -0.0755
v -0.37065 1.01 -0.0755
v -0.4025 1.0058 -0.0755
v -0.40316 -1.02 0.0195
v 0.40316 -1.02 0.0195
v -0.40316 1.021 0.0195
v -0.4025 -1.02 0.0195
v -0.35402 -1.02 0.0195
v 0.41336 -1.02 0.0195
v 0.4135 1.021 -0.02
v -0.4135 1.021 -0.02
v 0.4135 0.0005 0
v -0.4135 0.0005 0
v 0 1.021 0
v -0.4025 -0.99285 -0.02
v -0.4025 -0.005 -0.02
v 0.4025 0.99385 -0.02
v 0.4025 1.01 -0.02
v 0.4025 -0.99285 -0.02
v 0.4025 -0.005 -0.02
v -0.4025 0.99385 -0.02
v -0.4025 1.01 -0.02
v 0 1.01 -0.02
v 0.4025 0.99947 -0.02
v -0.4025 0.99947 -0.02
v -0.28 1.01 -0.02
vn -1 0 0
vn -1 0 0
vn 0 0 1
vn 0 0 1
vn 0 -1 0
vn 0 -1 0
vn 1 0 0
vn 0 -1 0
vn 0 -1 0
vn 0 0 1
vn 0 0 1
vn 1 0 0
vn 1 0 0
vn 0 0 -1
vn 0 -0 -1
vn 0 -1 0
vn 0 -1 0
vn 1 0 0
vn -1 0 0
vn -1 0 0
vn 0 0 -1
vn 0 0 -1
vn 0 -1 0
vn 0 -1 0
vn -1 0 0
vn 0 1 0
vn 0 1 0
vn 0 0 1
vn 0 0 1
vn -1 0 0
vn 1 0 0
vn 1 0 0
vn 0 0 1
vn 0 0 1
vn 0 1 0
vn 0 1 0
vn 1 0 0
vn 1 0 0
vn 0 0 -1
vn 0 0 -1
vn 0 1 0
vn 0 1 0
vn -1 0 0
vn -1 0 0
vn 0 1 0
vn 0 1 0
vn 0 0 -1
vn 0 0 -1
vn 1 0 0
vn 1 0 0
vn 1 0 0
vn 1 0 0
vn -1 0 0
vn -1 0 0
vn -1 0 0
vn -1 0 0
vn 0 1 0
vn 0 1 0
vn 0 1 0
vn 0 1 0
vn 0 -1 0
vn -1 0 0
vn 0 -1 0
vn 0 -1 0
vn 0 0 1
vn -1 0 0
vn -1 0 0
vn -1 0 0
vn 0 0 1
vn 0 0 1
vn 0 -1 0
vn 0 -1 0
vn 1 0 0
vn 0 -1 0
vn 0 -1 0
vn 0 -1 0
vn 0 -1 0
vn 0 -1 0
vn 0 -1 0
vn 0 -1 0
vn 0 -1 0
vn 1 0 0
vn 0 -1 0
vn 0 -1 0
vn 0 0 1
vn 0 0 1
vn 1 0 0
vn 1 0 0
vn 0 0 1
vn -1 0 0
vn -1 0 0
vn 0 0 1
vn 0 0 1
vn -1 0 0
vn 0 0 1
vn 0 0 1
vn -1 0 0
vn 0 -1 0
vn -1 0 0
vn 0 0 1
vn -1 0 0
vn -1 0 0
vn 0 0 1
vn 0 0 1
vn 0 0 1
vn 1 0 0
vn 0 0 1
vn 0 0 1
vn 1 0 0
vn 0 0 0
vn 0 0 0
vn 0 0 -1
vn 1 0 0
vn 1 0 0
vn 1 0 0
vn 1 0 0
vn 0 0 -1
vn 0 -1 0
vn 0 -1 0
vn 0 0 -1
vn 0 -1 0
vn 0 -1 0
vn 0 0 -1
vn 0 0 -1
vn -1 0 0
vn -1 0 0
vn -1 0 0
vn -1 0 0
vn 0 0 -1
vn 0 -1 0
vn 1 0 0
vn 0 0 1
vn 0 0 1
vn 0 -1 0
vn -1 0 0
vn 0 -1 0
vn 0 -1 0
vn 0 -1 0
vn 0 -1 0
vn 0 -1 0
vn 0 -1 0
vn 0 -1 0
vn 0 -1 0
vn -1 0 0
vn 0 -1 0
vn 0 -1 0
vn 0 -1 0
vn 0 -1 0
vn 0 -1 0
vn 0 -1 0
vn 0 -1 0
vn 0 0 1
vn 1 0 0
vn 1 0 0
vn 0 -1 0
vn 1 0 0
vn 0 0 1
vn 1 0 0
vn 1 0 0
vn 0 0 1
vn 0 -1 0
vn 0 0 1
vn 0 -1 0
vn 0 -1 0
vn 0 0 1
vn 1 0 0
vn 1 0 0
vn 0 0 1
vn 0 0 0
vn 0 0 -1
vn 0 0 -1
vn 1 0 0
vn 0 0 -1
vn 1 0 0
vn 0 -0 -1
vn 0 0 -1
vn -1 0 0
vn 0 -1 0
vn 0 0 -1
vn -1 0 0
vn 0 0 -1
vn 1 0 0
vn 0 -1 0
vn 1 0 0
vn 0 0 -1
vn 0 0 -1
vn 0 0 -1
vn -1 -0 -0
vn 0 0 -1
vn -1 0 0
vn 0 0 -1
vn 0 0 0
vn 0 0 0
vn 1 0 0
vn 0 -1 0
vn 0 0 1
vn 0 -0 -1
vn -1 0 -0
vn 1 0 0
vn 0 0 -1
vn 0 0 -1
vn -1 0 0
vn 0 -1 0
vn 0 0 -1
vn 0 0 -1
vn 1 0 0
vn 0 0 0
vn 0 0 0
vn 0 0 1
vn 0 -1 0
vn 0 -1 0
vn 0 0 0
vn 0 0 0
vn 0 0 0
vn -1 0 0
vn -1 0 0
vn 0 -1 0
vn 0 -1 0
vn 0 0 1
vn 0 0 1
vn 0 -1 0
vn 0 -1 0
vn 1 0 0
vn 1 0 0
vn 0 0 1
vn 0 0 1
vn -1 0 0
vn -1 0 0
vn -1 0 0
vn -1 0 0
vn 1 0 0
vn 1 0 0
vn 1 0 0
vn 1 0 0
vn 0 -1 0
vn 0 -1 0
vn 0 -1 0
vn 0 -1 0
vn 0 0 1
vn 1 0 0
vn 0 0 1
vn 1 0 0
vn 1 0 0
vn 1 0 0
vn 0 0 1
vn 0 0 1
vn 0 0 1
vn -1 0 0
vn 0 -1 0
vn -1 0 0
vn 0 0 1
vn 0 0 1
vn -1 0 -0
vn 0 0 1
vn 0 0 1
vn -1 0 0
vn -1 0 0
vn -1 0 0
vn 0 0 1
vn 1 0 0
vn 0 0 1
vn 0 0 1
vn 0 -1 0
vn 1 0 0
vn 0 0 1
vn 0 -1 0
vn 0 -1 0
vn 0 -1 0
vn 0 0 1
vn -1 0 0
vn 0 0 1
vn 1 0 0
vn 0 0 1
vn 0 -1 0
f 2//7 3//18 9//49
f 3//13 7//38 9//50
f 7//37 6//31 9//51
f 6//32 2//12 9//52
f 4//19 1//1 10//53
f 1//2 5//30 10//54
f 5//25 8//44 10//55
f 8//43 4//20 10//56
f 5//27 6//35 11//57
f 6//36 7//42 11//58
f 7//41 8//46 11//59
f 8//45 5//26 11//60
f 12//61 2//9 13//64
f 2//8 12//63 14//71
f 3//17 2//8 14//71
f 15//72 4//23 16//1
f 17//81 1//6 18//84
f 1//6 4//24 18//84
f 13//65 2//10 19//89
f 6//33 21//95 20//92
f 6//33 20//92 2//11
f 6//34 5//28 22//100
f 6//34 22//100 23//103
f 1//3 25//107 24//104
f 1//3 24//104 5//29
f 8//48 28//112 29//117
f 8//48 29//117 4//21
f 7//40 30//120 31//123
f 7//40 31//123 8//47
f 3//14 32//124 33//129
f 3//14 33//129 7//39
f 34//130 1//5 17//83
f 14//71 37//143 36//1
f 14//71 36//1 3//17
f 16//80 38//150 36//142
f 38//1 3//16 36//1
f 4//24 15//74 40//155
f 4//24 40//155 18//84
f 41//157 1//4 34//132
f 2//10 20//93 19//89
f 1//4 41//157 42//160
f 5//28 43//162 44//165
f 22//100 5//28 44//165
f 21//96 6//34 23//103
f 5//28 24//105 45//168
f 8//48 47//170 28//112
f 48//173 4//21 29//117
f 30//120 7//40 49//176
f 7//40 50//179 49//176
f 8//47 51//181 52//185
f 3//14 53//186 32//124
f 54//189 7//39 33//129
f 37//143 14//71 35//134
f 18//84 40//155 39//151
f 25//108 1//4 42//160
f 5//28 45//168 57//196
f 53//187 3//15 58//197
f 3//15 38//1 58//197
f 4//22 48//175 59//200
f 16//1 4//22 59//200
f 50//179 7//40 60//201
f 31//123 61//204 8//47
f 61//204 51//181 8//47
f 47//171 8//47 62//205
f 8//47 52//185 62//205
f 43//162 5//28 65//209
f 5//28 57//196 65//209
f 7//40 54//191 60//201
f 69//215 14//68 71//227
f 18//87 70//224 72//231
f 70//221 69//218 73//235
f 18//86 74//241 75//245
f 70//225 18//86 75//245
f 69//219 70//226 77//251
f 78//252 14//69 79//255
f 14//69 69//220 79//255
f 80//259 70//225 75//245
f 69//220 76//247 79//255
f 14//70 78//254 35//133
f 74//239 18//85 39//152
f 82//265 77//251 70//226
f 83//269 76//246 69//219
f 77//251 83//269 69//219
f 84//271 81//262 70//226
f 80//261 84//271 70//226
f 85//273 82//265 70//226
f 81//262 85//273 70//226
f 12//62 13//66 71//228
f 14//67 12//62 71//228
f 22//99 69//216 23//101
f 23//101 69//216 71//230
f 21//97 71//229 20//94
f 17//82 18//88 72//234
f 25//109 72//233 24//106
f 45//167 72//232 57//194
f 57//194 72//232 70//223
f 73//237 44//163 43//161
f 44//164 73//236 22//98
f 22//98 73//236 69//217
f 57//195 70//222 65//210
f 65//210 70//222 73//238
f 79//257 33//127 32//125
f 75//243 29//115 28//113
f 82//267 31//121 30//119
f 50//180 83//270 49//177
f 49//177 83//270 77//250
f 60//202 76//248 50//180
f 50//180 76//248 83//270
f 33//128 79//256 54//190
f 79//256 76//248 54//190
f 29//116 75//242 48//174
f 75//242 74//240 48//174
f 51//182 81//264 52//184
f 52//184 81//264 84//272
f 75//244 28//114 47//172
f 80//260 75//244 47//172
f 49//178 77//249 30//118
f 30//118 77//249 82//268
f 61//203 85//274 51//183
f 51//183 85//274 81//263
f 31//122 82//266 61//203
f 61//203 82//266 85//274
f 15//73 16//1 74//240
f 52//184 84//272 62//206
f 62//206 84//272 80//260
f 79//258 32//126 53//188
f 78//253 79//258 53//188
f 37//144 35//135 78//253
f 36//1 37//144 78//253
f 19//91 71//228 13//66
f 71//229 19//90 20//94
f 23//102 71//229 21//97
f 34//131 17//82 72//234
f 72//233 45//166 24//106
f 42//159 72//233 25//109
f 65//211 73//237 43//161
f 76//248 60//202 54//190
f 74//240 59//199 48//174
f 62//206 80//260 47//172
f 59//199 74//240 16//1
f 40//154 15//73 74//240
f 39//153 40//154 74//240
f 58//198 78//253 53//188
f 38//1 36//1 78//253
f 34//131 72//234 41//156
f 78//253 58//198 38//1
f 72//234 42//158 41//156
