#Produced by Art of Illusion 2.2, Tue May 30 12:50:29 CEST 2006
g Vitre
usemtl flltgrey
v -0.345 0.614 -0.0125
v 0.145 0.614 -0.0125
v 0.145 0.614 -0.0225
v -0.345 0.614 -0.0225
v -0.345 2.084 -0.0125
v 0.145 2.084 -0.0125
v 0.145 2.084 -0.0225
v -0.345 2.084 -0.0225
v -0.1 1.349 -0.0125
v 0.145 1.349 -0.0175
v -0.1 1.349 -0.0225
v -0.345 1.349 -0.0175
v -0.1 0.614 -0.0175
v -0.1 2.084 -0.0175
vn -0.57735 -0.57735 0.57735
vn 0.57735 -0.57735 0.57735
vn 0.57735 -0.57735 -0.57735
vn -0.57735 -0.57735 -0.57735
vn -0.57735 0.57735 0.57735
vn 0.57735 0.57735 0.57735
vn 0.57735 0.57735 -0.57735
vn -0.57735 0.57735 -0.57735
vn 0 0 1
vn 1 0 0
vn 0 0 -1
vn -1 0 0
vn 0 -1 0
vn 0 1 0
f 2//2 1//1 13//13
f 3//3 2//2 13//13
f 4//4 3//3 13//13
f 1//1 4//4 13//13
f 2//2 3//3 10//10
f 3//3 7//7 10//10
f 7//7 6//6 10//10
f 6//6 2//2 10//10
f 1//1 2//2 9//9
f 2//2 6//6 9//9
f 6//6 5//5 9//9
f 5//5 1//1 9//9
f 4//4 1//1 12//12
f 1//1 5//5 12//12
f 5//5 8//8 12//12
f 8//8 4//4 12//12
f 5//5 6//6 14//14
f 6//6 7//7 14//14
f 7//7 8//8 14//14
f 8//8 5//5 14//14
f 3//3 4//4 11//11
f 4//4 8//8 11//11
f 8//8 7//7 11//11
f 7//7 3//3 11//11
g Gond
usemtl white
v -0.43308 2.01433 0.0025
v -0.42308 2.01433 0.0025
v -0.43308 2.01433 -0.0075
v -0.44308 2.01433 0.0025
v -0.43308 2.01433 0.0125
v -0.42308 2.05433 0.0025
v -0.43308 2.05433 -0.0075
v -0.44308 2.05433 0.0025
v -0.43308 2.05433 0.0125
v -0.43308 2.05433 0.0025
vn 0 -1 0
vn 0.70711 -0.66667 0.2357
vn 0.2357 -0.66667 -0.70711
vn -0.70711 -0.66667 -0.2357
vn -0.2357 -0.66667 0.70711
vn 0.70711 0.66667 -0.2357
vn -0.2357 0.66667 -0.70711
vn -0.70711 0.66667 0.2357
vn 0.2357 0.66667 0.70711
vn 0 1 0
f 17//17 16//16 15//15
f 18//18 17//17 15//15
f 19//19 18//18 15//15
f 16//16 19//19 15//15
f 20//20 16//16 17//17
f 21//21 17//17 18//18
f 22//22 18//18 19//19
f 23//23 19//19 16//16
f 20//20 17//17 21//21
f 21//21 18//18 22//22
f 22//22 19//19 23//23
f 23//23 16//16 20//20
f 24//24 20//20 21//21
f 24//24 21//21 22//22
f 24//24 22//22 23//23
f 24//24 23//23 20//20
g Gond_1
v -0.433 1.353 0.0025
v -0.423 1.353 0.0025
v -0.433 1.353 -0.0075
v -0.443 1.353 0.0025
v -0.433 1.353 0.0125
v -0.423 1.393 0.0025
v -0.433 1.393 -0.0075
v -0.443 1.393 0.0025
v -0.433 1.393 0.0125
v -0.433 1.393 0.0025
vn 0 -1 0
vn 0.70711 -0.66667 0.2357
vn 0.2357 -0.66667 -0.70711
vn -0.70711 -0.66667 -0.2357
vn -0.2357 -0.66667 0.70711
vn 0.70711 0.66667 -0.2357
vn -0.2357 0.66667 -0.70711
vn -0.70711 0.66667 0.2357
vn 0.2357 0.66667 0.70711
vn 0 1 0
f 27//27 26//26 25//25
f 28//28 27//27 25//25
f 29//29 28//28 25//25
f 26//26 29//29 25//25
f 30//30 26//26 27//27
f 31//31 27//27 28//28
f 32//32 28//28 29//29
f 33//33 29//29 26//26
f 30//30 27//27 31//31
f 31//31 28//28 32//32
f 32//32 29//29 33//33
f 33//33 26//26 30//30
f 34//34 30//30 31//31
f 34//34 31//31 32//32
f 34//34 32//32 33//33
f 34//34 33//33 30//30
g Gond_2
v -0.43308 0.69233 0.0025
v -0.42308 0.69233 0.0025
v -0.43308 0.69233 -0.0075
v -0.44308 0.69233 0.0025
v -0.43308 0.69233 0.0125
v -0.42308 0.73233 0.0025
v -0.43308 0.73233 -0.0075
v -0.44308 0.73233 0.0025
v -0.43308 0.73233 0.0125
v -0.43308 0.73233 0.0025
vn 0 -1 0
vn 0.70711 -0.66667 0.2357
vn 0.2357 -0.66667 -0.70711
vn -0.70711 -0.66667 -0.2357
vn -0.2357 -0.66667 0.70711
vn 0.70711 0.66667 -0.2357
vn -0.2357 0.66667 -0.70711
vn -0.70711 0.66667 0.2357
vn 0.2357 0.66667 0.70711
vn 0 1 0
f 37//37 36//36 35//35
f 38//38 37//37 35//35
f 39//39 38//38 35//35
f 36//36 39//39 35//35
f 40//40 36//36 37//37
f 41//41 37//37 38//38
f 42//42 38//38 39//39
f 43//43 39//39 36//36
f 40//40 37//37 41//41
f 41//41 38//38 42//42
f 42//42 39//39 43//43
f 43//43 36//36 40//40
f 44//44 40//40 41//41
f 44//44 41//41 42//42
f 44//44 42//42 43//43
f 44//44 43//43 40//40
g Poignee
v 0.176 1.14748 0.01011
v 0.18789 1.15603 0.00888
v 0.18335 1.16987 0.00688
v 0.16865 1.16987 0.00688
v 0.16411 1.15603 0.00888
v 0.176 1.14862 0.0196
v 0.18789 1.15724 0.01911
v 0.18335 1.1712 0.01832
v 0.16865 1.1712 0.01832
v 0.16411 1.15724 0.01911
v 0.176 1.14839 0.03156
v 0.18789 1.157 0.03225
v 0.18335 1.17093 0.03336
v 0.16865 1.17093 0.03336
v 0.16411 1.157 0.03225
v 0.176 1.14615 0.04287
v 0.18789 1.15449 0.04512
v 0.18335 1.16798 0.04875
v 0.16865 1.16798 0.04875
v 0.16411 1.15449 0.04512
v 0.176 1.14569 0.04521
v 0.18789 1.1479 0.05356
v 0.18335 1.15149 0.06706
v 0.16865 1.15149 0.06706
v 0.16411 1.1479 0.05356
v 0.176 1.09607 0.04985
v 0.18789 1.0963 0.05849
v 0.18335 1.09668 0.07246
v 0.16865 1.09668 0.07246
v 0.16411 1.0963 0.05849
v 0.176 1.04576 0.04879
v 0.18789 1.04543 0.05743
v 0.18335 1.0449 0.07139
v 0.16865 1.0449 0.07139
v 0.16411 1.04543 0.05743
v 0.176 1.15986 0.00833
v 0.176 1.04528 0.06129
vn -0.18138 -0.83296 -0.52277
vn 0.6604 -0.49254 -0.5668
vn 0.59952 0.41689 -0.68321
vn -0.30095 0.63557 -0.71097
vn -0.77757 -0.1481 -0.61111
vn 0.00013 -0.99876 0.04988
vn 0.95107 -0.30899 -0.00036
vn 0.58836 0.8071 -0.04917
vn -0.58842 0.80798 -0.03035
vn -0.95113 -0.30722 0.03118
vn -0.00008 -0.99428 -0.10678
vn 0.95111 -0.30426 -0.05307
vn 0.58874 0.80515 0.07162
vn -0.58874 0.80263 0.09576
vn -0.9511 -0.3086 -0.01286
vn 0.06292 -0.9617 -0.26677
vn 0.94947 -0.29411 -0.1096
vn 0.59004 0.73962 0.32375
vn -0.59649 0.6996 0.39339
vn -0.95439 -0.29169 -0.06374
vn 0.04661 -0.62427 -0.77981
vn 0.95378 -0.05819 -0.29482
vn 0.60544 0.40885 0.68285
vn -0.59995 0.32428 0.73137
vn -0.94598 -0.29017 -0.14466
vn -0.0011 -0.03655 -0.99933
vn 0.95129 0.00216 -0.30829
vn 0.58829 0.03976 0.80767
vn -0.58778 0.02278 0.8087
vn -0.95076 -0.02459 -0.30894
vn 0.1821 -0.60387 -0.776
vn 0.77774 -0.62304 -0.08328
vn 0.29962 -0.6446 0.70336
vn -0.59776 -0.6386 0.48464
vn -0.6617 -0.61347 -0.43105
vn -0 -0.14256 -0.98979
vn 0 -0.99928 -0.03799
f 45//45 46//46 50//50
f 46//46 51//51 50//50
f 46//46 47//47 51//51
f 47//47 52//52 51//51
f 47//47 48//48 52//52
f 48//48 53//53 52//52
f 48//48 49//49 53//53
f 49//49 54//54 53//53
f 49//49 45//45 54//54
f 45//45 50//50 54//54
f 50//50 51//51 55//55
f 51//51 56//56 55//55
f 51//51 52//52 56//56
f 52//52 57//57 56//56
f 52//52 53//53 57//57
f 53//53 58//58 57//57
f 53//53 54//54 58//58
f 54//54 59//59 58//58
f 54//54 50//50 59//59
f 50//50 55//55 59//59
f 55//55 56//56 60//60
f 56//56 61//61 60//60
f 56//56 57//57 61//61
f 57//57 62//62 61//61
f 57//57 58//58 62//62
f 58//58 63//63 62//62
f 58//58 59//59 63//63
f 59//59 64//64 63//63
f 59//59 55//55 64//64
f 55//55 60//60 64//64
f 60//60 61//61 65//65
f 61//61 66//66 65//65
f 61//61 62//62 66//66
f 62//62 67//67 66//66
f 62//62 63//63 67//67
f 63//63 68//68 67//67
f 63//63 64//64 68//68
f 64//64 69//69 68//68
f 64//64 60//60 69//69
f 60//60 65//65 69//69
f 65//65 66//66 70//70
f 66//66 71//71 70//70
f 66//66 67//67 71//71
f 67//67 72//72 71//71
f 67//67 68//68 72//72
f 68//68 73//73 72//72
f 68//68 69//69 73//73
f 69//69 74//74 73//73
f 69//69 65//65 74//74
f 65//65 70//70 74//74
f 70//70 71//71 75//75
f 71//71 76//76 75//75
f 71//71 72//72 76//76
f 72//72 77//77 76//76
f 72//72 73//73 77//77
f 73//73 78//78 77//77
f 73//73 74//74 78//78
f 74//74 79//79 78//78
f 74//74 70//70 79//79
f 70//70 75//75 79//79
f 46//46 45//45 80//80
f 47//47 46//46 80//80
f 48//48 47//47 80//80
f 49//49 48//48 80//80
f 45//45 49//49 80//80
f 75//75 76//76 81//81
f 76//76 77//77 81//81
f 77//77 78//78 81//81
f 78//78 79//79 81//81
f 79//79 75//75 81//81
g Tour_Fenetre
v -0.455 0.005 -0.005
v 0.865 0.005 -0.005
v 0.865 0.005 -0.275
v -0.455 0.005 -0.275
v -0.455 2.215 -0.005
v 0.865 2.215 -0.005
v 0.865 2.215 -0.275
v -0.455 2.215 -0.275
v 0.865 1.11 -0.14
v -0.455 1.11 -0.14
v 0.205 0.005 -0.14
v 0.205 2.215 -0.14
v 0.81 0.538 -0.005
v 0.81 2.158 -0.005
v -0.4 0.538 -0.005
v 0.8625 0.4885 -0.275
v -0.4525 0.4885 -0.275
v 0.8625 2.2115 -0.275
v -0.4 2.158 -0.005
v -0.4525 2.2115 -0.275
v -0.4525 0.4885 -0.096
v 0.8625 0.4885 -0.096
v -0.4525 2.2115 -0.096
v 0.8625 2.2115 -0.096
v 0.8625 1.35 -0.246
v -0.4525 1.35 -0.246
v 0.205 0.4885 -0.246
v 0.205 2.2115 -0.246
v 0.81 0.538 -0.096
v 0.81 2.158 -0.096
v -0.4 0.538 -0.096
v -0.4 2.158 -0.096
vn -0.48507 -0.48507 0.72761
vn 0.48507 -0.48507 0.72761
vn 0.57735 -0.57735 -0.57735
vn -0.48507 -0.48507 -0.72761
vn -0.40825 0.40825 0.8165
vn 0.57735 0.57735 0.57735
vn 0.48507 0.48507 -0.72761
vn -0.40825 0.40825 -0.8165
vn 1 0 0
vn -1 0 0
vn 0 -1 0
vn 0 1 0
vn -0.30151 0.30151 0.90453
vn -0.40825 -0.40825 0.8165
vn 0.26726 0.53452 0.80178
vn -0.40825 0.40825 -0.8165
vn 0.48507 0.48507 -0.72761
vn -0.48507 -0.48507 -0.72761
vn 0.66667 -0.33333 0.66667
vn 0.57735 -0.57735 -0.57735
vn 0.48507 0.48507 -0.72761
vn -0.57735 0.57735 -0.57735
vn 0.40825 -0.40825 -0.8165
vn -0.48507 -0.48507 -0.72761
vn -1 0 0
vn 1 0 0
vn 0 1 0
vn 0 -1 0
vn -0.40825 0.40825 -0.8165
vn -0.30151 -0.30151 -0.90453
vn 0.53452 0.26726 -0.80178
vn 0.33333 -0.66667 -0.66667
f 83//83 82//82 92//92
f 84//84 83//83 92//92
f 85//85 84//84 92//92
f 82//82 85//85 92//92
f 83//83 84//84 90//90
f 84//84 88//88 90//90
f 88//88 87//87 90//90
f 87//87 83//83 90//90
f 85//85 82//82 91//91
f 82//82 86//86 91//91
f 86//86 89//89 91//91
f 89//89 85//85 91//91
f 86//86 87//87 93//93
f 87//87 88//88 93//93
f 88//88 89//89 93//93
f 89//89 86//86 93//93
f 96//96 112//112 100//100
f 83//83 94//94 82//82
f 102//102 108//108 98//98
f 83//83 87//87 95//95
f 110//110 96//96 94//94
f 87//87 86//86 95//95
f 86//86 82//82 96//96
f 111//111 113//113 104//104
f 104//104 107//107 101//101
f 84//84 85//85 97//97
f 108//108 103//103 97//97
f 85//85 89//89 98//98
f 110//110 94//94 95//95
f 89//89 88//88 99//99
f 101//101 109//109 104//104
f 88//88 84//84 97//97
f 112//112 113//113 100//100
f 83//83 95//95 94//94
f 86//86 100//100 95//95
f 95//95 113//113 111//111
f 97//97 103//103 106//106
f 108//108 97//97 98//98
f 82//82 94//94 96//96
f 100//100 113//113 95//95
f 111//111 110//110 95//95
f 98//98 107//107 102//102
f 96//96 110//110 112//112
f 107//107 98//98 101//101
f 100//100 86//86 96//96
f 85//85 98//98 97//97
f 89//89 101//101 98//98
f 106//106 99//99 97//97
f 106//106 105//105 99//99
f 88//88 97//97 99//99
f 99//99 101//101 89//89
f 99//99 105//105 109//109
f 109//109 101//101 99//99
f 102//102 103//103 108//108
f 103//103 105//105 106//106
f 104//104 102//102 107//107
f 105//105 104//104 109//109
f 110//110 103//103 102//102
f 105//105 103//103 110//110
f 104//104 105//105 111//111
f 102//102 104//104 112//112
f 110//110 102//102 112//112
f 111//111 105//105 110//110
f 112//112 104//104 113//113
g Fenetre_1
v 0.219 0.534 -0.0175
v 0.257 0.534 -0.0175
v 0.257 0.534 -0.0475
v 0.219 0.534 -0.0475
v 0.219 2.164 -0.0175
v 0.257 2.164 -0.0175
v 0.257 2.164 -0.0475
v 0.219 2.164 -0.0475
v 0.238 1.349 -0.0175
v 0.257 1.349 -0.0325
v 0.238 1.349 -0.0475
v 0.238 0.534 -0.0325
v 0.238 2.164 -0.0325
v 0.225 0.534 -0.02224
v 0.225 0.534 -0.0175
v 0.225 0.534 -0.0475
v 0.225 0.534 -0.04276
v 0.225 1.90663 -0.0175
v 0.225 2.164 -0.0175
v 0.225 0.79137 -0.0175
v 0.225 1.349 -0.0175
v 0.219 0.534 -0.04695
v 0.219 2.164 -0.04695
v 0.219 0.54 -0.0475
v 0.225 2.164 -0.02224
v 0.225 2.164 -0.04276
v 0.225 2.164 -0.0475
v 0.225 1.90663 -0.0475
v 0.225 0.79137 -0.0475
v 0.219 0.54226 -0.0475
v 0.219 2.158 -0.0475
v 0.219 2.0572 -0.0475
v -0.425 0.534 0.0125
v 0.225 0.534 0.0125
v -0.425 0.534 -0.0475
v -0.425 2.164 0.0125
v 0.225 2.164 0.0125
v -0.425 2.164 -0.0475
v -0.425 1.349 -0.0175
v -0.1 0.534 -0.0175
v -0.1 2.164 -0.0175
v 0.14 0.619 0.0125
v 0.14 2.079 0.0125
v -0.34 0.619 0.0125
v 0.14 0.619 -0.0475
v -0.34 0.619 -0.0475
v 0.14 0.65104 -0.0475
v 0.14 2.079 -0.0475
v -0.34 2.079 0.0125
v -0.34 2.079 -0.0475
v 0.14 1.349 -0.0175
v -0.34 1.349 -0.0175
v -0.1 0.619 -0.0175
v -0.1 2.079 -0.0175
vn 0 -1 0
vn 0.48507 -0.72761 0.48507
vn 0.57735 -0.57735 -0.57735
vn 0 -0.70711 -0.70711
vn 0 1 0
vn 0.48507 0.48507 0.72761
vn 0.48507 0.72761 -0.48507
vn 0 0.6247 -0.78087
vn 0 0 1
vn 1 0 0
vn 0 0 -1
vn 0 -1 0
vn 0 1 0
vn 0 -1 0
vn 0.26726 -0.80178 0.53452
vn 0 -0.70711 -0.70711
vn 0 -1 0
vn 0.5547 0 0.83205
vn 0.2357 0.94281 0.2357
vn 0.70711 0 0.70711
vn 0.83205 0 0.5547
vn 0 -1 0
vn 0 1 0
vn 0 0 -1
vn 0 1 0
vn 0 1 0
vn 0 0.5547 -0.83205
vn 0 0 -1
vn 0 0 -1
vn 0 0 -1
vn 0 0 -1
vn 0 0 -1
vn -0.48507 -0.48507 0.72761
vn 0.6396 -0.6396 0.4264
vn -0.4264 -0.6396 -0.6396
vn -0.40825 0.40825 0.8165
vn 0.57735 0.57735 0.57735
vn -0.40825 0.40825 -0.8165
vn -1 0 0
vn 0 -1 0
vn 0 1 0
vn -0.55709 0.37139 0.74278
vn -0.6396 -0.4264 0.6396
vn 0.48507 0.48507 0.72761
vn -0.21822 0.43644 -0.87287
vn 0.48507 0.48507 -0.72761
vn -0.70711 0 -0.70711
vn -0.18257 -0.36515 -0.91287
vn 0.57735 -0.57735 0.57735
vn 0.57735 -0.57735 -0.57735
vn -1 0 0
vn 1 0 0
vn 0 1 0
vn 0 -1 0
f 116//116 115//115 125//125
f 115//115 116//116 123//123
f 116//116 120//120 123//123
f 120//120 119//119 123//123
f 119//119 115//115 123//123
f 115//115 119//119 122//122
f 119//119 120//120 126//126
f 120//120 116//116 124//124
f 115//115 128//128 127//127
f 115//115 127//127 125//125
f 128//128 114//114 127//127
f 125//125 130//130 129//129
f 125//125 129//129 116//116
f 130//130 117//117 129//129
f 117//117 130//130 127//127
f 117//117 127//127 114//114
f 130//130 125//125 127//127
f 128//128 115//115 122//122
f 119//119 132//132 131//131
f 119//119 131//131 122//122
f 133//133 122//122 134//134
f 126//126 138//138 132//132
f 126//126 132//132 119//119
f 138//138 118//118 132//132
f 120//120 140//140 139//139
f 120//120 139//139 126//126
f 140//140 121//121 139//139
f 118//118 138//138 139//139
f 118//118 139//139 121//121
f 138//138 126//126 139//139
f 116//116 129//129 124//124
f 121//121 141//141 142//142
f 121//121 142//142 117//117
f 141//141 124//124 142//142
f 124//124 141//141 140//140
f 124//124 140//140 120//120
f 141//141 121//121 140//140
f 122//122 133//133 128//128
f 122//122 131//131 134//134
f 117//117 142//142 129//129
f 142//142 124//124 129//129
f 147//147 146//146 153//153
f 146//146 148//148 153//153
f 150//150 147//147 134//134
f 148//148 146//146 152//152
f 146//146 149//149 152//152
f 149//149 151//151 152//152
f 151//151 148//148 152//152
f 149//149 150//150 154//154
f 151//151 149//149 154//154
f 161//161 156//156 167//167
f 147//147 155//155 146//146
f 159//159 157//157 166//166
f 147//147 150//150 155//155
f 166//166 158//158 159//159
f 150//150 149//149 156//156
f 162//162 167//167 156//156
f 149//149 146//146 157//157
f 156//156 161//161 160//160
f 148//148 151//151 159//159
f 155//155 164//164 160//160
f 155//155 158//158 166//166
f 146//146 155//155 157//157
f 150//150 156//156 155//155
f 161//161 167//167 163//163
f 163//163 167//167 162//162
f 149//149 157//157 162//162
f 158//158 148//148 159//159
f 151//151 163//163 159//159
f 165//165 159//159 163//163
f 161//161 163//163 151//151
f 165//165 162//162 157//157
f 162//162 165//165 163//163
f 162//162 156//156 149//149
f 164//164 155//155 156//156
f 165//165 157//157 159//159
f 155//155 160//160 158//158
f 164//164 156//156 160//160
f 155//155 166//166 157//157
f 147//147 153//153 114//114
f 148//148 117//117 135//135
f 148//148 135//135 153//153
f 132//132 150//150 131//131
f 150//150 134//134 131//131
f 154//154 150//150 118//118
f 154//154 136//136 121//121
f 154//154 121//121 151//151
f 117//117 148//148 158//158
f 160//160 143//143 137//137
f 160//160 137//137 158//158
f 151//151 121//121 161//161
f 143//143 160//160 145//145
f 161//161 144//144 145//145
f 161//161 145//145 160//160
f 128//128 147//147 114//114
f 153//153 135//135 114//114
f 128//128 133//133 147//147
f 133//133 134//134 147//147
f 150//150 132//132 118//118
f 136//136 154//154 118//118
f 158//158 137//137 117//117
f 144//144 161//161 121//121
g Fenetre_2
v 0.75 1.349 -0.0175
v 0.27 1.349 -0.0175
v 0.51 0.619 -0.0175
v 0.51 2.079 -0.0175
v 0.75 0.619 0.0125
v 0.27 0.619 -0.0475
v 0.27 0.619 0.0125
v 0.75 2.079 -0.0475
v 0.75 2.079 0.0125
v 0.27 2.079 0.0125
v 0.294 2.079 -0.0475
v 0.75 0.619 -0.0475
v 0.27 2.079 -0.0475
v 0.2345 0.534 0.0125
v 0.835 0.534 0.0125
v 0.835 0.534 -0.0475
v 0.2345 0.534 -0.0475
v 0.2345 2.164 0.0125
v 0.835 2.164 0.0125
v 0.835 2.164 -0.0475
v 0.2345 2.164 -0.0475
v 0.835 1.349 -0.0175
v 0.2345 1.349 -0.0175
v 0.53475 0.534 -0.0175
v 0.53475 2.164 -0.0175
vn -1 0 0
vn 1 0 0
vn 0 1 0
vn 0 -1 0
vn -0.48507 0.48507 0.72761
vn 0.40825 0.40825 -0.8165
vn 0.48507 0.48507 0.72761
vn -0.53452 -0.26726 -0.80178
vn -0.4264 -0.6396 0.6396
vn 0.4264 -0.6396 0.6396
vn 0 -0.8 -0.6
vn -0.57735 0.57735 -0.57735
vn 0.66667 -0.33333 -0.66667
vn -0.48507 -0.48507 0.72761
vn 0.48507 -0.48507 0.72761
vn 0.40825 -0.40825 -0.8165
vn -0.57735 -0.57735 -0.57735
vn -0.48507 0.48507 0.72761
vn 0.48507 0.48507 0.72761
vn 0.48507 0.48507 -0.72761
vn -0.40825 0.40825 -0.8165
vn 1 0 0
vn -1 0 0
vn 0 -1 0
vn 0 1 0
f 185//185 186//186 192//192
f 187//187 186//186 189//189
f 172//172 170//170 174//174
f 178//178 180//180 188//188
f 186//186 185//185 177//177
f 172//172 182//182 176//176
f 188//188 180//180 173//173
f 186//186 177//177 176//176
f 177//177 185//185 174//174
f 177//177 171//171 176//176
f 183//183 179//179 175//175
f 178//178 187//187 175//175
f 182//182 172//172 181//181
f 173//173 170//170 179//179
f 179//179 170//170 172//172
f 188//188 185//185 192//192
f 173//173 174//174 170//170
f 184//184 181//181 190//190
f 188//188 184//184 190//190
f 183//183 173//173 179//179
f 172//172 168//168 179//179
f 176//176 168//168 172//172
f 186//186 187//187 192//192
f 168//168 176//176 175//175
f 181//181 185//185 190//190
f 187//187 188//188 192//192
f 182//182 183//183 189//189
f 183//183 187//187 189//189
f 169//169 174//174 173//173
f 185//185 188//188 190//190
f 182//182 186//186 176//176
f 169//169 173//173 180//180
f 177//177 169//169 180//180
f 174//174 169//169 177//177
f 175//175 176//176 178//178
f 178//178 176//176 171//171
f 178//178 177//177 180//180
f 181//181 172//172 174//174
f 183//183 175//175 187//187
f 178//178 171//171 177//177
f 168//168 175//175 179//179
f 187//187 178//178 188//188
f 188//188 173//173 184//184
f 186//186 182//182 189//189
f 184//184 173//173 183//183
f 181//181 174//174 185//185
f 182//182 181//181 191//191
f 183//183 182//182 191//191
f 184//184 183//183 191//191
f 181//181 184//184 191//191
g Vitre_1
usemtl flltgrey
v 0.265 0.614 -0.0125
v 0.755 0.614 -0.0125
v 0.755 0.614 -0.0225
v 0.265 0.614 -0.0225
v 0.265 2.084 -0.0125
v 0.755 2.084 -0.0125
v 0.755 2.084 -0.0225
v 0.265 2.084 -0.0225
v 0.51 1.349 -0.0125
v 0.755 1.349 -0.0175
v 0.51 1.349 -0.0225
v 0.265 1.349 -0.0175
v 0.51 0.614 -0.0175
v 0.51 2.084 -0.0175
vn -0.57735 -0.57735 0.57735
vn 0.57735 -0.57735 0.57735
vn 0.57735 -0.57735 -0.57735
vn -0.57735 -0.57735 -0.57735
vn -0.57735 0.57735 0.57735
vn 0.57735 0.57735 0.57735
vn 0.57735 0.57735 -0.57735
vn -0.57735 0.57735 -0.57735
vn 0 0 1
vn 1 0 0
vn 0 0 -1
vn -1 0 0
vn 0 -1 0
vn 0 1 0
f 194//194 193//193 205//205
f 195//195 194//194 205//205
f 196//196 195//195 205//205
f 193//193 196//196 205//205
f 194//194 195//195 202//202
f 195//195 199//199 202//202
f 199//199 198//198 202//202
f 198//198 194//194 202//202
f 193//193 194//194 201//201
f 194//194 198//198 201//201
f 198//198 197//197 201//201
f 197//197 193//193 201//201
f 196//196 193//193 204//204
f 193//193 197//197 204//204
f 197//197 200//200 204//204
f 200//200 196//196 204//204
f 197//197 198//198 206//206
f 198//198 199//199 206//206
f 199//199 200//200 206//206
f 200//200 197//197 206//206
f 195//195 196//196 203//203
f 196//196 200//200 203//203
f 200//200 199//199 203//203
f 199//199 195//195 203//203
g Gond_3
usemtl white
v 0.84292 0.69233 0.0025
v 0.85292 0.69233 0.0025
v 0.84292 0.69233 -0.0075
v 0.83292 0.69233 0.0025
v 0.84292 0.69233 0.0125
v 0.85292 0.73233 0.0025
v 0.84292 0.73233 -0.0075
v 0.83292 0.73233 0.0025
v 0.84292 0.73233 0.0125
v 0.84292 0.73233 0.0025
vn 0 -1 0
vn 0.70711 -0.66667 0.2357
vn 0.2357 -0.66667 -0.70711
vn -0.70711 -0.66667 -0.2357
vn -0.2357 -0.66667 0.70711
vn 0.70711 0.66667 -0.2357
vn -0.2357 0.66667 -0.70711
vn -0.70711 0.66667 0.2357
vn 0.2357 0.66667 0.70711
vn 0 1 0
f 209//209 208//208 207//207
f 210//210 209//209 207//207
f 211//211 210//210 207//207
f 208//208 211//211 207//207
f 212//212 208//208 209//209
f 213//213 209//209 210//210
f 214//214 210//210 211//211
f 215//215 211//211 208//208
f 212//212 209//209 213//213
f 213//213 210//210 214//214
f 214//214 211//211 215//215
f 215//215 208//208 212//212
f 216//216 212//212 213//213
f 216//216 213//213 214//214
f 216//216 214//214 215//215
f 216//216 215//215 212//212
g Gond_4
v 0.843 1.353 0.0025
v 0.853 1.353 0.0025
v 0.843 1.353 -0.0075
v 0.833 1.353 0.0025
v 0.843 1.353 0.0125
v 0.853 1.393 0.0025
v 0.843 1.393 -0.0075
v 0.833 1.393 0.0025
v 0.843 1.393 0.0125
v 0.843 1.393 0.0025
vn 0 -1 0
vn 0.70711 -0.66667 0.2357
vn 0.2357 -0.66667 -0.70711
vn -0.70711 -0.66667 -0.2357
vn -0.2357 -0.66667 0.70711
vn 0.70711 0.66667 -0.2357
vn -0.2357 0.66667 -0.70711
vn -0.70711 0.66667 0.2357
vn 0.2357 0.66667 0.70711
vn 0 1 0
f 219//219 218//218 217//217
f 220//220 219//219 217//217
f 221//221 220//220 217//217
f 218//218 221//221 217//217
f 222//222 218//218 219//219
f 223//223 219//219 220//220
f 224//224 220//220 221//221
f 225//225 221//221 218//218
f 222//222 219//219 223//223
f 223//223 220//220 224//224
f 224//224 221//221 225//225
f 225//225 218//218 222//222
f 226//226 222//222 223//223
f 226//226 223//223 224//224
f 226//226 224//224 225//225
f 226//226 225//225 222//222
g Gond_5
v 0.84292 2.01433 0.0025
v 0.85292 2.01433 0.0025
v 0.84292 2.01433 -0.0075
v 0.83292 2.01433 0.0025
v 0.84292 2.01433 0.0125
v 0.85292 2.05433 0.0025
v 0.84292 2.05433 -0.0075
v 0.83292 2.05433 0.0025
v 0.84292 2.05433 0.0125
v 0.84292 2.05433 0.0025
vn 0 -1 0
vn 0.70711 -0.66667 0.2357
vn 0.2357 -0.66667 -0.70711
vn -0.70711 -0.66667 -0.2357
vn -0.2357 -0.66667 0.70711
vn 0.70711 0.66667 -0.2357
vn -0.2357 0.66667 -0.70711
vn -0.70711 0.66667 0.2357
vn 0.2357 0.66667 0.70711
vn 0 1 0
f 229//229 228//228 227//227
f 230//230 229//229 227//227
f 231//231 230//230 227//227
f 228//228 231//231 227//227
f 232//232 228//228 229//229
f 233//233 229//229 230//230
f 234//234 230//230 231//231
f 235//235 231//231 228//228
f 232//232 229//229 233//233
f 233//233 230//230 234//234
f 234//234 231//231 235//235
f 235//235 228//228 232//232
f 236//236 232//232 233//233
f 236//236 233//233 234//234
f 236//236 234//234 235//235
f 236//236 235//235 232//232
