#Produced by Art of Illusion 2.2, Tue May 30 13:54:45 CEST 2006
g Vitre
usemtl flltgrey
v -0.355 1.562 0.028
v 0.355 1.562 0.028
v 0.355 1.562 0.018
v -0.355 1.562 0.018
v -0.355 2.112 0.028
v 0.355 2.112 0.028
v 0.355 2.112 0.018
v -0.355 2.112 0.018
v 0 1.837 0.028
v 0.355 1.837 0.023
v 0 1.837 0.018
v -0.355 1.837 0.023
v 0 1.562 0.023
v 0 2.112 0.023
vn -0.57735 -0.57735 0.57735
vn 0.57735 -0.57735 0.57735
vn 0.57735 -0.57735 -0.57735
vn -0.57735 -0.57735 -0.57735
vn -0.57735 0.57735 0.57735
vn 0.57735 0.57735 0.57735
vn 0.57735 0.57735 -0.57735
vn -0.57735 0.57735 -0.57735
vn 0 0 1
vn 1 0 0
vn 0 0 -1
vn -1 0 0
vn 0 -1 0
vn 0 1 0
f 2//2 1//1 13//13
f 3//3 2//2 13//13
f 4//4 3//3 13//13
f 1//1 4//4 13//13
f 2//2 3//3 10//10
f 3//3 7//7 10//10
f 7//7 6//6 10//10
f 6//6 2//2 10//10
f 1//1 2//2 9//9
f 2//2 6//6 9//9
f 6//6 5//5 9//9
f 5//5 1//1 9//9
f 4//4 1//1 12//12
f 1//1 5//5 12//12
f 5//5 8//8 12//12
f 8//8 4//4 12//12
f 5//5 6//6 14//14
f 6//6 7//7 14//14
f 7//7 8//8 14//14
f 8//8 5//5 14//14
f 3//3 4//4 11//11
f 4//4 8//8 11//11
f 8//8 7//7 11//11
f 7//7 3//3 11//11
g Tour_Fenetre
usemtl white
v -0.405 0.005 0.139
v 0.405 0.005 0.139
v 0.405 0.005 -0.131
v -0.405 0.005 -0.131
v -0.405 2.215 0.139
v 0.405 2.215 0.139
v 0.405 2.215 -0.131
v -0.405 2.215 -0.131
v 0.405 1.11 0.004
v -0.405 1.11 0.004
v 0 0.005 0.004
v 0 2.215 0.004
v 0.4 0.938 0.139
v -0.4 2.158 0.139
v -0.4 0.938 0.139
v -0.4 0.938 -0.131
v 0.256 2.158 -0.131
v 0.4 0.938 -0.131
v 0.4 2.158 0.139
v -0.4 2.158 -0.131
v 0.4 2.158 -0.131
v 0.4 1.548 -0.003
v -0.4 1.548 -0.003
v 0 0.938 -0.003
v 0 2.158 -0.003
vn -0.48507 -0.48507 0.72761
vn 0.57735 -0.57735 0.57735
vn 0.48507 -0.48507 -0.72761
vn -0.57735 -0.57735 -0.57735
vn -0.48507 0.48507 0.72761
vn 0.40825 0.40825 0.8165
vn 0.40825 0.40825 -0.8165
vn -0.40825 0.40825 -0.8165
vn 1 0 0
vn -1 0 0
vn 0 -1 0
vn 0 1 0
vn -0.55709 0.37139 0.74278
vn 0.4264 -0.6396 0.6396
vn 0.48507 0.48507 0.72761
vn 0.40825 0.40825 -0.8165
vn 0 -0.8 -0.6
vn -0.48507 0.48507 -0.72761
vn -0.26726 -0.80178 0.53452
vn 0.66667 -0.33333 -0.66667
vn -0.80178 -0.26726 -0.53452
vn -1 0 0
vn 1 0 0
vn 0 1 0
vn 0 -1 0
f 16//16 15//15 25//25
f 17//17 16//16 25//25
f 18//18 17//17 25//25
f 15//15 18//18 25//25
f 16//16 17//17 23//23
f 17//17 21//21 23//23
f 21//21 20//20 23//23
f 20//20 16//16 23//23
f 18//18 15//15 24//24
f 15//15 19//19 24//24
f 19//19 22//22 24//24
f 22//22 18//18 24//24
f 19//19 20//20 26//26
f 20//20 21//21 26//26
f 21//21 22//22 26//26
f 22//22 19//19 26//26
f 39//39 28//28 31//31
f 16//16 27//27 15//15
f 28//28 34//34 31//31
f 38//38 29//29 27//27
f 19//19 28//28 20//20
f 15//15 27//27 29//29
f 35//35 33//33 31//31
f 18//18 30//30 17//17
f 27//27 36//36 32//32
f 35//35 31//31 21//21
f 22//22 21//21 31//31
f 21//21 17//17 32//32
f 34//34 37//37 30//30
f 28//28 39//39 33//33
f 16//16 20//20 27//27
f 29//29 28//28 19//19
f 33//33 20//20 28//28
f 39//39 31//31 33//33
f 19//19 15//15 29//29
f 32//32 36//36 35//35
f 28//28 37//37 34//34
f 18//18 22//22 30//30
f 32//32 35//35 21//21
f 35//35 27//27 33//33
f 27//27 32//32 38//38
f 17//17 30//30 32//32
f 29//29 37//37 28//28
f 30//30 37//37 29//29
f 38//38 32//32 30//30
f 20//20 33//33 27//27
f 34//34 30//30 22//22
f 31//31 34//34 22//22
f 30//30 29//29 38//38
f 35//35 36//36 27//27
g Montant_fenetre
v -0.4 0.938 0.051
v 0.4 0.938 0.051
v 0.4 0.938 -0.049
v -0.4 0.938 -0.049
v -0.4 2.158 0.051
v 0.4 2.158 0.051
v 0.4 2.158 -0.049
v -0.4 2.158 -0.049
v 0.4 1.548 0.001
v -0.4 1.548 0.001
v 0 0.938 0.001
v 0 2.158 0.001
v 0.39 0.948 0.051
v 0.39 2.148 0.051
v -0.39 0.948 0.051
v 0.39 0.948 -0.049
v -0.39 0.948 -0.049
v 0.39 0.95115 -0.049
v 0.39 2.148 -0.049
v -0.39 2.148 0.051
v -0.39 2.148 -0.049
v 0.39 1.548 0.001
v -0.39 1.548 0.001
v 0 0.948 0.001
v 0 2.148 0.001
vn -0.48507 -0.48507 0.72761
vn 0.57735 -0.57735 0.57735
vn 0.48507 -0.48507 -0.72761
vn -0.48507 -0.48507 -0.72761
vn -0.40825 0.40825 0.8165
vn 0.48507 0.48507 0.72761
vn 0.48507 0.48507 -0.72761
vn -0.40825 0.40825 -0.8165
vn 1 0 0
vn -1 0 0
vn 0 -1 0
vn 0 1 0
vn -0.55709 0.37139 0.74278
vn -0.6396 -0.4264 0.6396
vn 0.48507 0.48507 0.72761
vn -0.26726 0.53452 -0.80178
vn 0.48507 0.48507 -0.72761
vn -0.8 0 -0.6
vn -0.26726 -0.53452 -0.80178
vn 0.57735 -0.57735 0.57735
vn 0.57735 -0.57735 -0.57735
vn -1 0 0
vn 1 0 0
vn 0 1 0
vn -0 -1 -0
f 41//41 40//40 50//50
f 42//42 41//41 50//50
f 43//43 42//42 50//50
f 40//40 43//43 50//50
f 41//41 42//42 48//48
f 42//42 46//46 48//48
f 46//46 45//45 48//48
f 45//45 41//41 48//48
f 43//43 40//40 49//49
f 40//40 44//44 49//49
f 44//44 47//47 49//49
f 47//47 43//43 49//49
f 44//44 45//45 51//51
f 45//45 46//46 51//51
f 46//46 47//47 51//51
f 47//47 44//44 51//51
f 59//59 64//64 53//53
f 41//41 52//52 40//40
f 56//56 54//54 63//63
f 41//41 45//45 52//52
f 62//62 56//56 60//60
f 45//45 44//44 53//53
f 57//57 58//58 46//46
f 44//44 40//40 54//54
f 53//53 58//58 57//57
f 42//42 43//43 55//55
f 52//52 57//57 55//55
f 43//43 47//47 56//56
f 47//47 46//46 58//58
f 52//52 63//63 54//54
f 46//46 42//42 57//57
f 52//52 55//55 63//63
f 40//40 52//52 54//54
f 45//45 53//53 52//52
f 58//58 64//64 60//60
f 52//52 61//61 57//57
f 44//44 54//54 59//59
f 55//55 43//43 56//56
f 47//47 60//60 56//56
f 55//55 57//57 42//42
f 58//58 53//53 64//64
f 63//63 55//55 56//56
f 61//61 52//52 53//53
f 59//59 62//62 60//60
f 59//59 53//53 44//44
f 58//58 60//60 47//47
f 62//62 54//54 56//56
f 60//60 64//64 59//59
f 61//61 53//53 57//57
f 62//62 59//59 54//54
g Fenetre_1
v -0.39 1.522 0.043
v 0.39 1.522 0.043
v 0.39 1.522 0.003
v -0.39 1.522 0.003
v -0.39 2.152 0.043
v 0.39 2.152 0.043
v 0.39 2.152 0.003
v -0.39 2.152 0.003
v 0.39 1.837 0.023
v -0.39 1.837 0.023
v 0 1.522 0.023
v 0 2.152 0.023
v 0.35 1.562 0.043
v -0.35 2.112 0.043
v -0.35 1.562 0.043
v 0.35 1.562 0.003
v -0.35 1.562 0.003
v 0.35 2.112 0.003
v 0.35 2.112 0.043
v -0.35 2.112 0.003
v 0.35 1.837 0.023
v -0.35 1.837 0.023
v 0 1.562 0.023
v 0 2.112 0.023
vn -0.48507 -0.48507 0.72761
vn 0.57735 -0.57735 0.57735
vn 0.57735 -0.57735 -0.57735
vn -0.48507 -0.48507 -0.72761
vn -0.48507 0.48507 0.72761
vn 0.40825 0.40825 0.8165
vn 0.48507 0.48507 -0.72761
vn -0.40825 0.40825 -0.8165
vn 1 0 0
vn -1 0 0
vn 0 -1 0
vn 0 1 0
vn -0.40825 0.40825 0.8165
vn 0.48507 -0.48507 0.72761
vn 0.48507 0.48507 0.72761
vn -0.40825 0.40825 -0.8165
vn 0.48507 0.48507 -0.72761
vn -0.48507 -0.48507 -0.72761
vn -0.57735 -0.57735 0.57735
vn 0.57735 -0.57735 -0.57735
vn -1 0 0
vn 1 0 0
vn 0 1 0
vn 0 -1 0
f 66//66 65//65 75//75
f 67//67 66//66 75//75
f 68//68 67//67 75//75
f 65//65 68//68 75//75
f 66//66 67//67 73//73
f 67//67 71//71 73//73
f 71//71 70//70 73//73
f 70//70 66//66 73//73
f 68//68 65//65 74//74
f 65//65 69//69 74//74
f 69//69 72//72 74//74
f 72//72 68//68 74//74
f 69//69 70//70 76//76
f 70//70 71//71 76//76
f 71//71 72//72 76//76
f 72//72 69//69 76//76
f 80//80 77//77 85//85
f 66//66 77//77 65//65
f 79//79 87//87 81//81
f 66//66 70//70 77//77
f 80//80 85//85 82//82
f 69//69 78//78 70//70
f 82//82 85//85 83//83
f 69//69 65//65 79//79
f 84//84 86//86 81//81
f 67//67 68//68 80//80
f 68//68 72//72 81//81
f 79//79 86//86 78//78
f 72//72 71//71 82//82
f 71//71 67//67 80//80
f 87//87 80//80 81//81
f 79//79 65//65 77//77
f 78//78 88//88 83//83
f 82//82 88//88 84//84
f 83//83 70//70 78//78
f 79//79 78//78 69//69
f 88//88 82//82 83//83
f 85//85 77//77 83//83
f 80//80 82//82 71//71
f 88//88 78//78 84//84
f 70//70 83//83 77//77
f 87//87 77//77 80//80
f 68//68 81//81 80//80
f 84//84 81//81 72//72
f 78//78 86//86 84//84
f 84//84 72//72 82//82
f 81//81 86//86 79//79
f 77//77 87//87 79//79
g Fenetre_2
v -0.39 0.952 -0.003
v 0.39 0.952 -0.003
v 0.39 0.952 -0.043
v -0.39 0.952 -0.043
v -0.39 1.582 -0.003
v 0.39 1.582 -0.003
v 0.39 1.582 -0.043
v -0.39 1.582 -0.043
v 0.39 1.267 -0.023
v -0.39 1.267 -0.023
v 0 0.952 -0.023
v 0 1.582 -0.023
v 0.35 0.992 -0.003
v -0.35 1.542 -0.003
v -0.35 0.992 -0.003
v 0.35 0.992 -0.043
v -0.35 0.992 -0.043
v 0.35 1.542 -0.043
v 0.35 1.542 -0.003
v -0.35 1.542 -0.043
v 0.35 1.267 -0.023
v -0.35 1.267 -0.023
v 0 0.992 -0.023
v 0 1.542 -0.023
vn -0.48507 -0.48507 0.72761
vn 0.57735 -0.57735 0.57735
vn 0.57735 -0.57735 -0.57735
vn -0.48507 -0.48507 -0.72761
vn -0.48507 0.48507 0.72761
vn 0.40825 0.40825 0.8165
vn 0.48507 0.48507 -0.72761
vn -0.40825 0.40825 -0.8165
vn 1 0 0
vn -1 0 0
vn 0 -1 0
vn 0 1 0
vn -0.40825 0.40825 0.8165
vn 0.48507 -0.48507 0.72761
vn 0.48507 0.48507 0.72761
vn -0.40825 0.40825 -0.8165
vn 0.48507 0.48507 -0.72761
vn -0.48507 -0.48507 -0.72761
vn -0.57735 -0.57735 0.57735
vn 0.57735 -0.57735 -0.57735
vn -1 0 0
vn 1 0 0
vn 0 1 0
vn 0 -1 0
f 90//90 89//89 99//99
f 91//91 90//90 99//99
f 92//92 91//91 99//99
f 89//89 92//92 99//99
f 90//90 91//91 97//97
f 91//91 95//95 97//97
f 95//95 94//94 97//97
f 94//94 90//90 97//97
f 92//92 89//89 98//98
f 89//89 93//93 98//98
f 93//93 96//96 98//98
f 96//96 92//92 98//98
f 93//93 94//94 100//100
f 94//94 95//95 100//100
f 95//95 96//96 100//100
f 96//96 93//93 100//100
f 104//104 101//101 109//109
f 90//90 101//101 89//89
f 103//103 111//111 105//105
f 90//90 94//94 101//101
f 104//104 109//109 106//106
f 93//93 102//102 94//94
f 106//106 109//109 107//107
f 93//93 89//89 103//103
f 108//108 110//110 105//105
f 91//91 92//92 104//104
f 92//92 96//96 105//105
f 103//103 110//110 102//102
f 96//96 95//95 106//106
f 95//95 91//91 104//104
f 111//111 104//104 105//105
f 103//103 89//89 101//101
f 102//102 112//112 107//107
f 106//106 112//112 108//108
f 107//107 94//94 102//102
f 103//103 102//102 93//93
f 112//112 106//106 107//107
f 109//109 101//101 107//107
f 104//104 106//106 95//95
f 112//112 102//102 108//108
f 94//94 107//107 101//101
f 111//111 101//101 104//104
f 92//92 105//105 104//104
f 108//108 105//105 96//96
f 102//102 110//110 108//108
f 108//108 96//96 106//106
f 105//105 110//110 103//103
f 101//101 111//111 103//103
g Vitre_1
usemtl flltgrey
v -0.355 0.992 -0.018
v 0.355 0.992 -0.018
v 0.355 0.992 -0.028
v -0.355 0.992 -0.028
v -0.355 1.542 -0.018
v 0.355 1.542 -0.018
v 0.355 1.542 -0.028
v -0.355 1.542 -0.028
v 0 1.267 -0.018
v 0.355 1.267 -0.023
v 0 1.267 -0.028
v -0.355 1.267 -0.023
v 0 0.992 -0.023
v 0 1.542 -0.023
vn -0.57735 -0.57735 0.57735
vn 0.57735 -0.57735 0.57735
vn 0.57735 -0.57735 -0.57735
vn -0.57735 -0.57735 -0.57735
vn -0.57735 0.57735 0.57735
vn 0.57735 0.57735 0.57735
vn 0.57735 0.57735 -0.57735
vn -0.57735 0.57735 -0.57735
vn 0 0 1
vn 1 0 0
vn 0 0 -1
vn -1 0 0
vn 0 -1 0
vn 0 1 0
f 114//114 113//113 125//125
f 115//115 114//114 125//125
f 116//116 115//115 125//125
f 113//113 116//116 125//125
f 114//114 115//115 122//122
f 115//115 119//119 122//122
f 119//119 118//118 122//122
f 118//118 114//114 122//122
f 113//113 114//114 121//121
f 114//114 118//118 121//121
f 118//118 117//117 121//121
f 117//117 113//113 121//121
f 116//116 113//113 124//124
f 113//113 117//117 124//124
f 117//117 120//120 124//124
f 120//120 116//116 124//124
f 117//117 118//118 126//126
f 118//118 119//119 126//126
f 119//119 120//120 126//126
f 120//120 117//117 126//126
f 115//115 116//116 123//123
f 116//116 120//120 123//123
f 120//120 119//119 123//123
f 119//119 115//115 123//123
