#Produced by Art of Illusion 2.2, Tue May 30 12:03:01 CEST 2006
g Vitre
usemtl flltgrey
v -0.35 0.244 -0.0125
v 0.15 0.244 -0.0125
v 0.15 0.244 -0.0225
v -0.35 0.244 -0.0225
v -0.35 2.084 -0.0125
v 0.15 2.084 -0.0125
v 0.15 2.084 -0.0225
v -0.35 2.084 -0.0225
v -0.1 1.164 -0.0125
v 0.15 1.164 -0.0175
v -0.1 1.164 -0.0225
v -0.35 1.164 -0.0175
v -0.1 0.244 -0.0175
v -0.1 2.084 -0.0175
vn -0.57735 -0.57735 0.57735
vn 0.57735 -0.57735 0.57735
vn 0.57735 -0.57735 -0.57735
vn -0.57735 -0.57735 -0.57735
vn -0.57735 0.57735 0.57735
vn 0.57735 0.57735 0.57735
vn 0.57735 0.57735 -0.57735
vn -0.57735 0.57735 -0.57735
vn 0 0 1
vn 1 0 0
vn 0 0 -1
vn -1 0 0
vn 0 -1 0
vn 0 1 0
f 2//2 1//1 13//13
f 3//3 2//2 13//13
f 4//4 3//3 13//13
f 1//1 4//4 13//13
f 2//2 3//3 10//10
f 3//3 7//7 10//10
f 7//7 6//6 10//10
f 6//6 2//2 10//10
f 1//1 2//2 9//9
f 2//2 6//6 9//9
f 6//6 5//5 9//9
f 5//5 1//1 9//9
f 4//4 1//1 12//12
f 1//1 5//5 12//12
f 5//5 8//8 12//12
f 8//8 4//4 12//12
f 5//5 6//6 14//14
f 6//6 7//7 14//14
f 7//7 8//8 14//14
f 8//8 5//5 14//14
f 3//3 4//4 11//11
f 4//4 8//8 11//11
f 8//8 7//7 11//11
f 7//7 3//3 11//11
g Gond
usemtl white
v -0.43308 2.01433 0.003
v -0.42308 2.01433 0.003
v -0.43308 2.01433 -0.007
v -0.44308 2.01433 0.003
v -0.43308 2.01433 0.013
v -0.42308 2.05433 0.003
v -0.43308 2.05433 -0.007
v -0.44308 2.05433 0.003
v -0.43308 2.05433 0.013
v -0.43308 2.05433 0.003
vn 0 -1 0
vn 0.70711 -0.66667 0.2357
vn 0.2357 -0.66667 -0.70711
vn -0.70711 -0.66667 -0.2357
vn -0.2357 -0.66667 0.70711
vn 0.70711 0.66667 -0.2357
vn -0.2357 0.66667 -0.70711
vn -0.70711 0.66667 0.2357
vn 0.2357 0.66667 0.70711
vn 0 1 0
f 17//17 16//16 15//15
f 18//18 17//17 15//15
f 19//19 18//18 15//15
f 16//16 19//19 15//15
f 20//20 16//16 17//17
f 21//21 17//17 18//18
f 22//22 18//18 19//19
f 23//23 19//19 16//16
f 20//20 17//17 21//21
f 21//21 18//18 22//22
f 22//22 19//19 23//23
f 23//23 16//16 20//20
f 24//24 20//20 21//21
f 24//24 21//21 22//22
f 24//24 22//22 23//23
f 24//24 23//23 20//20
g Gond_1
v -0.433 1.168 0.003
v -0.423 1.168 0.003
v -0.433 1.168 -0.007
v -0.443 1.168 0.003
v -0.433 1.168 0.013
v -0.423 1.208 0.003
v -0.433 1.208 -0.007
v -0.443 1.208 0.003
v -0.433 1.208 0.013
v -0.433 1.208 0.003
vn 0 -1 0
vn 0.70711 -0.66667 0.2357
vn 0.2357 -0.66667 -0.70711
vn -0.70711 -0.66667 -0.2357
vn -0.2357 -0.66667 0.70711
vn 0.70711 0.66667 -0.2357
vn -0.2357 0.66667 -0.70711
vn -0.70711 0.66667 0.2357
vn 0.2357 0.66667 0.70711
vn 0 1 0
f 27//27 26//26 25//25
f 28//28 27//27 25//25
f 29//29 28//28 25//25
f 26//26 29//29 25//25
f 30//30 26//26 27//27
f 31//31 27//27 28//28
f 32//32 28//28 29//29
f 33//33 29//29 26//26
f 30//30 27//27 31//31
f 31//31 28//28 32//32
f 32//32 29//29 33//33
f 33//33 26//26 30//30
f 34//34 30//30 31//31
f 34//34 31//31 32//32
f 34//34 32//32 33//33
f 34//34 33//33 30//30
g Gond_2
v -0.433 0.322 0.003
v -0.423 0.322 0.003
v -0.433 0.322 -0.007
v -0.443 0.322 0.003
v -0.433 0.322 0.013
v -0.423 0.362 0.003
v -0.433 0.362 -0.007
v -0.443 0.362 0.003
v -0.433 0.362 0.013
v -0.433 0.362 0.003
vn 0 -1 0
vn 0.70711 -0.66667 0.2357
vn 0.2357 -0.66667 -0.70711
vn -0.70711 -0.66667 -0.2357
vn -0.2357 -0.66667 0.70711
vn 0.70711 0.66667 -0.2357
vn -0.2357 0.66667 -0.70711
vn -0.70711 0.66667 0.2357
vn 0.2357 0.66667 0.70711
vn 0 1 0
f 37//37 36//36 35//35
f 38//38 37//37 35//35
f 39//39 38//38 35//35
f 36//36 39//39 35//35
f 40//40 36//36 37//37
f 41//41 37//37 38//38
f 42//42 38//38 39//39
f 43//43 39//39 36//36
f 40//40 37//37 41//41
f 41//41 38//38 42//42
f 42//42 39//39 43//43
f 43//43 36//36 40//40
f 44//44 40//40 41//41
f 44//44 41//41 42//42
f 44//44 42//42 43//43
f 44//44 43//43 40//40
g Poignee
v 0.166 1.14744 0.00979
v 0.17683 1.16606 0.00759
v 0.15517 1.16606 0.00759
v 0.166 1.14842 0.03124
v 0.17683 1.16707 0.03322
v 0.15517 1.16707 0.03322
v 0.166 1.14365 0.04594
v 0.17683 1.15152 0.06296
v 0.15517 1.15152 0.06296
v 0.166 1.09625 0.04985
v 0.17683 1.09648 0.0686
v 0.15517 1.09648 0.0686
v 0.166 1.04576 0.04879
v 0.17683 1.04504 0.06753
v 0.15517 1.04504 0.06753
v 0.166 1.15986 0.00833
v 0.166 1.04528 0.06129
vn -0.31614 -0.63674 -0.70329
vn 0.65457 -0.09039 -0.75058
vn -0.3387 0.49461 -0.8004
vn 0.03694 -0.9845 -0.17144
vn 0.87872 0.47726 -0.00868
vn -0.86881 0.43795 0.23102
vn 0.01445 -0.62971 -0.77669
vn 0.87368 0.43535 0.21714
vn -0.85565 -0.01616 0.5173
vn -0.00478 -0.03441 -0.9994
vn 0.86619 0.05093 0.4971
vn -0.86827 -0.00787 0.49602
vn 0.32488 -0.73813 -0.59129
vn 0.32977 -0.77288 0.54213
vn -0.65463 -0.7554 -0.02882
vn -0 -0.11701 -0.99313
vn 0 -0.99928 -0.03799
f 45//45 46//46 48//48
f 46//46 49//49 48//48
f 46//46 47//47 49//49
f 47//47 50//50 49//49
f 47//47 45//45 50//50
f 45//45 48//48 50//50
f 48//48 49//49 51//51
f 49//49 52//52 51//51
f 49//49 50//50 52//52
f 50//50 53//53 52//52
f 50//50 48//48 53//53
f 48//48 51//51 53//53
f 51//51 52//52 54//54
f 52//52 55//55 54//54
f 52//52 53//53 55//55
f 53//53 56//56 55//55
f 53//53 51//51 56//56
f 51//51 54//54 56//56
f 54//54 55//55 57//57
f 55//55 58//58 57//57
f 55//55 56//56 58//58
f 56//56 59//59 58//58
f 56//56 54//54 59//59
f 54//54 57//57 59//59
f 46//46 45//45 60//60
f 47//47 46//46 60//60
f 45//45 47//47 60//60
f 57//57 58//58 61//61
f 58//58 59//59 61//61
f 59//59 57//57 61//61
g Tour_Fenetre
v -0.455 0.005 -0.0045
v 0.865 0.005 -0.0045
v 0.865 0.005 -0.2745
v -0.455 0.005 -0.2745
v -0.455 2.215 -0.0045
v 0.865 2.215 -0.0045
v 0.865 2.215 -0.2745
v -0.455 2.215 -0.2745
v 0.865 1.11 -0.1395
v -0.455 1.11 -0.1395
v 0.205 0.005 -0.1395
v 0.205 2.215 -0.1395
v 0.81 0.168 -0.0045
v 0.81 2.158 -0.0045
v -0.4 0.168 -0.0045
v 0.8625 0.1185 -0.2745
v -0.4525 0.1185 -0.2745
v 0.8625 2.2115 -0.2745
v -0.4 2.158 -0.0045
v -0.4525 2.2115 -0.2745
v -0.4525 0.1185 -0.0955
v 0.8625 0.1185 -0.0955
v -0.4525 2.2115 -0.0955
v 0.8625 2.2115 -0.0955
v 0.8625 1.165 -0.2455
v -0.4525 1.165 -0.2455
v 0.205 0.1185 -0.2455
v 0.205 2.2115 -0.2455
v 0.81 0.168 -0.0955
v 0.81 2.158 -0.0955
v -0.4 0.168 -0.0955
v -0.4 2.158 -0.0955
vn -0.48507 -0.48507 0.72761
vn 0.48507 -0.48507 0.72761
vn 0.57735 -0.57735 -0.57735
vn -0.48507 -0.48507 -0.72761
vn -0.40825 0.40825 0.8165
vn 0.57735 0.57735 0.57735
vn 0.48507 0.48507 -0.72761
vn -0.40825 0.40825 -0.8165
vn 1 0 0
vn -1 0 0
vn 0 -1 0
vn 0 1 0
vn -0.26726 0.53452 0.80178
vn -0.40825 -0.40825 0.8165
vn 0.30151 0.30151 0.90453
vn -0.40825 0.40825 -0.8165
vn 0.48507 0.48507 -0.72761
vn -0.48507 -0.48507 -0.72761
vn 0.66667 -0.33333 0.66667
vn 0.57735 -0.57735 -0.57735
vn 0.48507 0.48507 -0.72761
vn -0.57735 0.57735 -0.57735
vn 0.40825 -0.40825 -0.8165
vn -0.48507 -0.48507 -0.72761
vn -1 0 0
vn 1 0 0
vn 0 1 0
vn 0 -1 0
vn -0.43644 0.21822 -0.87287
vn -0.30151 -0.30151 -0.90453
vn 0.48507 0.48507 -0.72761
vn 0.33333 -0.66667 -0.66667
f 63//63 62//62 72//72
f 64//64 63//63 72//72
f 65//65 64//64 72//72
f 62//62 65//65 72//72
f 63//63 64//64 70//70
f 64//64 68//68 70//70
f 68//68 67//67 70//70
f 67//67 63//63 70//70
f 65//65 62//62 71//71
f 62//62 66//66 71//71
f 66//66 69//69 71//71
f 69//69 65//65 71//71
f 66//66 67//67 73//73
f 67//67 68//68 73//73
f 68//68 69//69 73//73
f 69//69 66//66 73//73
f 79//79 85//85 89//89
f 62//62 63//63 74//74
f 93//93 75//75 80//80
f 63//63 67//67 75//75
f 92//92 76//76 74//74
f 67//67 66//66 75//75
f 62//62 74//74 76//76
f 66//66 62//62 76//76
f 87//87 78//78 81//81
f 64//64 65//65 77//77
f 88//88 77//77 78//78
f 65//65 69//69 78//78
f 86//86 85//85 79//79
f 69//69 68//68 79//79
f 82//82 88//88 78//78
f 68//68 64//64 77//77
f 90//90 74//74 75//75
f 92//92 93//93 80//80
f 63//63 75//75 74//74
f 92//92 80//80 76//76
f 75//75 66//66 80//80
f 90//90 92//92 74//74
f 66//66 76//76 80//80
f 91//91 90//90 75//75
f 75//75 93//93 91//91
f 81//81 89//89 84//84
f 78//78 87//87 82//82
f 88//88 83//83 77//77
f 65//65 78//78 77//77
f 69//69 81//81 78//78
f 89//89 81//81 79//79
f 86//86 79//79 77//77
f 68//68 77//77 79//79
f 79//79 81//81 69//69
f 77//77 83//83 86//86
f 84//84 87//87 81//81
f 82//82 83//83 88//88
f 83//83 85//85 86//86
f 84//84 82//82 87//87
f 85//85 84//84 89//89
f 90//90 83//83 82//82
f 85//85 83//83 90//90
f 84//84 85//85 91//91
f 82//82 84//84 92//92
f 90//90 82//82 92//92
f 91//91 85//85 90//90
f 92//92 84//84 93//93
f 91//91 93//93 84//84
g Fenetre_1
v 0.188 0.164 -0.0175
v 0.242 0.164 -0.0175
v 0.242 0.164 -0.0475
v 0.188 0.164 -0.0475
v 0.188 2.164 -0.0175
v 0.242 2.164 -0.0175
v 0.242 2.164 -0.0475
v 0.188 2.164 -0.0475
v 0.242 1.164 -0.0325
v 0.215 1.164 -0.0475
v 0.215 0.164 -0.0325
v 0.215 2.164 -0.0325
v 0.225 0.164 -0.0175
v 0.225 0.164 -0.0185
v 0.242 0.164 -0.0185
v 0.222 0.164 -0.0475
v 0.242 2.164 -0.0185
v 0.242 2.09733 -0.0185
v 0.242 0.23067 -0.0185
v 0.2221 0.164 -0.0175
v 0.225 1.164 -0.0175
v 0.225 2.164 -0.0175
v 0.225 1.87368 -0.0175
v 0.188 0.164 -0.01839
v 0.188 2.164 -0.01839
v 0.188 2.16116 -0.0475
v 0.225 2.164 -0.0185
v 0.222 2.164 -0.0475
v 0.225 0.164 -0.0475
v 0.225 2.164 -0.0475
v 0.242 0.23067 -0.0475
v 0.2402 0.164 -0.0185
v 0.225 0.79363 -0.0175
v 0.225 1.53437 -0.0175
v 0.2221 2.164 -0.0175
v 0.188 0.164 -0.04724
v 0.188 2.164 -0.04408
v 0.188 2.164 -0.04433
v 0.188 2.127 -0.0475
v 0.2402 2.164 -0.0185
v 0.24133 0.164 -0.0475
v 0.24133 2.164 -0.0475
v 0.242 2.09733 -0.0475
v 0.222 0.90474 -0.0475
v 0.222 0.92202 -0.0475
v 0.188 0.164 -0.04408
v 0.188 0.25657 -0.0475
v 0.188 0.22021 -0.0475
v 0.222 0.89818 -0.0475
v 0.222 0.464 -0.0475
v 0.222 0.23067 -0.0475
v 0.222 1.864 -0.0475
v 0.222 2.09733 -0.0475
v 0.222 1.42982 -0.0475
v 0.222 1.42326 -0.0475
v 0.222 1.40598 -0.0475
v 0.188 2.0901 -0.0475
v 0.188 0.2193 -0.0475
v 0.22267 0.164 -0.0475
v 0.222 0.16856 -0.0475
v 0.222 2.161 -0.0475
v 0.22267 2.164 -0.0475
v 0.188 1.34962 -0.0475
v 0.188 0.201 -0.0475
v 0.22212 0.164 -0.0475
v 0.222 0.167 -0.0475
v 0.222 2.09797 -0.0475
v 0.188 1.34925 -0.0475
v 0.188 0.19965 -0.0475
v 0.222 0.16469 -0.0475
v 0.188 0.19924 -0.0475
v -0.425 0.164 0.0125
v 0.225 0.164 0.0125
v -0.425 0.164 -0.0475
v -0.425 2.164 0.0125
v 0.225 2.164 0.0125
v -0.425 2.164 -0.0475
v -0.425 1.164 -0.0175
v -0.1 0.164 -0.0175
v -0.1 2.164 -0.0175
v 0.14 0.249 0.0125
v 0.14 2.079 0.0125
v -0.34 0.249 0.0125
v 0.14 0.249 -0.0475
v -0.34 2.079 -0.0475
v 0.14 0.29313 -0.0475
v 0.14 2.079 -0.0475
v -0.34 2.079 0.0125
v -0.34 0.249 -0.0475
v 0.14 1.164 -0.0175
v -0.34 1.164 -0.0175
v -0.1 0.249 -0.0175
v -0.1 2.079 -0.0175
v 0.242 0.164 -0.0485
v 0.222 0.164 -0.0485
v 0.242 2.164 -0.0485
v 0.222 2.164 -0.0485
v 0.232 1.164 -0.0485
vn 0 -1 0
vn 0.57735 -0.57735 0.57735
vn 0.70711 -0.70711 0
vn 0 -0.6 -0.8
vn 0 1 0
vn 0.37139 0.55709 0.74278
vn 0.8 0.6 0
vn 0 0.8 -0.6
vn 1 0 0
vn 0 0 -1
vn 0 -1 0
vn 0 1 0
vn 0.30151 -0.90453 0.30151
vn 0 -1 0
vn 0.70711 -0.70711 0
vn -0.26726 -0.80178 -0.53452
vn 0.5547 0.83205 0
vn 1 0 0
vn 1 0 0
vn 0 -1 0
vn 0.70711 0 0.70711
vn 0.30151 0.90453 0.30151
vn 0.70711 0 0.70711
vn 0 -1 0
vn 0 1 0
vn 0 0 -1
vn 0 1 0
vn -0.26726 0.80178 -0.53452
vn 0 -1 0
vn 0 1 0
vn 1 0 0
vn 0 -1 0
vn 0.70711 0 0.70711
vn 0.70711 0 0.70711
vn 0 1 0
vn 0 -1 0
vn 0 1 0
vn 0 1 0
vn 0 0 -1
vn 0 1 0
vn 0 -1 0
vn 0 1 0
vn 1 0 0
vn -0.70711 0 -0.70711
vn -0.70711 0 -0.70711
vn 0 -1 0
vn 0 0 -1
vn 0 0 -1
vn -0.70711 0 -0.70711
vn -0.70711 0 -0.70711
vn -0.70711 0 -0.70711
vn -0.70711 0 -0.70711
vn -0.83205 0 -0.5547
vn -0.70711 0 -0.70711
vn -0.70711 0 -0.70711
vn -0.70711 0 -0.70711
vn 0 0 -1
vn 0 0 -1
vn 0 -1 0
vn -0.70711 0 -0.70711
vn -0.70711 0 -0.70711
vn 0 1 0
vn 0 0 -1
vn 0 0 -1
vn 0 -1 0
vn -0.70711 0 -0.70711
vn -0.70711 0 -0.70711
vn 0 0 -1
vn 0 0 -1
vn -0.70711 0 -0.70711
vn 0 0 -1
vn -0.48507 -0.48507 0.72761
vn 0.55709 -0.74278 0.37139
vn -0.33333 -0.66667 -0.66667
vn -0.40825 0.40825 0.8165
vn 0.6247 0.6247 0.46852
vn -0.34816 0.34816 -0.87039
vn -1 0 0
vn 0 -1 0
vn 0 1 0
vn -0.55709 0.37139 0.74278
vn -0.6396 -0.4264 0.6396
vn 0.6396 0.4264 0.6396
vn -0.15617 0.31235 -0.93704
vn 0.6396 -0.4264 -0.6396
vn -0.49614 0 -0.86824
vn -0.18257 -0.36515 -0.91287
vn 0.57735 -0.57735 0.57735
vn 0.33333 0.66667 -0.66667
vn -1 0 0
vn 1 0 0
vn 0 1 0
vn 0 -1 0
vn 0.48507 -0.72761 -0.48507
vn -0.95258 -0.27217 -0.13608
vn 0.6396 0.6396 -0.4264
vn -0.74278 0.55709 -0.37139
vn 0 0 -1
f 94//94 97//97 104//104
f 96//96 100//100 102//102
f 101//101 98//98 105//105
f 97//97 101//101 103//103
f 95//95 106//106 107//107
f 106//106 94//94 107//107
f 94//94 104//104 107//107
f 96//96 108//108 104//104
f 97//97 109//109 104//104
f 109//109 96//96 104//104
f 108//108 96//96 102//102
f 100//100 110//110 111//111
f 100//100 111//111 102//102
f 110//110 99//99 111//111
f 95//95 112//112 111//111
f 95//95 111//111 99//99
f 112//112 102//102 111//111
f 95//95 99//99 114//114
f 99//99 115//115 116//116
f 98//98 115//115 120//120
f 115//115 99//99 120//120
f 105//105 98//98 120//120
f 110//110 100//100 105//105
f 100//100 121//121 105//105
f 121//121 101//101 105//105
f 104//104 125//125 107//107
f 125//125 95//95 107//107
f 95//95 125//125 108//108
f 125//125 104//104 108//108
f 102//102 112//112 108//108
f 112//112 95//95 108//108
f 95//95 126//126 106//106
f 99//99 127//127 114//114
f 126//126 95//95 114//114
f 127//127 99//99 116//116
f 99//99 133//133 120//120
f 133//133 105//105 120//120
f 105//105 133//133 110//110
f 133//133 99//99 110//110
f 109//109 97//97 103//103
f 101//101 121//121 103//103
f 137//137 103//103 138//138
f 142//142 103//103 137//137
f 143//143 103//103 142//142
f 103//103 143//143 144//144
f 145//145 103//103 146//146
f 147//147 103//103 145//145
f 148//148 103//103 147//147
f 149//149 103//103 148//148
f 138//138 103//103 149//149
f 144//144 153//153 103//103
f 121//121 154//154 103//103
f 153//153 159//159 103//103
f 154//154 160//160 103//103
f 160//160 146//146 103//103
f 159//159 163//163 103//103
f 163//163 109//109 103//103
f 166//166 165//165 172//172
f 165//165 167//167 172//172
f 169//169 166//166 114//114
f 167//167 165//165 171//171
f 165//165 168//168 171//171
f 168//168 170//170 171//171
f 170//170 167//167 171//171
f 168//168 169//169 173//173
f 170//170 168//168 173//173
f 178//178 186//186 181//181
f 166//166 174//174 165//165
f 174//174 183//183 179//179
f 166//166 169//169 174//174
f 174//174 177//177 185//185
f 169//169 168//168 175//175
f 180//180 175//175 186//186
f 168//168 165//165 176//176
f 174//174 179//179 177//177
f 178//178 182//182 167//167
f 167//167 170//170 178//178
f 186//186 175//175 181//181
f 182//182 176//176 185//185
f 165//165 174//174 176//176
f 169//169 175//175 174//174
f 180//180 186//186 178//178
f 176//176 182//182 178//178
f 168//168 176//176 181//181
f 177//177 167//167 182//182
f 175//175 180//180 179//179
f 174//174 185//185 176//176
f 185//185 177//177 182//182
f 183//183 175//175 179//179
f 181//181 175//175 168//168
f 180//180 178//178 170//170
f 181//181 184//184 178//178
f 183//183 174//174 175//175
f 184//184 176//176 178//178
f 184//184 181//181 176//176
f 187//187 188//188 191//191
f 188//188 190//190 191//191
f 190//190 189//189 191//191
f 189//189 187//187 191//191
f 188//188 187//187 122//122
f 188//188 146//146 190//190
f 189//189 190//190 123//123
f 155//155 190//190 121//121
f 152//152 188//188 122//122
f 158//158 188//188 152//152
f 109//109 188//188 158//158
f 144//144 188//188 153//153
f 121//121 190//190 154//154
f 190//190 155//155 123//123
f 159//159 153//153 188//188
f 154//154 190//190 160//160
f 109//109 163//163 188//188
f 163//163 159//159 188//188
f 190//190 146//146 160//160
f 106//106 166//166 113//113
f 166//166 172//172 94//94
f 167//167 129//129 139//139
f 167//167 139//139 172//172
f 115//115 169//169 116//116
f 169//169 114//114 127//127
f 128//128 169//169 115//115
f 173//173 169//169 98//98
f 131//131 173//173 130//130
f 101//101 170//170 173//173
f 170//170 119//119 132//132
f 170//170 132//132 180//180
f 141//141 179//179 140//140
f 151//151 179//179 141//141
f 179//179 151//151 157//157
f 179//179 157//157 177//177
f 150//150 180//180 132//132
f 180//180 150//150 156//156
f 180//180 156//156 179//179
f 117//117 172//172 139//139
f 130//130 173//173 118//118
f 162//162 177//177 157//157
f 97//97 167//167 177//177
f 161//161 179//179 156//156
f 140//140 179//179 161//161
f 164//164 177//177 162//162
f 189//189 136//136 124//124
f 189//189 124//124 187//187
f 187//187 134//134 122//122
f 137//137 138//138 188//188
f 135//135 189//189 123//123
f 172//172 117//117 94//94
f 113//113 166//166 94//94
f 129//129 167//167 97//97
f 106//106 126//126 166//166
f 126//126 114//114 166//166
f 116//116 169//169 127//127
f 169//169 128//128 98//98
f 118//118 173//173 98//98
f 173//173 131//131 101//101
f 119//119 170//170 101//101
f 177//177 164//164 97//97
f 134//134 187//187 96//96
f 187//187 124//124 96//96
f 136//136 189//189 100//100
f 189//189 135//135 100//100
f 142//142 137//137 188//188
f 145//145 146//146 188//188
f 144//144 143//143 188//188
f 143//143 142//142 188//188
f 147//147 145//145 188//188
f 148//148 147//147 188//188
f 138//138 149//149 188//188
f 149//149 148//148 188//188
g Vitre_1
usemtl flltgrey
v 0.265 0.244 -0.0125
v 0.745 0.244 -0.0125
v 0.745 0.244 -0.0225
v 0.265 0.244 -0.0225
v 0.265 2.084 -0.0125
v 0.745 2.084 -0.0125
v 0.745 2.084 -0.0225
v 0.265 2.084 -0.0225
v 0.505 1.164 -0.0125
v 0.745 1.164 -0.0175
v 0.505 1.164 -0.0225
v 0.265 1.164 -0.0175
v 0.505 0.244 -0.0175
v 0.505 2.084 -0.0175
vn -0.57735 -0.57735 0.57735
vn 0.57735 -0.57735 0.57735
vn 0.57735 -0.57735 -0.57735
vn -0.57735 -0.57735 -0.57735
vn -0.57735 0.57735 0.57735
vn 0.57735 0.57735 0.57735
vn 0.57735 0.57735 -0.57735
vn -0.57735 0.57735 -0.57735
vn 0 0 1
vn 1 0 0
vn 0 0 -1
vn -1 0 0
vn 0 -1 0
vn 0 1 0
f 193//193 192//192 204//204
f 194//194 193//193 204//204
f 195//195 194//194 204//204
f 192//192 195//195 204//204
f 193//193 194//194 201//201
f 194//194 198//198 201//201
f 198//198 197//197 201//201
f 197//197 193//193 201//201
f 192//192 193//193 200//200
f 193//193 197//197 200//200
f 197//197 196//196 200//200
f 196//196 192//192 200//200
f 195//195 192//192 203//203
f 192//192 196//196 203//203
f 196//196 199//199 203//203
f 199//199 195//195 203//203
f 196//196 197//197 205//205
f 197//197 198//198 205//205
f 198//198 199//199 205//205
f 199//199 196//196 205//205
f 194//194 195//195 202//202
f 195//195 199//199 202//202
f 199//199 198//198 202//202
f 198//198 194//194 202//202
g Fenetre_2
usemtl white
v 0.23 0.164 0.0125
v 0.835 0.164 0.0125
v 0.835 0.164 -0.0475
v 0.23 0.164 -0.0475
v 0.23 2.164 0.0125
v 0.835 2.164 0.0125
v 0.835 2.164 -0.0475
v 0.23 2.164 -0.0475
v 0.835 1.164 -0.0175
v 0.23 1.164 -0.0175
v 0.5325 0.164 -0.0175
v 0.5325 2.164 -0.0175
v 0.74 0.249 0.0125
v 0.74 2.079 0.0125
v 0.29323 0.249 0.0125
v 0.74 0.249 -0.0475
v 0.29323 0.249 -0.0475
v 0.74 0.30626 -0.0475
v 0.74 2.079 -0.0475
v 0.29323 2.079 0.0125
v 0.29323 2.079 -0.0475
v 0.74 1.164 -0.0175
v 0.29323 1.164 -0.0175
v 0.51662 0.249 -0.0175
v 0.51662 2.079 -0.0175
vn -0.48507 -0.48507 0.72761
vn 0.57735 -0.57735 0.57735
vn 0.48507 -0.48507 -0.72761
vn -0.48507 -0.48507 -0.72761
vn -0.40825 0.40825 0.8165
vn 0.48507 0.48507 0.72761
vn 0.48507 0.48507 -0.72761
vn -0.40825 0.40825 -0.8165
vn 1 0 0
vn -1 0 0
vn 0 -1 0
vn 0 1 0
vn -0.55709 0.37139 0.74278
vn -0.6396 -0.4264 0.6396
vn 0.48507 0.48507 0.72761
vn -0.26726 0.53452 -0.80178
vn 0.48507 0.48507 -0.72761
vn -0.8 0 -0.6
vn -0.26726 -0.53452 -0.80178
vn 0.57735 -0.57735 0.57735
vn 0.57735 -0.57735 -0.57735
vn -1 0 0
vn 1 0 0
vn 0 1 0
vn -0 -1 -0
f 207//207 206//206 216//216
f 208//208 207//207 216//216
f 209//209 208//208 216//216
f 206//206 209//209 216//216
f 207//207 208//208 214//214
f 208//208 212//212 214//214
f 212//212 211//211 214//214
f 211//211 207//207 214//214
f 209//209 206//206 215//215
f 206//206 210//210 215//215
f 210//210 213//213 215//215
f 213//213 209//209 215//215
f 210//210 211//211 217//217
f 211//211 212//212 217//217
f 212//212 213//213 217//217
f 213//213 210//210 217//217
f 224//224 219//219 230//230
f 207//207 218//218 206//206
f 222//222 220//220 229//229
f 207//207 211//211 218//218
f 229//229 221//221 222//222
f 211//211 210//210 219//219
f 223//223 224//224 212//212
f 210//210 206//206 220//220
f 219//219 224//224 223//223
f 208//208 209//209 221//221
f 218//218 223//223 221//221
f 209//209 213//213 222//222
f 213//213 212//212 224//224
f 218//218 227//227 223//223
f 212//212 208//208 223//223
f 218//218 221//221 229//229
f 206//206 218//218 220//220
f 211//211 219//219 218//218
f 224//224 230//230 226//226
f 226//226 230//230 225//225
f 210//210 220//220 225//225
f 221//221 209//209 222//222
f 213//213 226//226 222//222
f 228//228 222//222 226//226
f 224//224 226//226 213//213
f 221//221 223//223 208//208
f 227//227 218//218 219//219
f 225//225 228//228 226//226
f 225//225 219//219 210//210
f 228//228 225//225 220//220
f 228//228 220//220 222//222
f 225//225 230//230 219//219
f 227//227 219//219 223//223
f 218//218 229//229 220//220
g Gond_3
v 0.8425 0.322 0.003
v 0.8525 0.322 0.003
v 0.8425 0.322 -0.007
v 0.8325 0.322 0.003
v 0.8425 0.322 0.013
v 0.8525 0.362 0.003
v 0.8425 0.362 -0.007
v 0.8325 0.362 0.003
v 0.8425 0.362 0.013
v 0.8425 0.362 0.003
vn 0 -1 0
vn 0.70711 -0.66667 0.2357
vn 0.2357 -0.66667 -0.70711
vn -0.70711 -0.66667 -0.2357
vn -0.2357 -0.66667 0.70711
vn 0.70711 0.66667 -0.2357
vn -0.2357 0.66667 -0.70711
vn -0.70711 0.66667 0.2357
vn 0.2357 0.66667 0.70711
vn 0 1 0
f 233//233 232//232 231//231
f 234//234 233//233 231//231
f 235//235 234//234 231//231
f 232//232 235//235 231//231
f 236//236 232//232 233//233
f 237//237 233//233 234//234
f 238//238 234//234 235//235
f 239//239 235//235 232//232
f 236//236 233//233 237//237
f 237//237 234//234 238//238
f 238//238 235//235 239//239
f 239//239 232//232 236//236
f 240//240 236//236 237//237
f 240//240 237//237 238//238
f 240//240 238//238 239//239
f 240//240 239//239 236//236
g Gond_4
v 0.8425 1.168 0.003
v 0.8525 1.168 0.003
v 0.8425 1.168 -0.007
v 0.8325 1.168 0.003
v 0.8425 1.168 0.013
v 0.8525 1.208 0.003
v 0.8425 1.208 -0.007
v 0.8325 1.208 0.003
v 0.8425 1.208 0.013
v 0.8425 1.208 0.003
vn 0 -1 0
vn 0.70711 -0.66667 0.2357
vn 0.2357 -0.66667 -0.70711
vn -0.70711 -0.66667 -0.2357
vn -0.2357 -0.66667 0.70711
vn 0.70711 0.66667 -0.2357
vn -0.2357 0.66667 -0.70711
vn -0.70711 0.66667 0.2357
vn 0.2357 0.66667 0.70711
vn 0 1 0
f 243//243 242//242 241//241
f 244//244 243//243 241//241
f 245//245 244//244 241//241
f 242//242 245//245 241//241
f 246//246 242//242 243//243
f 247//247 243//243 244//244
f 248//248 244//244 245//245
f 249//249 245//245 242//242
f 246//246 243//243 247//247
f 247//247 244//244 248//248
f 248//248 245//245 249//249
f 249//249 242//242 246//246
f 250//250 246//246 247//247
f 250//250 247//247 248//248
f 250//250 248//248 249//249
f 250//250 249//249 246//246
g Gond_5
v 0.84242 2.01433 0.003
v 0.85242 2.01433 0.003
v 0.84242 2.01433 -0.007
v 0.83242 2.01433 0.003
v 0.84242 2.01433 0.013
v 0.85242 2.05433 0.003
v 0.84242 2.05433 -0.007
v 0.83242 2.05433 0.003
v 0.84242 2.05433 0.013
v 0.84242 2.05433 0.003
vn 0 -1 0
vn 0.70711 -0.66667 0.2357
vn 0.2357 -0.66667 -0.70711
vn -0.70711 -0.66667 -0.2357
vn -0.2357 -0.66667 0.70711
vn 0.70711 0.66667 -0.2357
vn -0.2357 0.66667 -0.70711
vn -0.70711 0.66667 0.2357
vn 0.2357 0.66667 0.70711
vn 0 1 0
f 253//253 252//252 251//251
f 254//254 253//253 251//251
f 255//255 254//254 251//251
f 252//252 255//255 251//251
f 256//256 252//252 253//253
f 257//257 253//253 254//254
f 258//258 254//254 255//255
f 259//259 255//255 252//252
f 256//256 253//253 257//257
f 257//257 254//254 258//258
f 258//258 255//255 259//259
f 259//259 252//252 256//256
f 260//260 256//256 257//257
f 260//260 257//257 258//258
f 260//260 258//258 259//259
f 260//260 259//259 256//256
