#Produced by Art of Illusion 2.8.1, Tue Nov 16 13:24:21 CET 2010
#
# Copyright (c) 2006-2010 Emmanuel PUYBARET / eTeks <info@eteks.com>. All Rights Reserved.
#
# This program is free software; you can redistribute it and/or modify it under
# the terms of the GNU General Public License as published by the Free Software
# Foundation, and available at http://www.gnu.org/copyleft/gpl.txt
g Corps
usemtl white
v -0.18069 0.00437 -0.00143
v -0.17583 0.00112 -0.03158
v -0.18069 0.00437 -0.03158
v -0.17023 0 -0.00143
v -0.17583 0.00112 -0.00143
v -0.18394 0.00924 -0.03158
v -0.17023 -0 -0.03158
v -0.185 0.01454 -0.03158
v -0.18394 0.00924 -0.00143
v -0.185 0.01454 -0.00143
v -0.17581 0.44897 -0.03158
v -0.18393 0.44085 -0.03158
v -0.185 0.43548 -0.03158
v -0.18068 0.44571 -0.03158
v -0.17581 0.44897 -0.00143
v -0.17061 0.45 -0.03158
v -0.18068 0.44571 -0.00143
v -0.18393 0.44085 -0.00143
v -0.185 0.43548 -0.00143
v -0.17061 0.45 -0.00143
v 0.17574 0.44897 -0.00143
v 0.18061 0.44571 -0.03158
v 0.18386 0.44085 -0.03158
v 0.185 0.43525 -0.03158
v 0.185 0.43525 -0.00143
v 0.18386 0.44085 -0.00143
v 0.17054 0.45 -0.00143
v 0.17574 0.44897 -0.03158
v 0.18061 0.44571 -0.00143
v 0.17054 0.45 -0.03158
v 0.18061 0.0043 -0.03158
v 0.17574 0.00105 -0.03158
v 0.18386 0.00917 -0.03158
v 0.18386 0.00917 -0.00143
v 0.185 0.01477 -0.00143
v 0.17048 0 -0.00143
v 0.17574 0.00105 -0.00143
v 0.18061 0.0043 -0.00143
v 0.185 0.01477 -0.03158
v 0.17048 -0 -0.03158
v 0 0.225 -0.00143
v 0 0.225 -0.08143
v 0.15004 0.03496 -0.08143
v -0.15004 0.03496 -0.08143
v -0.15004 0.41505 -0.08143
v 0.15004 0.41505 -0.08143
v 0.16525 0.02115 -0.03158
v -0.16393 0.02115 -0.03158
v 0.16525 0.02872 -0.03158
v 0.16525 0.42317 -0.03158
v 0.16525 0.43074 -0.03158
v -0.16393 0.42317 -0.03158
v -0.16393 0.02872 -0.03158
v -0.16393 0.43074 -0.03158
v 0.1573 0.225 -0.05658
v -0.15663 0.225 -0.05658
v 0 0.02808 -0.05658
v 0 0.42316 -0.05658
v 0.18 0.32499 -0.00143
v -0.18 0.32499 -0.00143
v -0.18 0.42999 -0.00143
v 0.18 0.42999 -0.00143
v 0.18 0.32499 -0.0186
v -0.18 0.32499 -0.0186
v 0.18 0.42999 -0.0186
v -0.18 0.42999 -0.0186
v 0.18 0.37749 -0.0086
v 0 0.37749 -0.0186
v -0.18 0.37749 -0.0086
v 0 0.32499 -0.0086
v 0 0.42999 -0.0086
vn -0 0 1
vn 0 0 1
vn -0.70711 -0.70711 -0
vn -0.38293 -0.92378 -0
vn 0 0 -1
vn -0.70711 -0.70711 -0
vn 0 0 -1
vn 0 0 -1
vn -0 -0 1
vn 0 -1 0
vn -0.19561 -0.98068 0
vn -0.38293 -0.92378 -0
vn -0 -0 1
vn -0.92388 -0.38268 -0
vn 0 0 -1
vn -0.19561 -0.98068 -0
vn 0 0 -1
vn 0 -1 0
vn -0.99518 -0.09802 -0
vn 0 0 -1
vn -0 0 1
vn -0.92388 -0.38268 -0
vn 0 0 1
vn -0.99518 -0.09802 -0
vn 0 0 -1
vn -0.38268 0.92388 -0
vn 0 0 -1
vn -0.92388 0.38268 -0
vn 0 0 -1
vn -0.98079 0.19509 -0
vn 0 0 -1
vn -1 -0 -0
vn -0.70711 0.70711 -0
vn 0 0 -1
vn -0.38268 0.92388 -0
vn 0 0 1
vn -0.09802 0.99518 -0
vn 0 0 -1
vn -0.70711 0.70711 -0
vn -0 -0 1
vn -0 -0 1
vn -0.92388 0.38268 -0
vn -0 -0 1
vn 0 0 1
vn -0.98079 0.19509 -0
vn -1 -0 -0
vn 0 -0 1
vn -0.09802 0.99518 -0
vn 0.38268 0.92388 0
vn -0 -0 1
vn 0.70711 0.70711 -0
vn -0 0 -1
vn -0 0 -1
vn 0 -0 -1
vn 0.92306 0.38465 0
vn 1 0 0
vn 0.97995 0.19926 0
vn 0 -0 -1
vn 0 0 1
vn 0.97995 0.19926 0
vn 1 0 0
vn 1 0 0
vn -0 0 1
vn 0.92306 0.38465 0
vn 0.19509 0.98079 -0
vn -0 1 -0
vn -0 -0 1
vn -0 0 -1
vn 0.38268 0.92388 -0
vn -0 0 1
vn 0.70711 0.70711 0
vn 0 -0 1
vn -0 -0 -1
vn 0 1 -0
vn 0.19509 0.98079 -0
vn 0 0 -1
vn 0.70711 -0.70711 0
vn 0.38268 -0.92388 0
vn 0 0 -1
vn 0.92306 -0.38465 0
vn -0 -0 -1
vn 0 0 -1
vn 0.92306 -0.38465 0
vn 0 0 1
vn 0 0 1
vn 0 0 1
vn 0.97995 -0.19926 0
vn 1 0 0
vn 0 -1 0
vn 0.19509 -0.98079 0
vn 0 -0 1
vn 0.38268 -0.92388 0
vn 0 -0 1
vn 0 0 1
vn 0.70711 -0.70711 0
vn 1 0 0
vn 1 0 0
vn 0.97995 -0.19926 0
vn -0 0 -1
vn 0 -1 0
vn 0.19509 -0.98079 -0
vn 0 0 -1
vn -0 0 1
vn 0 0 1
vn -0 0 1
vn 0 0 -1
vn -0 0 -1
vn 0 -0 -1
vn 0.9566 0.00161 -0.29139
vn 0.95998 -0 -0.28006
vn -0 0 -1
vn 0 0 -1
vn -0 -0.96372 -0.2669
vn -0 -0.96372 -0.2669
vn -0.96658 -0 -0.25635
vn -0.96344 0.00162 -0.26792
vn 0 -0.96372 -0.2669
vn 0 0 -1
vn 0 0 -1
vn -0.96346 -0.00161 -0.26786
vn -0.96658 -0 -0.25635
vn 0 -0 -1
vn 0 0.95063 -0.31031
vn -0.00177 0.95374 -0.30064
vn 0.00176 0.95372 -0.30068
vn 0 0.95063 -0.31031
vn 0 -0 -1
vn -0 0 -1
vn 0.95998 -0 -0.28006
vn 0.95662 -0.0016 -0.29134
vn 0.9566 0.00161 -0.29139
vn -0 -0.96372 -0.2669
vn 0 -0.96372 -0.2669
vn 0 0 -1
vn 0.95288 0 -0.30334
vn -0.95996 0 -0.28013
vn -0.96344 0.00162 -0.26792
vn 0 -0.96372 -0.2669
vn 0 -0.96372 -0.2669
vn 0 0 -1
vn 0.95288 0 -0.30334
vn 0 -0 -1
vn 0 0 -1
vn 0.95288 0 -0.30334
vn 0 -0 -1
vn -0 0 -1
vn 0.95288 0 -0.30334
vn 0.95662 -0.0016 -0.29134
vn 0.00176 0.95372 -0.30068
vn 0 0.95702 -0.29002
vn -0 0 -1
vn 0 0 -1
vn -0.95996 0 -0.28013
vn 0 0 -1
vn 0 0 -1
vn -0.95996 0 -0.28013
vn 0 0 -1
vn -0.96346 -0.00161 -0.26786
vn -0.00177 0.95374 -0.30064
vn 0 0.95702 -0.29002
vn 0 0 -1
vn -0.95996 0 -0.28013
vn 0.9566 0.00161 -0.29139
vn 0.95998 -0 -0.28006
vn 0.95662 -0.0016 -0.29134
vn 0.95288 0 -0.30334
vn -0.95996 0 -0.28013
vn -0.96346 -0.00161 -0.26786
vn -0.96658 -0 -0.25635
vn -0.96344 0.00162 -0.26792
vn 0 -0.96372 -0.2669
vn -0 -0.96372 -0.2669
vn -0 -0.96372 -0.2669
vn 0.00176 0.95372 -0.30068
vn 0 0.95063 -0.31031
vn -0.00177 0.95374 -0.30064
vn 0 0.95702 -0.29002
vn 0 1 0
vn -1 0 0
vn -1 0 0
vn 0 0 1
vn -0 0 1
vn 0 1 0
vn 0 1 0
vn 0 1 0
vn 1 0 0
vn 1 0 0
vn -0 0 1
vn 0 -1 0
vn 1 0 0
vn 1 0 0
vn 0 -0 1
vn -0 -0 1
vn 0 -1 0
vn 0 -1 0
vn 0 -1 0
vn 0 0 1
vn -0 0 1
vn -1 0 0
vn 0 0 1
vn -1 0 0
vn -1 0 0
vn 0 1 0
vn 0 1 0
vn 0 0 1
vn 0 0 1
vn 0 0 1
vn 0 1 0
vn 0 1 0
vn 1 0 0
vn 1 0 0
vn 0 -1 0
vn -1 0 0
vn -1 0 0
vn 0 0 1
vn 0 0 1
vn 0 -1 0
vn 1 0 0
vn 0 -1 0
vn 0 -1 0
vn 0 0 1
vn 0 0 1
vn 1 0 0
vn -1 0 0
vn -1 0 0
vn -1 0 0
vn 0 0 1
vn 0 0 1
vn 0 0 1
vn 0 0 1
vn 1 0 0
vn 1 0 0
vn 1 0 0
vn 1 0 0
vn 0 1 0
vn 0 1 0
vn 0 1 0
vn 0 1 0
vn 0 -1 0
vn 0 -1 0
vn 0 -1 0
vn 0 -1 0
f 18//43 19//44 10//23
f 52//154 3//8 6//15
f 3//6 1//3 6//14
f 5//13 41//103 1//2
f 1//3 3//6 2//4
f 3//7 48//140 2//5
f 37//93 5//13 4//9
f 2//4 5//12 1//3
f 8//20 52//154 6//15
f 7//16 4//11 5//12
f 36//89 4//10 7//18
f 13//32 10//24 19//46
f 10//24 13//32 8//19
f 48//136 53//156 56//167
f 52//154 8//20 13//31
f 52//154 53//155 3//8
f 45//120 56//168 54//158
f 48//140 7//17 2//5
f 48//140 40//102 7//17
f 5//12 2//4 7//16
f 6//14 9//22 10//24
f 8//19 6//14 10//24
f 9//22 6//14 1//3
f 37//93 41//103 5//13
f 43//109 55//163 47//131
f 36//89 7//18 40//100
f 55//164 43//110 46//129
f 56//169 45//121 44//115
f 47//134 33//82 31//76
f 18//43 10//23 9//21
f 36//90 40//101 32//78
f 36//91 37//93 4//9
f 1//1 41//105 9//21
f 53//157 48//140 3//7
f 52//153 54//162 56//167
f 51//151 16//38 22//52
f 47//133 48//139 57//171
f 46//125 58//174 51//149
f 54//161 14//34 11//25
f 52//152 12//27 14//34
f 17//41 29//72 15//36
f 51//147 50//144 55//166
f 15//35 11//26 17//39
f 17//39 11//26 14//33
f 21//50 15//36 29//72
f 45//124 54//159 58//176
f 22//52 16//38 28//68
f 28//68 16//38 30//73
f 18//42 12//28 13//30
f 16//37 15//35 20//48
f 49//141 47//135 55//166
f 17//39 14//33 12//28
f 12//28 18//42 17//39
f 51//151 54//161 11//25
f 13//30 19//45 18//42
f 51//151 11//25 16//38
f 30//74 20//48 27//66
f 21//50 27//67 15//36
f 54//161 52//152 14//34
f 15//35 16//37 11//26
f 52//154 13//31 12//29
f 27//67 20//47 15//36
f 30//74 16//37 20//48
f 46//130 51//148 55//165
f 21//49 22//51 28//69
f 25//61 39//96 24//56
f 35//86 25//59 34//85
f 26//64 23//55 29//71
f 29//71 23//55 22//51
f 42//108 44//119 45//122
f 42//108 45//122 46//127
f 49//142 24//58 33//81
f 29//71 22//51 21//49
f 23//53 50//146 22//52
f 27//65 21//49 30//75
f 23//55 26//64 24//57
f 24//57 26//64 25//60
f 43//114 47//132 57//173
f 39//97 25//62 35//88
f 49//142 50//145 24//58
f 42//106 43//112 44//118
f 24//58 50//145 23//54
f 42//107 46//128 43//111
f 44//116 48//137 56//170
f 50//146 51//151 22//52
f 21//49 28//69 30//75
f 39//99 33//81 24//58
f 41//103 37//93 38//94
f 37//92 32//78 31//77
f 32//79 47//134 31//76
f 38//95 31//77 33//80
f 53//156 52//153 56//167
f 39//98 35//87 33//80
f 33//80 35//87 34//83
f 58//175 46//126 45//123
f 37//92 31//77 38//95
f 48//140 47//134 32//79
f 54//160 51//150 58//177
f 43//113 57//172 44//117
f 50//144 49//141 55//166
f 38//95 33//80 34//83
f 49//143 33//82 47//134
f 41//103 38//94 34//84
f 44//117 57//172 48//138
f 48//140 32//79 40//102
f 32//78 37//92 36//90
f 41//105 59//182 60//188
f 9//21 41//105 60//188
f 59//178 63//203 70//235
f 63//200 65//215 68//227
f 61//189 66//219 71//239
f 61//190 69//231 66//218
f 41//104 34//85 59//181
f 71//241 65//212 62//195
f 66//222 64//206 68//229
f 18//43 9//21 60//188
f 65//214 63//201 67//224
f 70//238 60//184 59//183
f 17//41 61//193 62//197
f 17//41 62//197 29//72
f 65//213 67//226 62//199
f 65//216 66//221 68//228
f 18//43 61//192 17//40
f 59//179 67//225 63//202
f 60//186 64//210 69//233
f 25//59 26//63 62//198
f 59//181 25//59 62//198
f 60//185 70//237 64//209
f 34//85 25//59 59//181
f 62//199 67//226 59//180
f 64//207 63//205 68//230
f 29//70 62//198 26//63
f 64//211 66//223 69//234
f 69//232 61//191 60//187
f 71//242 62//196 61//194
f 63//204 64//208 70//236
f 66//220 65//217 71//240
f 18//43 60//188 61//192
g Ailette
v -0.18 0.33724 -0.00009
v 0.18 0.33724 -0.00009
v 0.18 0.34066 -0.00949
v -0.18 0.34066 -0.00949
v -0.18 0.33836 0.00032
v 0.18 0.33836 0.00032
v 0.18 0.34178 -0.00908
v -0.18 0.34178 -0.00908
v 0 0.3378 0.00011
v 0.18 0.33951 -0.00459
v 0 0.34122 -0.00929
v -0.18 0.33951 -0.00459
v 0 0.33895 -0.00479
v 0 0.34007 -0.00438
f 73 72 84
f 74 73 84
f 75 74 84
f 72 75 84
f 73 74 81
f 74 78 81
f 78 77 81
f 77 73 81
f 72 73 80
f 73 77 80
f 77 76 80
f 76 72 80
f 75 72 83
f 72 76 83
f 76 79 83
f 79 75 83
f 76 77 85
f 77 78 85
f 78 79 85
f 79 76 85
f 74 75 82
f 75 79 82
f 79 78 82
f 78 74 82
g Ailette_1
v -0.18 0.34986 -0.00009
v 0.18 0.34986 -0.00009
v 0.18 0.35328 -0.00949
v -0.18 0.35328 -0.00949
v -0.18 0.35099 0.00032
v 0.18 0.35099 0.00032
v 0.18 0.35441 -0.00908
v -0.18 0.35441 -0.00908
v 0 0.35043 0.00011
v 0.18 0.35214 -0.00459
v 0 0.35385 -0.00929
v -0.18 0.35214 -0.00459
v 0 0.35157 -0.00479
v 0 0.3527 -0.00438
f 87 86 98
f 88 87 98
f 89 88 98
f 86 89 98
f 87 88 95
f 88 92 95
f 92 91 95
f 91 87 95
f 86 87 94
f 87 91 94
f 91 90 94
f 90 86 94
f 89 86 97
f 86 90 97
f 90 93 97
f 93 89 97
f 90 91 99
f 91 92 99
f 92 93 99
f 93 90 99
f 88 89 96
f 89 93 96
f 93 92 96
f 92 88 96
g Ailette_2
v -0.18 0.36315 -0.00009
v 0.18 0.36315 -0.00009
v 0.18 0.36657 -0.00949
v -0.18 0.36657 -0.00949
v -0.18 0.36428 0.00032
v 0.18 0.36428 0.00032
v 0.18 0.3677 -0.00908
v -0.18 0.3677 -0.00908
v 0 0.36371 0.00011
v 0.18 0.36542 -0.00459
v 0 0.36713 -0.00929
v -0.18 0.36542 -0.00459
v 0 0.36486 -0.00479
v 0 0.36599 -0.00438
f 101 100 112
f 102 101 112
f 103 102 112
f 100 103 112
f 101 102 109
f 102 106 109
f 106 105 109
f 105 101 109
f 100 101 108
f 101 105 108
f 105 104 108
f 104 100 108
f 103 100 111
f 100 104 111
f 104 107 111
f 107 103 111
f 104 105 113
f 105 106 113
f 106 107 113
f 107 104 113
f 102 103 110
f 103 107 110
f 107 106 110
f 106 102 110
g Ailette_3
v -0.18 0.37631 -0.00009
v 0.18 0.37631 -0.00009
v 0.18 0.37973 -0.00949
v -0.18 0.37973 -0.00949
v -0.18 0.37744 0.00032
v 0.18 0.37744 0.00032
v 0.18 0.38086 -0.00908
v -0.18 0.38086 -0.00908
v 0 0.37687 0.00011
v 0.18 0.37858 -0.00459
v 0 0.38029 -0.00929
v -0.18 0.37858 -0.00459
v 0 0.37802 -0.00479
v 0 0.37915 -0.00438
f 115 114 126
f 116 115 126
f 117 116 126
f 114 117 126
f 115 116 123
f 116 120 123
f 120 119 123
f 119 115 123
f 114 115 122
f 115 119 122
f 119 118 122
f 118 114 122
f 117 114 125
f 114 118 125
f 118 121 125
f 121 117 125
f 118 119 127
f 119 120 127
f 120 121 127
f 121 118 127
f 116 117 124
f 117 121 124
f 121 120 124
f 120 116 124
g Ailette_4
v -0.18 0.38925 -0.00009
v 0.18 0.38925 -0.00009
v 0.18 0.39267 -0.00949
v -0.18 0.39267 -0.00949
v -0.18 0.39038 0.00032
v 0.18 0.39038 0.00032
v 0.18 0.3938 -0.00908
v -0.18 0.3938 -0.00908
v 0 0.38982 0.00011
v 0.18 0.39153 -0.00459
v 0 0.39324 -0.00929
v -0.18 0.39153 -0.00459
v 0 0.39096 -0.00479
v 0 0.39209 -0.00438
f 129 128 140
f 130 129 140
f 131 130 140
f 128 131 140
f 129 130 137
f 130 134 137
f 134 133 137
f 133 129 137
f 128 129 136
f 129 133 136
f 133 132 136
f 132 128 136
f 131 128 139
f 128 132 139
f 132 135 139
f 135 131 139
f 132 133 141
f 133 134 141
f 134 135 141
f 135 132 141
f 130 131 138
f 131 135 138
f 135 134 138
f 134 130 138
g Ailette_5
v -0.18 0.40174 -0.00009
v 0.18 0.40174 -0.00009
v 0.18 0.40516 -0.00949
v -0.18 0.40516 -0.00949
v -0.18 0.40286 0.00032
v 0.18 0.40286 0.00032
v 0.18 0.40628 -0.00908
v -0.18 0.40628 -0.00908
v 0 0.4023 0.00011
v 0.18 0.40401 -0.00459
v 0 0.40572 -0.00929
v -0.18 0.40401 -0.00459
v 0 0.40345 -0.00479
v 0 0.40457 -0.00438
f 143 142 154
f 144 143 154
f 145 144 154
f 142 145 154
f 143 144 151
f 144 148 151
f 148 147 151
f 147 143 151
f 142 143 150
f 143 147 150
f 147 146 150
f 146 142 150
f 145 142 153
f 142 146 153
f 146 149 153
f 149 145 153
f 146 147 155
f 147 148 155
f 148 149 155
f 149 146 155
f 144 145 152
f 145 149 152
f 149 148 152
f 148 144 152
g Ailette_6
v -0.18 0.41393 -0.00009
v 0.18 0.41393 -0.00009
v 0.18 0.41735 -0.00949
v -0.18 0.41735 -0.00949
v -0.18 0.41505 0.00032
v 0.18 0.41505 0.00032
v 0.18 0.41848 -0.00908
v -0.18 0.41848 -0.00908
v 0 0.41449 0.00011
v 0.18 0.4162 -0.00459
v 0 0.41791 -0.00929
v -0.18 0.4162 -0.00459
v 0 0.41564 -0.00479
v 0 0.41677 -0.00438
f 157 156 168
f 158 157 168
f 159 158 168
f 156 159 168
f 157 158 165
f 158 162 165
f 162 161 165
f 161 157 165
f 156 157 164
f 157 161 164
f 161 160 164
f 160 156 164
f 159 156 167
f 156 160 167
f 160 163 167
f 163 159 167
f 160 161 169
f 161 162 169
f 162 163 169
f 163 160 169
f 158 159 166
f 159 163 166
f 163 162 166
f 162 158 166
g Ailette_7
v -0.18 0.4248 -0.00009
v 0.18 0.4248 -0.00009
v 0.18 0.42822 -0.00949
v -0.18 0.42822 -0.00949
v -0.18 0.42593 0.00032
v 0.18 0.42593 0.00032
v 0.18 0.42935 -0.00908
v -0.18 0.42935 -0.00908
v 0 0.42537 0.00011
v 0.18 0.42708 -0.00459
v 0 0.42879 -0.00929
v -0.18 0.42708 -0.00459
v 0 0.42651 -0.00479
v 0 0.42764 -0.00438
f 171 170 182
f 172 171 182
f 173 172 182
f 170 173 182
f 171 172 179
f 172 176 179
f 176 175 179
f 175 171 179
f 170 171 178
f 171 175 178
f 175 174 178
f 174 170 178
f 173 170 181
f 170 174 181
f 174 177 181
f 177 173 181
f 174 175 183
f 175 176 183
f 176 177 183
f 177 174 183
f 172 173 180
f 173 177 180
f 177 176 180
f 176 172 180
g Ailette_8
v -0.18 0.32619 -0.00009
v 0.18 0.32619 -0.00009
v 0.18 0.32961 -0.00949
v -0.18 0.32961 -0.00949
v -0.18 0.32732 0.00032
v 0.18 0.32732 0.00032
v 0.18 0.33074 -0.00908
v -0.18 0.33074 -0.00908
v 0 0.32675 0.00011
v 0.18 0.32846 -0.00459
v 0 0.33017 -0.00929
v -0.18 0.32846 -0.00459
v 0 0.3279 -0.00479
v 0 0.32903 -0.00438
f 185 184 196
f 186 185 196
f 187 186 196
f 184 187 196
f 185 186 193
f 186 190 193
f 190 189 193
f 189 185 193
f 184 185 192
f 185 189 192
f 189 188 192
f 188 184 192
f 187 184 195
f 184 188 195
f 188 191 195
f 191 187 195
f 188 189 197
f 189 190 197
f 190 191 197
f 191 188 197
f 186 187 194
f 187 191 194
f 191 190 194
f 190 186 194
g Accroche
v -0.12989 0.0526 -0.09953
v -0.12989 0.0526 -0.07953
v -0.11989 0.0526 -0.07953
v -0.11989 0.0526 -0.09953
v -0.12989 0.39503 -0.09953
v -0.12989 0.39503 -0.07953
v -0.11989 0.39503 -0.07953
v -0.11989 0.39503 -0.09953
v -0.12989 0.22381 -0.08953
v -0.12489 0.22381 -0.07953
v -0.11989 0.22381 -0.08953
v -0.12489 0.22381 -0.09953
v -0.12489 0.0526 -0.08953
v -0.12489 0.39503 -0.08953
f 199 198 210
f 200 199 210
f 201 200 210
f 198 201 210
f 199 200 207
f 200 204 207
f 204 203 207
f 203 199 207
f 198 199 206
f 199 203 206
f 203 202 206
f 202 198 206
f 201 198 209
f 198 202 209
f 202 205 209
f 205 201 209
f 202 203 211
f 203 204 211
f 204 205 211
f 205 202 211
f 200 201 208
f 201 205 208
f 205 204 208
f 204 200 208
g Accroche_1
v 0.12 0.05278 -0.09953
v 0.12 0.05278 -0.07953
v 0.13 0.05278 -0.07953
v 0.13 0.05278 -0.09953
v 0.12 0.39522 -0.09953
v 0.12 0.39522 -0.07953
v 0.13 0.39522 -0.07953
v 0.13 0.39522 -0.09953
v 0.12 0.224 -0.08953
v 0.125 0.224 -0.07953
v 0.13 0.224 -0.08953
v 0.125 0.224 -0.09953
v 0.125 0.05278 -0.08953
v 0.125 0.39522 -0.08953
f 213 212 224
f 214 213 224
f 215 214 224
f 212 215 224
f 213 214 221
f 214 218 221
f 218 217 221
f 217 213 221
f 212 213 220
f 213 217 220
f 217 216 220
f 216 212 220
f 215 212 223
f 212 216 223
f 216 219 223
f 219 215 223
f 216 217 225
f 217 218 225
f 218 219 225
f 219 216 225
f 214 215 222
f 215 219 222
f 219 218 222
f 218 214 222
