#Produced by Art of Illusion 2.2, Tue May 30 12:05:46 CEST 2006
g Vitre
usemtl flltgrey
v -0.345 0.244 -0.0125
v 0.345 0.244 -0.0125
v 0.345 0.244 -0.0225
v -0.345 0.244 -0.0225
v -0.345 2.084 -0.0125
v 0.345 2.084 -0.0125
v 0.345 2.084 -0.0225
v -0.345 2.084 -0.0225
v 0 1.164 -0.0125
v 0.345 1.164 -0.0175
v 0 1.164 -0.0225
v -0.345 1.164 -0.0175
v 0 0.244 -0.0175
v 0 2.084 -0.0175
vn -0.57735 -0.57735 0.57735
vn 0.57735 -0.57735 0.57735
vn 0.57735 -0.57735 -0.57735
vn -0.57735 -0.57735 -0.57735
vn -0.57735 0.57735 0.57735
vn 0.57735 0.57735 0.57735
vn 0.57735 0.57735 -0.57735
vn -0.57735 0.57735 -0.57735
vn 0 0 1
vn 1 0 0
vn 0 0 -1
vn -1 0 0
vn 0 -1 0
vn 0 1 0
f 2//2 1//1 13//13
f 3//3 2//2 13//13
f 4//4 3//3 13//13
f 1//1 4//4 13//13
f 2//2 3//3 10//10
f 3//3 7//7 10//10
f 7//7 6//6 10//10
f 6//6 2//2 10//10
f 1//1 2//2 9//9
f 2//2 6//6 9//9
f 6//6 5//5 9//9
f 5//5 1//1 9//9
f 4//4 1//1 12//12
f 1//1 5//5 12//12
f 5//5 8//8 12//12
f 8//8 4//4 12//12
f 5//5 6//6 14//14
f 6//6 7//7 14//14
f 7//7 8//8 14//14
f 8//8 5//5 14//14
f 3//3 4//4 11//11
f 4//4 8//8 11//11
f 8//8 7//7 11//11
f 7//7 3//3 11//11
g Gond
usemtl white
v -0.43308 2.01433 0.0025
v -0.42308 2.01433 0.0025
v -0.43308 2.01433 -0.0075
v -0.44308 2.01433 0.0025
v -0.43308 2.01433 0.0125
v -0.42308 2.05433 0.0025
v -0.43308 2.05433 -0.0075
v -0.44308 2.05433 0.0025
v -0.43308 2.05433 0.0125
v -0.43308 2.05433 0.0025
vn 0 -1 0
vn 0.70711 -0.66667 0.2357
vn 0.2357 -0.66667 -0.70711
vn -0.70711 -0.66667 -0.2357
vn -0.2357 -0.66667 0.70711
vn 0.70711 0.66667 -0.2357
vn -0.2357 0.66667 -0.70711
vn -0.70711 0.66667 0.2357
vn 0.2357 0.66667 0.70711
vn 0 1 0
f 17//17 16//16 15//15
f 18//18 17//17 15//15
f 19//19 18//18 15//15
f 16//16 19//19 15//15
f 20//20 16//16 17//17
f 21//21 17//17 18//18
f 22//22 18//18 19//19
f 23//23 19//19 16//16
f 20//20 17//17 21//21
f 21//21 18//18 22//22
f 22//22 19//19 23//23
f 23//23 16//16 20//20
f 24//24 20//20 21//21
f 24//24 21//21 22//22
f 24//24 22//22 23//23
f 24//24 23//23 20//20
g Gond_1
v -0.433 1.168 0.0025
v -0.423 1.168 0.0025
v -0.433 1.168 -0.0075
v -0.443 1.168 0.0025
v -0.433 1.168 0.0125
v -0.423 1.208 0.0025
v -0.433 1.208 -0.0075
v -0.443 1.208 0.0025
v -0.433 1.208 0.0125
v -0.433 1.208 0.0025
vn 0 -1 0
vn 0.70711 -0.66667 0.2357
vn 0.2357 -0.66667 -0.70711
vn -0.70711 -0.66667 -0.2357
vn -0.2357 -0.66667 0.70711
vn 0.70711 0.66667 -0.2357
vn -0.2357 0.66667 -0.70711
vn -0.70711 0.66667 0.2357
vn 0.2357 0.66667 0.70711
vn 0 1 0
f 27//27 26//26 25//25
f 28//28 27//27 25//25
f 29//29 28//28 25//25
f 26//26 29//29 25//25
f 30//30 26//26 27//27
f 31//31 27//27 28//28
f 32//32 28//28 29//29
f 33//33 29//29 26//26
f 30//30 27//27 31//31
f 31//31 28//28 32//32
f 32//32 29//29 33//33
f 33//33 26//26 30//30
f 34//34 30//30 31//31
f 34//34 31//31 32//32
f 34//34 32//32 33//33
f 34//34 33//33 30//30
g Gond_2
v -0.433 0.322 0.0025
v -0.423 0.322 0.0025
v -0.433 0.322 -0.0075
v -0.443 0.322 0.0025
v -0.433 0.322 0.0125
v -0.423 0.362 0.0025
v -0.433 0.362 -0.0075
v -0.443 0.362 0.0025
v -0.433 0.362 0.0125
v -0.433 0.362 0.0025
vn 0 -1 0
vn 0.70711 -0.66667 0.2357
vn 0.2357 -0.66667 -0.70711
vn -0.70711 -0.66667 -0.2357
vn -0.2357 -0.66667 0.70711
vn 0.70711 0.66667 -0.2357
vn -0.2357 0.66667 -0.70711
vn -0.70711 0.66667 0.2357
vn 0.2357 0.66667 0.70711
vn 0 1 0
f 37//37 36//36 35//35
f 38//38 37//37 35//35
f 39//39 38//38 35//35
f 36//36 39//39 35//35
f 40//40 36//36 37//37
f 41//41 37//37 38//38
f 42//42 38//38 39//39
f 43//43 39//39 36//36
f 40//40 37//37 41//41
f 41//41 38//38 42//42
f 42//42 39//39 43//43
f 43//43 36//36 40//40
f 44//44 40//40 41//41
f 44//44 41//41 42//42
f 44//44 42//42 43//43
f 44//44 43//43 40//40
g Poignee
v 0.37562 1.14792 0.0098
v 0.38645 1.16654 0.0076
v 0.3648 1.16654 0.0076
v 0.37562 1.1489 0.03126
v 0.38645 1.16755 0.03324
v 0.3648 1.16755 0.03324
v 0.37562 1.1441 0.04598
v 0.38645 1.15195 0.06301
v 0.3648 1.15195 0.06301
v 0.37562 1.09649 0.0499
v 0.38645 1.09672 0.06865
v 0.3648 1.09672 0.06865
v 0.37563 1.04581 0.04884
v 0.38645 1.0451 0.06758
v 0.3648 1.0451 0.06758
v 0.37562 1.16033 0.00833
v 0.37562 1.04533 0.06133
vn -0.31611 -0.63694 -0.70312
vn 0.65457 -0.09066 -0.75055
vn -0.33874 0.49439 -0.80052
vn 0.03689 -0.98438 -0.17214
vn 0.87873 0.47724 -0.00889
vn -0.86882 0.43768 0.23149
vn 0.01437 -0.62906 -0.77723
vn 0.87369 0.43507 0.21765
vn -0.85573 -0.01626 0.51717
vn -0.00475 -0.03434 -0.9994
vn 0.86619 0.05077 0.49712
vn -0.86826 -0.00786 0.49604
vn 0.32489 -0.73818 -0.59122
vn 0.32976 -0.77284 0.5422
vn -0.65463 -0.7554 -0.02873
vn -0 -0.11735 -0.99309
vn 0 -0.99928 -0.03788
f 45//45 46//46 48//48
f 46//46 49//49 48//48
f 46//46 47//47 49//49
f 47//47 50//50 49//49
f 47//47 45//45 50//50
f 45//45 48//48 50//50
f 48//48 49//49 51//51
f 49//49 52//52 51//51
f 49//49 50//50 52//52
f 50//50 53//53 52//52
f 50//50 48//48 53//53
f 48//48 51//51 53//53
f 51//51 52//52 54//54
f 52//52 55//55 54//54
f 52//52 53//53 55//55
f 53//53 56//56 55//55
f 53//53 51//51 56//56
f 51//51 54//54 56//56
f 54//54 55//55 57//57
f 55//55 58//58 57//57
f 55//55 56//56 58//58
f 56//56 59//59 58//58
f 56//56 54//54 59//59
f 54//54 57//57 59//59
f 46//46 45//45 60//60
f 47//47 46//46 60//60
f 45//45 47//47 60//60
f 57//57 58//58 61//61
f 58//58 59//59 61//61
f 59//59 57//57 61//61
g Tour_Fenetre
v -0.455 0.005 -0.005
v 0.455 0.005 -0.005
v 0.455 0.005 -0.275
v -0.455 0.005 -0.275
v -0.455 2.215 -0.005
v 0.455 2.215 -0.005
v 0.455 2.215 -0.275
v -0.455 2.215 -0.275
v 0.455 1.11 -0.14
v -0.455 1.11 -0.14
v 0 0.005 -0.14
v 0 2.215 -0.14
v 0.4 0.168 -0.005
v 0.4 2.158 -0.005
v -0.4 0.168 -0.005
v 0.4525 0.1185 -0.275
v -0.4525 0.1185 -0.275
v 0.4525 2.2115 -0.275
v -0.4 2.158 -0.005
v -0.4525 2.2115 -0.275
v -0.4525 0.1185 -0.096
v 0.4525 0.1185 -0.096
v -0.4525 2.2115 -0.096
v 0.4525 2.2115 -0.096
v 0.4525 1.165 -0.246
v -0.4525 1.165 -0.246
v 0 0.1185 -0.246
v 0 2.2115 -0.246
v 0.4 0.168 -0.096
v 0.4 2.158 -0.096
v -0.4 0.168 -0.096
v -0.4 2.158 -0.096
vn -0.48507 -0.48507 0.72761
vn 0.57735 -0.57735 0.57735
vn 0.57735 -0.57735 -0.57735
vn -0.48507 -0.48507 -0.72761
vn -0.40825 0.40825 0.8165
vn 0.48507 0.48507 0.72761
vn 0.48507 0.48507 -0.72761
vn -0.40825 0.40825 -0.8165
vn 1 0 0
vn -1 0 0
vn 0 -1 0
vn 0 1 0
vn -0.21822 0.43644 0.87287
vn -0.48507 -0.48507 0.72761
vn 0.30151 0.30151 0.90453
vn -0.40825 0.40825 -0.8165
vn 0.48507 0.48507 -0.72761
vn -0.48507 -0.48507 -0.72761
vn 0.66667 -0.33333 0.66667
vn 0.57735 -0.57735 -0.57735
vn 0.48507 0.48507 -0.72761
vn -0.57735 0.57735 -0.57735
vn 0.40825 -0.40825 -0.8165
vn -0.48507 -0.48507 -0.72761
vn -1 0 0
vn 1 0 0
vn 0 1 0
vn 0 -1 0
vn -0.43644 0.21822 -0.87287
vn -0.30151 -0.30151 -0.90453
vn 0.48507 0.48507 -0.72761
vn 0.33333 -0.66667 -0.66667
f 63//63 62//62 72//72
f 64//64 63//63 72//72
f 65//65 64//64 72//72
f 62//62 65//65 72//72
f 63//63 64//64 70//70
f 64//64 68//68 70//70
f 68//68 67//67 70//70
f 67//67 63//63 70//70
f 65//65 62//62 71//71
f 62//62 66//66 71//71
f 66//66 69//69 71//71
f 69//69 65//65 71//71
f 66//66 67//67 73//73
f 67//67 68//68 73//73
f 68//68 69//69 73//73
f 69//69 66//66 73//73
f 93//93 75//75 80//80
f 62//62 63//63 74//74
f 67//67 75//75 74//74
f 63//63 67//67 74//74
f 88//88 83//83 77//77
f 67//67 66//66 75//75
f 62//62 74//74 76//76
f 66//66 62//62 76//76
f 92//92 76//76 74//74
f 64//64 65//65 77//77
f 87//87 78//78 81//81
f 65//65 69//69 78//78
f 84//84 87//87 81//81
f 69//69 68//68 79//79
f 86//86 85//85 79//79
f 68//68 64//64 77//77
f 88//88 77//77 78//78
f 82//82 88//88 78//78
f 77//77 83//83 86//86
f 86//86 79//79 77//77
f 75//75 66//66 80//80
f 92//92 93//93 80//80
f 66//66 76//76 80//80
f 90//90 74//74 75//75
f 90//90 92//92 74//74
f 91//91 90//90 75//75
f 92//92 80//80 76//76
f 79//79 85//85 89//89
f 65//65 78//78 77//77
f 69//69 81//81 78//78
f 75//75 93//93 91//91
f 78//78 87//87 82//82
f 68//68 77//77 79//79
f 79//79 81//81 69//69
f 81//81 89//89 84//84
f 89//89 81//81 79//79
f 82//82 83//83 88//88
f 83//83 85//85 86//86
f 84//84 82//82 87//87
f 85//85 84//84 89//89
f 90//90 83//83 82//82
f 85//85 83//83 90//90
f 84//84 85//85 91//91
f 82//82 84//84 92//92
f 90//90 82//82 92//92
f 91//91 85//85 90//90
f 92//92 84//84 93//93
f 91//91 93//93 84//84
g Fenetre
v -0.425 0.164 0.0125
v 0.425 0.164 0.0125
v 0.425 0.164 -0.0475
v -0.425 0.164 -0.0475
v -0.425 2.164 0.0125
v 0.425 2.164 0.0125
v 0.425 2.164 -0.0475
v -0.425 2.164 -0.0475
v 0.425 1.164 -0.0175
v -0.425 1.164 -0.0175
v 0 0.164 -0.0175
v 0 2.164 -0.0175
v 0.34 0.249 0.0125
v 0.34 2.079 0.0125
v -0.34 0.249 0.0125
v 0.34 0.249 -0.0475
v -0.34 0.249 -0.0475
v 0.34 0.27775 -0.0475
v 0.34 2.079 -0.0475
v -0.34 2.079 0.0125
v -0.34 2.079 -0.0475
v 0.34 1.164 -0.0175
v -0.34 1.164 -0.0175
v 0 0.249 -0.0175
v 0 2.079 -0.0175
vn -0.48507 -0.48507 0.72761
vn 0.57735 -0.57735 0.57735
vn 0.48507 -0.48507 -0.72761
vn -0.48507 -0.48507 -0.72761
vn -0.40825 0.40825 0.8165
vn 0.48507 0.48507 0.72761
vn 0.48507 0.48507 -0.72761
vn -0.40825 0.40825 -0.8165
vn 1 0 0
vn -1 0 0
vn 0 -1 0
vn 0 1 0
vn -0.55709 0.37139 0.74278
vn -0.6396 -0.4264 0.6396
vn 0.48507 0.48507 0.72761
vn -0.26726 0.53452 -0.80178
vn 0.48507 0.48507 -0.72761
vn -0.8 -0 -0.6
vn -0.26726 -0.53452 -0.80178
vn 0.57735 -0.57735 0.57735
vn 0.57735 -0.57735 -0.57735
vn -1 0 0
vn 1 -0 0
vn 0 1 0
vn 0 -1 0
f 95//95 94//94 104//104
f 96//96 95//95 104//104
f 97//97 96//96 104//104
f 94//94 97//97 104//104
f 95//95 96//96 102//102
f 96//96 100//100 102//102
f 100//100 99//99 102//102
f 99//99 95//95 102//102
f 97//97 94//94 103//103
f 94//94 98//98 103//103
f 98//98 101//101 103//103
f 101//101 97//97 103//103
f 98//98 99//99 105//105
f 99//99 100//100 105//105
f 100//100 101//101 105//105
f 101//101 98//98 105//105
f 116//116 110//110 114//114
f 95//95 106//106 94//94
f 112//112 114//114 101//101
f 95//95 99//99 106//106
f 110//110 108//108 117//117
f 99//99 98//98 107//107
f 107//107 112//112 111//111
f 98//98 94//94 108//108
f 115//115 106//106 107//107
f 96//96 97//97 109//109
f 106//106 109//109 117//117
f 97//97 101//101 110//110
f 101//101 100//100 112//112
f 118//118 107//107 113//113
f 100//100 96//96 111//111
f 106//106 115//115 111//111
f 94//94 106//106 108//108
f 99//99 107//107 106//106
f 112//112 118//118 114//114
f 106//106 117//117 108//108
f 98//98 108//108 113//113
f 109//109 97//97 110//110
f 101//101 114//114 110//110
f 116//116 113//113 108//108
f 114//114 118//118 113//113
f 111//111 112//112 100//100
f 116//116 108//108 110//110
f 113//113 107//107 98//98
f 106//106 111//111 109//109
f 109//109 111//111 96//96
f 113//113 116//116 114//114
f 115//115 107//107 111//111
f 117//117 109//109 110//110
f 112//112 107//107 118//118
