#Produced by Art of Illusion 2.1, Mon Oct 17 14:08:20 CEST 2005
#
# Copyright (c) 2006-2007 Emmanuel PUYBARET / eTeks <info@eteks.com>. All Rights Reserved.
#
# This program is free software; you can redistribute it and/or modify it under
# the terms of the GNU General Public License as published by the Free Software
# Foundation, and available at http://www.gnu.org/copyleft/gpl.txt
g Porte
usemtl white
v 0.111 -0.493 0.315
v 0.709 -0.493 0.315
v 0.709 -0.493 0.305
v 0.111 -0.493 0.305
v 0.111 0.257 0.315
v 0.709 0.257 0.315
v 0.709 0.257 0.305
v 0.111 0.257 0.305
v 0.41 -0.118 0.315
v 0.709 -0.118 0.31
v 0.41 -0.118 0.305
v 0.111 -0.118 0.31
v 0.41 -0.493 0.31
v 0.41 0.257 0.31
vn -0.57735 -0.57735 0.57735
vn 0.57735 -0.57735 0.57735
vn 0.57735 -0.57735 -0.57735
vn -0.57735 -0.57735 -0.57735
vn -0.57735 0.57735 0.57735
vn 0.57735 0.57735 0.57735
vn 0.57735 0.57735 -0.57735
vn -0.57735 0.57735 -0.57735
vn 0 0 1
vn 1 0 0
vn 0 0 -1
vn -1 0 0
vn 0 -1 0
vn 0 1 0
f 2//2 1//1 13//13
f 3//3 2//2 13//13
f 4//4 3//3 13//13
f 1//1 4//4 13//13
f 2//2 3//3 10//10
f 3//3 7//7 10//10
f 7//7 6//6 10//10
f 6//6 2//2 10//10
f 1//1 2//2 9//9
f 2//2 6//6 9//9
f 6//6 5//5 9//9
f 5//5 1//1 9//9
f 4//4 1//1 12//12
f 1//1 5//5 12//12
f 5//5 8//8 12//12
f 8//8 4//4 12//12
f 5//5 6//6 14//14
f 6//6 7//7 14//14
f 7//7 8//8 14//14
f 8//8 5//5 14//14
f 3//3 4//4 11//11
f 4//4 8//8 11//11
f 8//8 7//7 11//11
f 7//7 3//3 11//11
g Poignee
v 0.61 0.1505 0.31236
v 0.61 0.1505 0.31236
v 0.61 0.1505 0.31236
v 0.61 0.1505 0.31236
v 0.61 0.1505 0.31236
v 0.61 0.1505 0.31236
v 0.61 0.1505 0.31236
v 0.61 0.1505 0.31236
v 0.61 0.1505 0.31236
v 0.61 0.1505 0.31236
v 0.61 0.1505 0.31236
v 0.61 0.1505 0.31236
v 0.61 0.1505 0.31236
v 0.61 0.1505 0.31236
v 0.61 0.1505 0.31236
v 0.61 0.1505 0.31236
v 0.60539 0.14589 0.31324
v 0.60751 0.1445 0.31324
v 0.61 0.14398 0.31324
v 0.61249 0.1445 0.31324
v 0.61461 0.14589 0.31324
v 0.616 0.14801 0.31324
v 0.61652 0.1505 0.31324
v 0.616 0.15299 0.31324
v 0.61461 0.15511 0.31324
v 0.61249 0.1565 0.31324
v 0.61 0.15702 0.31324
v 0.60751 0.1565 0.31324
v 0.60539 0.15511 0.31324
v 0.604 0.15299 0.31324
v 0.60348 0.1505 0.31324
v 0.604 0.14801 0.31324
v 0.60315 0.14365 0.3153
v 0.60631 0.14158 0.3153
v 0.61 0.14082 0.3153
v 0.61369 0.14158 0.3153
v 0.61685 0.14365 0.3153
v 0.61892 0.14681 0.3153
v 0.61968 0.1505 0.3153
v 0.61892 0.15419 0.3153
v 0.61685 0.15735 0.3153
v 0.61369 0.15942 0.3153
v 0.61 0.16018 0.3153
v 0.60631 0.15942 0.3153
v 0.60315 0.15735 0.3153
v 0.60108 0.15419 0.3153
v 0.60032 0.1505 0.3153
v 0.60108 0.14681 0.3153
v 0.60565 0.14615 0.31971
v 0.60765 0.14483 0.31971
v 0.61 0.14435 0.31971
v 0.61235 0.14483 0.31971
v 0.61435 0.14615 0.31971
v 0.61567 0.14815 0.31971
v 0.61615 0.1505 0.31971
v 0.61567 0.15285 0.31971
v 0.61435 0.15485 0.31971
v 0.61235 0.15617 0.31971
v 0.61 0.15665 0.31971
v 0.60765 0.15617 0.31971
v 0.60565 0.15485 0.31971
v 0.60433 0.15285 0.31971
v 0.60385 0.1505 0.31971
v 0.60433 0.14815 0.31971
v 0.60686 0.14736 0.32573
v 0.60831 0.14642 0.32573
v 0.61 0.14607 0.32573
v 0.61169 0.14642 0.32573
v 0.61314 0.14736 0.32573
v 0.61408 0.14881 0.32573
v 0.61443 0.1505 0.32573
v 0.61408 0.15219 0.32573
v 0.61314 0.15364 0.32573
v 0.61169 0.15458 0.32573
v 0.61 0.15493 0.32573
v 0.60831 0.15458 0.32573
v 0.60686 0.15364 0.32573
v 0.60592 0.15219 0.32573
v 0.60557 0.1505 0.32573
v 0.60592 0.14881 0.32573
v 0.60079 0.14129 0.33258
v 0.60503 0.1385 0.33258
v 0.61 0.13747 0.33258
v 0.61497 0.1385 0.33258
v 0.61921 0.14129 0.33258
v 0.622 0.14553 0.33258
v 0.62303 0.1505 0.33258
v 0.622 0.15547 0.33258
v 0.61921 0.15971 0.33258
v 0.61497 0.1625 0.33258
v 0.61 0.16353 0.33258
v 0.60503 0.1625 0.33258
v 0.60079 0.15971 0.33258
v 0.598 0.15547 0.33258
v 0.59697 0.1505 0.33258
v 0.598 0.14553 0.33258
v 0.59586 0.13636 0.33847
v 0.60237 0.13208 0.33847
v 0.61 0.1305 0.33847
v 0.61763 0.13208 0.33847
v 0.62414 0.13636 0.33847
v 0.62842 0.14287 0.33847
v 0.63 0.1505 0.33847
v 0.62842 0.15813 0.33847
v 0.62414 0.16464 0.33847
v 0.61763 0.16892 0.33847
v 0.61 0.1705 0.33847
v 0.60237 0.16892 0.33847
v 0.59586 0.16464 0.33847
v 0.59158 0.15813 0.33847
v 0.59 0.1505 0.33847
v 0.59158 0.14287 0.33847
v 0.60053 0.14103 0.34161
v 0.60489 0.13816 0.34161
v 0.61 0.13711 0.34161
v 0.61511 0.13816 0.34161
v 0.61947 0.14103 0.34161
v 0.62234 0.14539 0.34161
v 0.62339 0.1505 0.34161
v 0.62234 0.15561 0.34161
v 0.61947 0.15997 0.34161
v 0.61511 0.16284 0.34161
v 0.61 0.16389 0.34161
v 0.60489 0.16284 0.34161
v 0.60053 0.15997 0.34161
v 0.59766 0.15561 0.34161
v 0.59661 0.1505 0.34161
v 0.59766 0.14539 0.34161
v 0.61 0.1505 0.34336
v 0.61 0.1505 0.34336
v 0.61 0.1505 0.34336
v 0.61 0.1505 0.34336
v 0.61 0.1505 0.34336
v 0.61 0.1505 0.34336
v 0.61 0.1505 0.34336
v 0.61 0.1505 0.34336
v 0.61 0.1505 0.34336
v 0.61 0.1505 0.34336
v 0.61 0.1505 0.34336
v 0.61 0.1505 0.34336
v 0.61 0.1505 0.34336
v 0.61 0.1505 0.34336
v 0.61 0.1505 0.34336
v 0.61 0.1505 0.34336
vn -0.25999 -0.39082 -0.88299
vn 0.04738 0.24355 -0.96873
vn 0.09251 -0.46019 -0.88299
vn -0.13872 0.20572 -0.96873
vn 0.39082 -0.25999 -0.88299
vn -0.24355 0.04738 -0.96873
vn 0.46019 0.09251 -0.88299
vn -0.20572 -0.13872 -0.96873
vn 0.25999 0.39082 -0.88299
vn -0.04738 -0.24355 -0.96873
vn -0.09251 0.46019 -0.88299
vn 0.13872 -0.20572 -0.96873
vn -0.39082 0.25999 -0.88299
vn 0.24355 -0.04738 -0.96873
vn -0.46019 -0.09251 -0.88299
vn 0.20572 0.13872 -0.96873
vn -0.1104 -0.42561 -0.89815
vn -0.31409 -0.28487 -0.90565
vn 0.22289 -0.37901 -0.89815
vn -0.02066 -0.42352 -0.90565
vn 0.42561 -0.1104 -0.89815
vn 0.28487 -0.31409 -0.90565
vn 0.37901 0.22289 -0.89815
vn 0.42352 -0.02066 -0.90565
vn 0.1104 0.42561 -0.89815
vn 0.31409 0.28487 -0.90565
vn -0.22289 0.37901 -0.89815
vn 0.02066 0.42352 -0.90565
vn -0.42561 0.1104 -0.89815
vn -0.28487 0.31409 -0.90565
vn -0.37901 -0.22289 -0.89815
vn -0.42352 0.02066 -0.90565
vn -0.68916 -0.70603 -0.16304
vn -0.36742 -0.91574 -0.16254
vn 0.01192 -0.98655 -0.16304
vn 0.38772 -0.90733 -0.16254
vn 0.70603 -0.68916 -0.16304
vn 0.91574 -0.36742 -0.16254
vn 0.98655 0.01192 -0.16304
vn 0.90733 0.38772 -0.16254
vn 0.68916 0.70603 -0.16304
vn 0.36742 0.91574 -0.16254
vn -0.01192 0.98655 -0.16304
vn -0.38772 0.90733 -0.16254
vn -0.70603 0.68916 -0.16304
vn -0.91574 0.36742 -0.16254
vn -0.98655 -0.01192 -0.16304
vn -0.90733 -0.38772 -0.16254
vn -0.62376 -0.63246 0.45925
vn -0.33492 -0.82338 0.45812
vn 0.00615 -0.88828 0.45925
vn 0.34539 -0.81904 0.45812
vn 0.63246 -0.62376 0.45925
vn 0.82338 -0.33492 0.45812
vn 0.88828 0.00615 0.45925
vn 0.81904 0.34539 0.45812
vn 0.62376 0.63246 0.45925
vn 0.33492 0.82338 0.45812
vn -0.00615 0.88828 0.45925
vn -0.34539 0.81904 0.45812
vn -0.63246 0.62376 0.45925
vn -0.82338 0.33492 0.45812
vn -0.88828 -0.00615 0.45925
vn -0.81904 -0.34539 0.45812
vn -0.68226 -0.66293 -0.30829
vn -0.37575 -0.87424 -0.30742
vn -0.01367 -0.95119 -0.30829
vn 0.35249 -0.88388 -0.30742
vn 0.66293 -0.68226 -0.30829
vn 0.87424 -0.37575 -0.30742
vn 0.95119 -0.01367 -0.30829
vn 0.88388 0.35249 -0.30742
vn 0.68226 0.66293 -0.30829
vn 0.37575 0.87424 -0.30742
vn 0.01367 0.95119 -0.30829
vn -0.35249 0.88388 -0.30742
vn -0.66293 0.68226 -0.30829
vn -0.87424 0.37575 -0.30742
vn -0.95119 0.01367 -0.30829
vn -0.88388 -0.35249 -0.30742
vn -0.44813 -0.44921 -0.77291
vn -0.24262 -0.58758 -0.77193
vn 0.00076 -0.63452 -0.77291
vn 0.24392 -0.58705 -0.77193
vn 0.44921 -0.44813 -0.77291
vn 0.58758 -0.24262 -0.77193
vn 0.63452 0.00076 -0.77291
vn 0.58705 0.24392 -0.77193
vn 0.44813 0.44921 -0.77291
vn 0.24262 0.58758 -0.77193
vn -0.00076 0.63452 -0.77291
vn -0.24392 0.58705 -0.77193
vn -0.44921 0.44813 -0.77291
vn -0.58758 0.24262 -0.77193
vn -0.63452 -0.00076 -0.77291
vn -0.58705 -0.24392 -0.77193
vn -0.71043 -0.69113 0.13279
vn -0.3909 -0.91086 0.13238
vn -0.01365 -0.99105 0.13279
vn 0.36767 -0.92048 0.13238
vn 0.69113 -0.71043 0.13279
vn 0.91086 -0.3909 0.13238
vn 0.99105 -0.01365 0.13279
vn 0.92048 0.36767 0.13238
vn 0.71043 0.69113 0.13279
vn 0.3909 0.91086 0.13238
vn 0.01365 0.99105 0.13279
vn -0.36767 0.92048 0.13238
vn -0.69113 0.71043 0.13279
vn -0.91086 0.3909 0.13238
vn -0.99105 0.01365 0.13279
vn -0.92048 -0.36767 0.13238
vn -0.2338 -0.20843 0.94968
vn -0.13532 -0.28338 0.94941
vn -0.01794 -0.3127 0.94968
vn 0.10469 -0.29607 0.94941
vn 0.20843 -0.2338 0.94968
vn 0.28338 -0.13532 0.94941
vn 0.3127 -0.01794 0.94968
vn 0.29607 0.10469 0.94941
vn 0.2338 0.20843 0.94968
vn 0.13532 0.28338 0.94941
vn 0.01794 0.3127 0.94968
vn -0.10469 0.29607 0.94941
vn -0.20843 0.2338 0.94968
vn -0.28338 0.13532 0.94941
vn -0.3127 0.01794 0.94968
vn -0.29607 -0.10469 0.94941
vn -0.11102 -0.07293 0.99114
vn -0.07293 -0.11102 0.99114
vn -0.02694 -0.13007 0.99114
vn 0.02694 -0.13007 0.99114
vn 0.07293 -0.11102 0.99114
vn 0.11102 -0.07293 0.99114
vn 0.13007 -0.02694 0.99114
vn 0.13007 0.02694 0.99114
vn 0.11102 0.07293 0.99114
vn 0.07293 0.11102 0.99114
vn 0.02694 0.13007 0.99114
vn -0.02694 0.13007 0.99114
vn -0.07293 0.11102 0.99114
vn -0.11102 0.07293 0.99114
vn -0.13007 0.02694 0.99114
vn -0.13007 -0.02694 0.99114
f 15//15 16//16 32//32
f 15//15 32//32 31//31
f 31//31 32//32 48//48
f 31//31 48//48 47//47
f 47//47 48//48 64//64
f 47//47 64//64 63//63
f 63//63 64//64 80//80
f 63//63 80//80 79//79
f 79//79 80//80 96//96
f 79//79 96//96 95//95
f 95//95 96//96 112//112
f 95//95 112//112 111//111
f 111//111 112//112 128//128
f 111//111 128//128 127//127
f 127//127 128//128 144//144
f 127//127 144//144 143//143
f 16//16 17//17 33//33
f 16//16 33//33 32//32
f 32//32 33//33 49//49
f 32//32 49//49 48//48
f 48//48 49//49 65//65
f 48//48 65//65 64//64
f 64//64 65//65 81//81
f 64//64 81//81 80//80
f 80//80 81//81 97//97
f 80//80 97//97 96//96
f 96//96 97//97 113//113
f 96//96 113//113 112//112
f 112//112 113//113 129//129
f 112//112 129//129 128//128
f 128//128 129//129 145//145
f 128//128 145//145 144//144
f 17//17 18//18 34//34
f 17//17 34//34 33//33
f 33//33 34//34 50//50
f 33//33 50//50 49//49
f 49//49 50//50 66//66
f 49//49 66//66 65//65
f 65//65 66//66 82//82
f 65//65 82//82 81//81
f 81//81 82//82 98//98
f 81//81 98//98 97//97
f 97//97 98//98 114//114
f 97//97 114//114 113//113
f 113//113 114//114 130//130
f 113//113 130//130 129//129
f 129//129 130//130 146//146
f 129//129 146//146 145//145
f 18//18 19//19 35//35
f 18//18 35//35 34//34
f 34//34 35//35 51//51
f 34//34 51//51 50//50
f 50//50 51//51 67//67
f 50//50 67//67 66//66
f 66//66 67//67 83//83
f 66//66 83//83 82//82
f 82//82 83//83 99//99
f 82//82 99//99 98//98
f 98//98 99//99 115//115
f 98//98 115//115 114//114
f 114//114 115//115 131//131
f 114//114 131//131 130//130
f 130//130 131//131 147//147
f 130//130 147//147 146//146
f 19//19 20//20 36//36
f 19//19 36//36 35//35
f 35//35 36//36 52//52
f 35//35 52//52 51//51
f 51//51 52//52 68//68
f 51//51 68//68 67//67
f 67//67 68//68 84//84
f 67//67 84//84 83//83
f 83//83 84//84 100//100
f 83//83 100//100 99//99
f 99//99 100//100 116//116
f 99//99 116//116 115//115
f 115//115 116//116 132//132
f 115//115 132//132 131//131
f 131//131 132//132 148//148
f 131//131 148//148 147//147
f 20//20 21//21 37//37
f 20//20 37//37 36//36
f 36//36 37//37 53//53
f 36//36 53//53 52//52
f 52//52 53//53 69//69
f 52//52 69//69 68//68
f 68//68 69//69 85//85
f 68//68 85//85 84//84
f 84//84 85//85 101//101
f 84//84 101//101 100//100
f 100//100 101//101 117//117
f 100//100 117//117 116//116
f 116//116 117//117 133//133
f 116//116 133//133 132//132
f 132//132 133//133 149//149
f 132//132 149//149 148//148
f 21//21 22//22 38//38
f 21//21 38//38 37//37
f 37//37 38//38 54//54
f 37//37 54//54 53//53
f 53//53 54//54 70//70
f 53//53 70//70 69//69
f 69//69 70//70 86//86
f 69//69 86//86 85//85
f 85//85 86//86 102//102
f 85//85 102//102 101//101
f 101//101 102//102 118//118
f 101//101 118//118 117//117
f 117//117 118//118 134//134
f 117//117 134//134 133//133
f 133//133 134//134 150//150
f 133//133 150//150 149//149
f 22//22 23//23 39//39
f 22//22 39//39 38//38
f 38//38 39//39 55//55
f 38//38 55//55 54//54
f 54//54 55//55 71//71
f 54//54 71//71 70//70
f 70//70 71//71 87//87
f 70//70 87//87 86//86
f 86//86 87//87 103//103
f 86//86 103//103 102//102
f 102//102 103//103 119//119
f 102//102 119//119 118//118
f 118//118 119//119 135//135
f 118//118 135//135 134//134
f 134//134 135//135 151//151
f 134//134 151//151 150//150
f 23//23 24//24 40//40
f 23//23 40//40 39//39
f 39//39 40//40 56//56
f 39//39 56//56 55//55
f 55//55 56//56 72//72
f 55//55 72//72 71//71
f 71//71 72//72 88//88
f 71//71 88//88 87//87
f 87//87 88//88 104//104
f 87//87 104//104 103//103
f 103//103 104//104 120//120
f 103//103 120//120 119//119
f 119//119 120//120 136//136
f 119//119 136//136 135//135
f 135//135 136//136 152//152
f 135//135 152//152 151//151
f 24//24 25//25 41//41
f 24//24 41//41 40//40
f 40//40 41//41 57//57
f 40//40 57//57 56//56
f 56//56 57//57 73//73
f 56//56 73//73 72//72
f 72//72 73//73 89//89
f 72//72 89//89 88//88
f 88//88 89//89 105//105
f 88//88 105//105 104//104
f 104//104 105//105 121//121
f 104//104 121//121 120//120
f 120//120 121//121 137//137
f 120//120 137//137 136//136
f 136//136 137//137 153//153
f 136//136 153//153 152//152
f 25//25 26//26 42//42
f 25//25 42//42 41//41
f 41//41 42//42 58//58
f 41//41 58//58 57//57
f 57//57 58//58 74//74
f 57//57 74//74 73//73
f 73//73 74//74 90//90
f 73//73 90//90 89//89
f 89//89 90//90 106//106
f 89//89 106//106 105//105
f 105//105 106//106 122//122
f 105//105 122//122 121//121
f 121//121 122//122 138//138
f 121//121 138//138 137//137
f 137//137 138//138 154//154
f 137//137 154//154 153//153
f 26//26 27//27 43//43
f 26//26 43//43 42//42
f 42//42 43//43 59//59
f 42//42 59//59 58//58
f 58//58 59//59 75//75
f 58//58 75//75 74//74
f 74//74 75//75 91//91
f 74//74 91//91 90//90
f 90//90 91//91 107//107
f 90//90 107//107 106//106
f 106//106 107//107 123//123
f 106//106 123//123 122//122
f 122//122 123//123 139//139
f 122//122 139//139 138//138
f 138//138 139//139 155//155
f 138//138 155//155 154//154
f 27//27 28//28 44//44
f 27//27 44//44 43//43
f 43//43 44//44 60//60
f 43//43 60//60 59//59
f 59//59 60//60 76//76
f 59//59 76//76 75//75
f 75//75 76//76 92//92
f 75//75 92//92 91//91
f 91//91 92//92 108//108
f 91//91 108//108 107//107
f 107//107 108//108 124//124
f 107//107 124//124 123//123
f 123//123 124//124 140//140
f 123//123 140//140 139//139
f 139//139 140//140 156//156
f 139//139 156//156 155//155
f 28//28 29//29 45//45
f 28//28 45//45 44//44
f 44//44 45//45 61//61
f 44//44 61//61 60//60
f 60//60 61//61 77//77
f 60//60 77//77 76//76
f 76//76 77//77 93//93
f 76//76 93//93 92//92
f 92//92 93//93 109//109
f 92//92 109//109 108//108
f 108//108 109//109 125//125
f 108//108 125//125 124//124
f 124//124 125//125 141//141
f 124//124 141//141 140//140
f 140//140 141//141 157//157
f 140//140 157//157 156//156
f 29//29 30//30 46//46
f 29//29 46//46 45//45
f 45//45 46//46 62//62
f 45//45 62//62 61//61
f 61//61 62//62 78//78
f 61//61 78//78 77//77
f 77//77 78//78 94//94
f 77//77 94//94 93//93
f 93//93 94//94 110//110
f 93//93 110//110 109//109
f 109//109 110//110 126//126
f 109//109 126//126 125//125
f 125//125 126//126 142//142
f 125//125 142//142 141//141
f 141//141 142//142 158//158
f 141//141 158//158 157//157
f 30//30 15//15 31//31
f 30//30 31//31 46//46
f 46//46 31//31 47//47
f 46//46 47//47 62//62
f 62//62 47//47 63//63
f 62//62 63//63 78//78
f 78//78 63//63 79//79
f 78//78 79//79 94//94
f 94//94 79//79 95//95
f 94//94 95//95 110//110
f 110//110 95//95 111//111
f 110//110 111//111 126//126
f 126//126 111//111 127//127
f 126//126 127//127 142//142
f 142//142 127//127 143//143
f 142//142 143//143 158//158
g Corps
v 0.7 -0.485 -0.275
v 0.12 -0.485 -0.275
v 0.7 0.245 -0.275
v 0.12 0.245 -0.275
v 0.7 -0.12 0.015
v 0.41 -0.12 -0.275
v 0.12 -0.12 0.015
v 0.41 -0.485 0.015
v 0.41 0.245 0.015
v 0.12 -0.485 0.3
v 0.7 -0.485 0.3
v 0.7 0.245 0.3
v 0.12 0.245 0.3
v 0.11 -0.592 0.3
v 0.71 -0.592 0.3
v 0.71 -0.592 -0.3
v 0.11 -0.592 -0.3
v 0.11 0.258 0.3
v 0.71 0.258 0.3
v 0.71 0.258 -0.3
v 0.11 0.258 -0.3
v 0.71 -0.167 0
v 0.41 -0.167 -0.3
v 0.11 -0.167 0
v 0.41 -0.592 0
v 0.41 0.258 0
vn -0.57735 0.57735 0.57735
vn 0.57735 0.57735 0.57735
vn -0.57735 -0.57735 0.57735
vn 0.57735 -0.57735 0.57735
vn -1 0 0
vn 0 0 1
vn 1 0 0
vn 0 1 0
vn 0 -1 0
vn 0.40825 0.40825 0.8165
vn -0.48507 0.48507 0.72761
vn -0.57735 -0.57735 0.57735
vn 0.48507 -0.48507 0.72761
vn -0.57735 -0.57735 0.57735
vn 0.48507 -0.48507 0.72761
vn 0.57735 -0.57735 -0.57735
vn -0.57735 -0.57735 -0.57735
vn -0.48507 0.48507 0.72761
vn 0.40825 0.40825 0.8165
vn 0.57735 0.57735 -0.57735
vn -0.57735 0.57735 -0.57735
vn 1 0 0
vn 0 0 -1
vn -1 0 0
vn 0 -1 0
vn 0 1 0
f 159//159 160//160 166//166
f 161//161 159//159 163//163
f 160//160 162//162 165//165
f 162//162 161//161 167//167
f 160//160 159//159 164//164
f 162//162 160//160 164//164
f 161//161 162//162 164//164
f 159//159 161//161 164//164
f 179//179 178//178 181//181
f 178//178 179//179 184//184
f 169//169 159//159 166//166
f 173//173 177//177 169//169
f 168//168 166//166 160//160
f 178//178 174//174 181//181
f 169//169 163//163 159//159
f 175//175 179//179 181//181
f 161//161 163//163 170//170
f 176//176 172//172 168//168
f 168//168 160//160 165//165
f 173//173 168//168 172//172
f 165//165 162//162 171//171
f 174//174 175//175 181//181
f 171//171 167//167 170//170
f 170//170 167//167 161//161
f 177//177 170//170 169//169
f 171//171 162//162 167//167
f 176//176 168//168 171//171
f 169//169 166//166 168//168
f 179//179 176//176 184//184
f 168//168 173//173 169//169
f 177//177 171//171 170//170
f 169//169 170//170 163//163
f 177//177 176//176 171//171
f 171//171 168//168 165//165
f 173//173 172//172 183//183
f 174//174 173//173 183//183
f 175//175 174//174 183//183
f 172//172 175//175 183//183
f 173//173 174//174 180//180
f 174//174 178//178 180//180
f 178//178 177//177 180//180
f 177//177 173//173 180//180
f 175//175 172//172 182//182
f 172//172 176//176 182//182
f 176//176 179//179 182//182
f 179//179 175//175 182//182
f 176//176 177//177 184//184
f 177//177 178//178 184//184
