#Produced by Art of Illusion 2.8.1, Tue Nov 16 09:58:04 CET 2010
#
# Sweet Home 3D, Copyright (c) 2006-2010 Emmanuel PUYBARET / eTeks <info@eteks.com>
#
# This program is free software; you can redistribute it and/or modify it under
# the terms of the GNU General Public License as published by the Free Software
# Foundation, and available at http://www.gnu.org/copyleft/gpl.txt
g Plateau
usemtl amber
v 0 0.55 0
v 1 0.55 0
v 0.98079 0.55 -0.19509
v 0.92388 0.55 -0.38268
v 0.83147 0.55 -0.55557
v 0.70711 0.55 -0.70711
v 0.55557 0.55 -0.83147
v 0.38268 0.55 -0.92388
v 0.19509 0.55 -0.98079
v 0 0.55 -1
v -0.19509 0.55 -0.98079
v -0.38268 0.55 -0.92388
v -0.55557 0.55 -0.83147
v -0.70711 0.55 -0.70711
v -0.83147 0.55 -0.55557
v -0.92388 0.55 -0.38268
v -0.98079 0.55 -0.19509
v -1 0.55 0
v -0.98079 0.55 0.19509
v -0.92388 0.55 0.38268
v -0.83147 0.55 0.55557
v -0.70711 0.55 0.70711
v -0.55557 0.55 0.83147
v -0.38268 0.55 0.92388
v -0.19509 0.55 0.98079
v 0 0.55 1
v 0.19509 0.55 0.98079
v 0.38268 0.55 0.92388
v 0.55557 0.55 0.83147
v 0.70711 0.55 0.70711
v 0.83147 0.55 0.55557
v 0.92388 0.55 0.38268
v 0.98079 0.55 0.19509
v 1 0.65 0
v 0.98079 0.65 -0.19509
v 0.92388 0.65 -0.38268
v 0.83147 0.65 -0.55557
v 0.70711 0.65 -0.70711
v 0.55557 0.65 -0.83147
v 0.38268 0.65 -0.92388
v 0.19509 0.65 -0.98079
v 0 0.65 -1
v -0.19509 0.65 -0.98079
v -0.38268 0.65 -0.92388
v -0.55557 0.65 -0.83147
v -0.70711 0.65 -0.70711
v -0.83147 0.65 -0.55557
v -0.92388 0.65 -0.38268
v -0.98079 0.65 -0.19509
v -1 0.65 0
v -0.98079 0.65 0.19509
v -0.92388 0.65 0.38268
v -0.83147 0.65 0.55557
v -0.70711 0.65 0.70711
v -0.55557 0.65 0.83147
v -0.38268 0.65 0.92388
v -0.19509 0.65 0.98079
v 0 0.65 1
v 0.19509 0.65 0.98079
v 0.38268 0.65 0.92388
v 0.55557 0.65 0.83147
v 0.70711 0.65 0.70711
v 0.83147 0.65 0.55557
v 0.92388 0.65 0.38268
v 0.98079 0.65 0.19509
v 0 0.65 0
vn 0 -1 0
vn 0 -1 0
vn 1 0 0
vn 0 -1 0
vn 0.98079 0 -0.19509
vn 0 -1 0
vn 0.92388 0 -0.38268
vn 0 -1 0
vn 0.83147 0 -0.55557
vn 0 -1 0
vn 0.70711 0 -0.70711
vn 0 -1 0
vn 0.55557 0 -0.83147
vn 0 -1 0
vn 0.38268 0 -0.92388
vn 0 -1 0
vn 0.19509 0 -0.98079
vn 0 -1 0
vn -0 0 -1
vn 0 -1 0
vn -0.19509 0 -0.98079
vn 0 -1 0
vn -0.38268 0 -0.92388
vn 0 -1 0
vn -0.55557 0 -0.83147
vn 0 -1 0
vn -0.70711 0 -0.70711
vn 0 -1 0
vn -0.83147 0 -0.55557
vn 0 -1 0
vn -0.92388 0 -0.38268
vn 0 -1 0
vn -0.98079 0 -0.19509
vn 0 -1 0
vn -1 0 0
vn 0 -1 0
vn -0.98079 0 0.19509
vn 0 -1 0
vn -0.92388 0 0.38268
vn 0 -1 0
vn -0.83147 0 0.55557
vn 0 -1 0
vn -0.70711 0 0.70711
vn 0 -1 0
vn -0.55557 0 0.83147
vn 0 -1 0
vn -0.38268 0 0.92388
vn 0 -1 0
vn -0.19509 0 0.98079
vn 0 -1 0
vn -0 0 1
vn 0 -1 0
vn 0.19509 0 0.98079
vn 0 -1 0
vn 0.38268 0 0.92388
vn 0 -1 0
vn 0.55557 0 0.83147
vn 0 -1 0
vn 0.70711 0 0.70711
vn 0 -1 0
vn 0.83147 0 0.55557
vn 0 -1 0
vn 0.92388 0 0.38268
vn 0 -1 0
vn 0.98079 0 0.19509
vn 0 1 0
vn 1 0 0
vn 0 1 0
vn 0.98079 0 -0.19509
vn 0 1 0
vn 0.92388 0 -0.38268
vn 0 1 0
vn 0.83147 0 -0.55557
vn 0 1 0
vn 0.70711 0 -0.70711
vn 0 1 0
vn 0.55557 0 -0.83147
vn 0 1 0
vn 0.38268 0 -0.92388
vn 0 1 0
vn 0.19509 0 -0.98079
vn 0 1 0
vn -0 0 -1
vn 0 1 0
vn -0.19509 0 -0.98079
vn 0 1 0
vn -0.38268 0 -0.92388
vn 0 1 0
vn -0.55557 0 -0.83147
vn 0 1 0
vn -0.70711 0 -0.70711
vn 0 1 0
vn -0.83147 0 -0.55557
vn 0 1 0
vn -0.92388 0 -0.38268
vn 0 1 0
vn -0.98079 0 -0.19509
vn 0 1 0
vn -1 0 0
vn 0 1 0
vn -0.98079 0 0.19509
vn 0 1 0
vn -0.92388 0 0.38268
vn 0 1 0
vn -0.83147 0 0.55557
vn 0 1 0
vn -0.70711 0 0.70711
vn 0 1 0
vn -0.55557 0 0.83147
vn 0 1 0
vn -0.38268 0 0.92388
vn 0 1 0
vn -0.19509 0 0.98079
vn 0 1 0
vn -0 0 1
vn 0 1 0
vn 0.19509 0 0.98079
vn 0 1 0
vn 0.38268 0 0.92388
vn 0 1 0
vn 0.55557 0 0.83147
vn 0 1 0
vn 0.70711 0 0.70711
vn 0 1 0
vn 0.83147 0 0.55557
vn 0 1 0
vn 0.92388 0 0.38268
vn 0 1 0
vn 0.98079 0 0.19509
vn 0 1 0
f 3//4 2//2 1//1
f 4//6 3//4 1//1
f 5//8 4//6 1//1
f 6//10 5//8 1//1
f 7//12 6//10 1//1
f 8//14 7//12 1//1
f 9//16 8//14 1//1
f 10//18 9//16 1//1
f 11//20 10//18 1//1
f 12//22 11//20 1//1
f 13//24 12//22 1//1
f 14//26 13//24 1//1
f 15//28 14//26 1//1
f 16//30 15//28 1//1
f 17//32 16//30 1//1
f 18//34 17//32 1//1
f 19//36 18//34 1//1
f 20//38 19//36 1//1
f 21//40 20//38 1//1
f 22//42 21//40 1//1
f 23//44 22//42 1//1
f 24//46 23//44 1//1
f 25//48 24//46 1//1
f 26//50 25//48 1//1
f 27//52 26//50 1//1
f 28//54 27//52 1//1
f 29//56 28//54 1//1
f 30//58 29//56 1//1
f 31//60 30//58 1//1
f 32//62 31//60 1//1
f 33//64 32//62 1//1
f 2//2 33//64 1//1
f 34//67 2//3 3//5
f 35//69 3//5 4//7
f 36//71 4//7 5//9
f 37//73 5//9 6//11
f 38//75 6//11 7//13
f 39//77 7//13 8//15
f 40//79 8//15 9//17
f 41//81 9//17 10//19
f 42//83 10//19 11//21
f 43//85 11//21 12//23
f 44//87 12//23 13//25
f 45//89 13//25 14//27
f 46//91 14//27 15//29
f 47//93 15//29 16//31
f 48//95 16//31 17//33
f 49//97 17//33 18//35
f 50//99 18//35 19//37
f 51//101 19//37 20//39
f 52//103 20//39 21//41
f 53//105 21//41 22//43
f 54//107 22//43 23//45
f 55//109 23//45 24//47
f 56//111 24//47 25//49
f 57//113 25//49 26//51
f 58//115 26//51 27//53
f 59//117 27//53 28//55
f 60//119 28//55 29//57
f 61//121 29//57 30//59
f 62//123 30//59 31//61
f 63//125 31//61 32//63
f 64//127 32//63 33//65
f 65//129 33//65 2//3
f 34//67 3//5 35//69
f 35//69 4//7 36//71
f 36//71 5//9 37//73
f 37//73 6//11 38//75
f 38//75 7//13 39//77
f 39//77 8//15 40//79
f 40//79 9//17 41//81
f 41//81 10//19 42//83
f 42//83 11//21 43//85
f 43//85 12//23 44//87
f 44//87 13//25 45//89
f 45//89 14//27 46//91
f 46//91 15//29 47//93
f 47//93 16//31 48//95
f 48//95 17//33 49//97
f 49//97 18//35 50//99
f 50//99 19//37 51//101
f 51//101 20//39 52//103
f 52//103 21//41 53//105
f 53//105 22//43 54//107
f 54//107 23//45 55//109
f 55//109 24//47 56//111
f 56//111 25//49 57//113
f 57//113 26//51 58//115
f 58//115 27//53 59//117
f 59//117 28//55 60//119
f 60//119 29//57 61//121
f 61//121 30//59 62//123
f 62//123 31//61 63//125
f 63//125 32//63 64//127
f 64//127 33//65 65//129
f 65//129 2//3 34//67
f 66//130 34//66 35//68
f 66//130 35//68 36//70
f 66//130 36//70 37//72
f 66//130 37//72 38//74
f 66//130 38//74 39//76
f 66//130 39//76 40//78
f 66//130 40//78 41//80
f 66//130 41//80 42//82
f 66//130 42//82 43//84
f 66//130 43//84 44//86
f 66//130 44//86 45//88
f 66//130 45//88 46//90
f 66//130 46//90 47//92
f 66//130 47//92 48//94
f 66//130 48//94 49//96
f 66//130 49//96 50//98
f 66//130 50//98 51//100
f 66//130 51//100 52//102
f 66//130 52//102 53//104
f 66//130 53//104 54//106
f 66//130 54//106 55//108
f 66//130 55//108 56//110
f 66//130 56//110 57//112
f 66//130 57//112 58//114
f 66//130 58//114 59//116
f 66//130 59//116 60//118
f 66//130 60//118 61//120
f 66//130 61//120 62//122
f 66//130 62//122 63//124
f 66//130 63//124 64//126
f 66//130 64//126 65//128
f 66//130 65//128 34//66
g Pied
v 0 -0.4 0
v 0.1 -0.4 0
v 0.09239 -0.4 -0.03827
v 0.07071 -0.4 -0.07071
v 0.03827 -0.4 -0.09239
v 0 -0.4 -0.1
v -0.03827 -0.4 -0.09239
v -0.07071 -0.4 -0.07071
v -0.09239 -0.4 -0.03827
v -0.1 -0.4 0
v -0.09239 -0.4 0.03827
v -0.07071 -0.4 0.07071
v -0.03827 -0.4 0.09239
v 0 -0.4 0.1
v 0.03827 -0.4 0.09239
v 0.07071 -0.4 0.07071
v 0.09239 -0.4 0.03827
v 0.1 0.6 0
v 0.09239 0.6 -0.03827
v 0.07071 0.6 -0.07071
v 0.03827 0.6 -0.09239
v 0 0.6 -0.1
v -0.03827 0.6 -0.09239
v -0.07071 0.6 -0.07071
v -0.09239 0.6 -0.03827
v -0.1 0.6 0
v -0.09239 0.6 0.03827
v -0.07071 0.6 0.07071
v -0.03827 0.6 0.09239
v 0 0.6 0.1
v 0.03827 0.6 0.09239
v 0.07071 0.6 0.07071
v 0.09239 0.6 0.03827
v 0 0.6 0
vn 0 -1 0
vn 0 -1 0
vn 1 0 0
vn 0 -1 0
vn 0.92388 0 -0.38268
vn 0 -1 0
vn 0.70711 0 -0.70711
vn 0 -1 0
vn 0.38268 0 -0.92388
vn 0 -1 0
vn -0 0 -1
vn 0 -1 0
vn -0.38268 0 -0.92388
vn 0 -1 0
vn -0.70711 0 -0.70711
vn 0 -1 0
vn -0.92388 0 -0.38268
vn 0 -1 0
vn -1 0 0
vn 0 -1 0
vn -0.92388 0 0.38268
vn 0 -1 0
vn -0.70711 0 0.70711
vn 0 -1 0
vn -0.38268 0 0.92388
vn 0 -1 0
vn 0 0 1
vn 0 -1 0
vn 0.38268 0 0.92388
vn 0 -1 0
vn 0.70711 0 0.70711
vn 0 -1 0
vn 0.92388 0 0.38268
vn 0 1 0
vn 1 0 0
vn 0 1 0
vn 0.92388 0 -0.38268
vn 0 1 0
vn 0.70711 0 -0.70711
vn 0 1 0
vn 0.38268 0 -0.92388
vn 0 1 0
vn 0 0 -1
vn 0 1 0
vn -0.38268 0 -0.92388
vn 0 1 0
vn -0.70711 0 -0.70711
vn 0 1 0
vn -0.92388 0 -0.38268
vn 0 1 0
vn -1 0 -0
vn 0 1 0
vn -0.92388 0 0.38268
vn 0 1 0
vn -0.70711 0 0.70711
vn 0 1 0
vn -0.38268 0 0.92388
vn 0 1 0
vn -0 0 1
vn 0 1 0
vn 0.38268 0 0.92388
vn 0 1 0
vn 0.70711 0 0.70711
vn 0 1 0
vn 0.92388 0 0.38268
vn 0 1 0
f 69//134 68//132 67//131
f 70//136 69//134 67//131
f 71//138 70//136 67//131
f 72//140 71//138 67//131
f 73//142 72//140 67//131
f 74//144 73//142 67//131
f 75//146 74//144 67//131
f 76//148 75//146 67//131
f 77//150 76//148 67//131
f 78//152 77//150 67//131
f 79//154 78//152 67//131
f 80//156 79//154 67//131
f 81//158 80//156 67//131
f 82//160 81//158 67//131
f 83//162 82//160 67//131
f 68//132 83//162 67//131
f 84//165 68//133 69//135
f 85//167 69//135 70//137
f 86//169 70//137 71//139
f 87//171 71//139 72//141
f 88//173 72//141 73//143
f 89//175 73//143 74//145
f 90//177 74//145 75//147
f 91//179 75//147 76//149
f 92//181 76//149 77//151
f 93//183 77//151 78//153
f 94//185 78//153 79//155
f 95//187 79//155 80//157
f 96//189 80//157 81//159
f 97//191 81//159 82//161
f 98//193 82//161 83//163
f 99//195 83//163 68//133
f 84//165 69//135 85//167
f 85//167 70//137 86//169
f 86//169 71//139 87//171
f 87//171 72//141 88//173
f 88//173 73//143 89//175
f 89//175 74//145 90//177
f 90//177 75//147 91//179
f 91//179 76//149 92//181
f 92//181 77//151 93//183
f 93//183 78//153 94//185
f 94//185 79//155 95//187
f 95//187 80//157 96//189
f 96//189 81//159 97//191
f 97//191 82//161 98//193
f 98//193 83//163 99//195
f 99//195 68//133 84//165
f 100//196 84//164 85//166
f 100//196 85//166 86//168
f 100//196 86//168 87//170
f 100//196 87//170 88//172
f 100//196 88//172 89//174
f 100//196 89//174 90//176
f 100//196 90//176 91//178
f 100//196 91//178 92//180
f 100//196 92//180 93//182
f 100//196 93//182 94//184
f 100//196 94//184 95//186
f 100//196 95//186 96//188
f 100//196 96//188 97//190
f 100//196 97//190 98//192
f 100//196 98//192 99//194
f 100//196 99//194 84//164
g Socle
v 0 -0.435 0
v 0.4 -0.435 0
v 0.39231 -0.435 -0.07804
v 0.36955 -0.435 -0.15307
v 0.33259 -0.435 -0.22223
v 0.28284 -0.435 -0.28284
v 0.22223 -0.435 -0.33259
v 0.15307 -0.435 -0.36955
v 0.07804 -0.435 -0.39231
v 0 -0.435 -0.4
v -0.07804 -0.435 -0.39231
v -0.15307 -0.435 -0.36955
v -0.22223 -0.435 -0.33259
v -0.28284 -0.435 -0.28284
v -0.33259 -0.435 -0.22223
v -0.36955 -0.435 -0.15307
v -0.39231 -0.435 -0.07804
v -0.4 -0.435 0
v -0.39231 -0.435 0.07804
v -0.36955 -0.435 0.15307
v -0.33259 -0.435 0.22223
v -0.28284 -0.435 0.28284
v -0.22223 -0.435 0.33259
v -0.15307 -0.435 0.36955
v -0.07804 -0.435 0.39231
v 0 -0.435 0.4
v 0.07804 -0.435 0.39231
v 0.15307 -0.435 0.36955
v 0.22223 -0.435 0.33259
v 0.28284 -0.435 0.28284
v 0.33259 -0.435 0.22223
v 0.36955 -0.435 0.15307
v 0.39231 -0.435 0.07804
v 0.4 -0.365 0
v 0.39231 -0.365 -0.07804
v 0.36955 -0.365 -0.15307
v 0.33259 -0.365 -0.22223
v 0.28284 -0.365 -0.28284
v 0.22223 -0.365 -0.33259
v 0.15307 -0.365 -0.36955
v 0.07804 -0.365 -0.39231
v 0 -0.365 -0.4
v -0.07804 -0.365 -0.39231
v -0.15307 -0.365 -0.36955
v -0.22223 -0.365 -0.33259
v -0.28284 -0.365 -0.28284
v -0.33259 -0.365 -0.22223
v -0.36955 -0.365 -0.15307
v -0.39231 -0.365 -0.07804
v -0.4 -0.365 0
v -0.39231 -0.365 0.07804
v -0.36955 -0.365 0.15307
v -0.33259 -0.365 0.22223
v -0.28284 -0.365 0.28284
v -0.22223 -0.365 0.33259
v -0.15307 -0.365 0.36955
v -0.07804 -0.365 0.39231
v 0 -0.365 0.4
v 0.07804 -0.365 0.39231
v 0.15307 -0.365 0.36955
v 0.22223 -0.365 0.33259
v 0.28284 -0.365 0.28284
v 0.33259 -0.365 0.22223
v 0.36955 -0.365 0.15307
v 0.39231 -0.365 0.07804
v 0 -0.365 0
vn 0 -1 0
vn 0 -1 0
vn 1 0 0
vn 0 -1 0
vn 0.98079 0 -0.19509
vn 0 -1 0
vn 0.92388 0 -0.38268
vn 0 -1 0
vn 0.83147 0 -0.55557
vn 0 -1 0
vn 0.70711 0 -0.70711
vn 0 -1 0
vn 0.55557 0 -0.83147
vn 0 -1 0
vn 0.38268 0 -0.92388
vn 0 -1 0
vn 0.19509 0 -0.98079
vn 0 -1 0
vn -0 0 -1
vn 0 -1 0
vn -0.19509 0 -0.98079
vn 0 -1 0
vn -0.38268 0 -0.92388
vn 0 -1 0
vn -0.55557 0 -0.83147
vn 0 -1 0
vn -0.70711 0 -0.70711
vn 0 -1 0
vn -0.83147 0 -0.55557
vn 0 -1 0
vn -0.92388 0 -0.38268
vn 0 -1 0
vn -0.98079 0 -0.19509
vn 0 -1 0
vn -1 0 0
vn 0 -1 0
vn -0.98079 0 0.19509
vn 0 -1 0
vn -0.92388 0 0.38268
vn 0 -1 0
vn -0.83147 0 0.55557
vn 0 -1 0
vn -0.70711 0 0.70711
vn 0 -1 0
vn -0.55557 0 0.83147
vn 0 -1 0
vn -0.38268 0 0.92388
vn 0 -1 0
vn -0.19509 0 0.98079
vn 0 -1 0
vn -0 0 1
vn 0 -1 0
vn 0.19509 0 0.98079
vn 0 -1 0
vn 0.38268 0 0.92388
vn 0 -1 0
vn 0.55557 0 0.83147
vn 0 -1 0
vn 0.70711 0 0.70711
vn 0 -1 0
vn 0.83147 0 0.55557
vn 0 -1 0
vn 0.92388 0 0.38268
vn 0 -1 0
vn 0.98079 0 0.19509
vn 0 1 0
vn 1 0 0
vn 0 1 0
vn 0.98079 0 -0.19509
vn 0 1 0
vn 0.92388 0 -0.38268
vn 0 1 0
vn 0.83147 0 -0.55557
vn 0 1 0
vn 0.70711 0 -0.70711
vn 0 1 0
vn 0.55557 0 -0.83147
vn 0 1 0
vn 0.38268 0 -0.92388
vn 0 1 0
vn 0.19509 0 -0.98079
vn 0 1 0
vn -0 0 -1
vn 0 1 0
vn -0.19509 0 -0.98079
vn 0 1 0
vn -0.38268 0 -0.92388
vn 0 1 0
vn -0.55557 0 -0.83147
vn 0 1 0
vn -0.70711 0 -0.70711
vn 0 1 0
vn -0.83147 0 -0.55557
vn 0 1 0
vn -0.92388 0 -0.38268
vn 0 1 0
vn -0.98079 0 -0.19509
vn 0 1 0
vn -1 0 0
vn 0 1 0
vn -0.98079 0 0.19509
vn 0 1 0
vn -0.92388 0 0.38268
vn 0 1 0
vn -0.83147 0 0.55557
vn 0 1 0
vn -0.70711 0 0.70711
vn 0 1 0
vn -0.55557 0 0.83147
vn 0 1 0
vn -0.38268 0 0.92388
vn 0 1 0
vn -0.19509 0 0.98079
vn 0 1 0
vn -0 0 1
vn 0 1 0
vn 0.19509 0 0.98079
vn 0 1 0
vn 0.38268 0 0.92388
vn 0 1 0
vn 0.55557 0 0.83147
vn 0 1 0
vn 0.70711 0 0.70711
vn 0 1 0
vn 0.83147 0 0.55557
vn 0 1 0
vn 0.92388 0 0.38268
vn 0 1 0
vn 0.98079 0 0.19509
vn 0 1 0
f 103//200 102//198 101//197
f 104//202 103//200 101//197
f 105//204 104//202 101//197
f 106//206 105//204 101//197
f 107//208 106//206 101//197
f 108//210 107//208 101//197
f 109//212 108//210 101//197
f 110//214 109//212 101//197
f 111//216 110//214 101//197
f 112//218 111//216 101//197
f 113//220 112//218 101//197
f 114//222 113//220 101//197
f 115//224 114//222 101//197
f 116//226 115//224 101//197
f 117//228 116//226 101//197
f 118//230 117//228 101//197
f 119//232 118//230 101//197
f 120//234 119//232 101//197
f 121//236 120//234 101//197
f 122//238 121//236 101//197
f 123//240 122//238 101//197
f 124//242 123//240 101//197
f 125//244 124//242 101//197
f 126//246 125//244 101//197
f 127//248 126//246 101//197
f 128//250 127//248 101//197
f 129//252 128//250 101//197
f 130//254 129//252 101//197
f 131//256 130//254 101//197
f 132//258 131//256 101//197
f 133//260 132//258 101//197
f 102//198 133//260 101//197
f 134//263 102//199 103//201
f 135//265 103//201 104//203
f 136//267 104//203 105//205
f 137//269 105//205 106//207
f 138//271 106//207 107//209
f 139//273 107//209 108//211
f 140//275 108//211 109//213
f 141//277 109//213 110//215
f 142//279 110//215 111//217
f 143//281 111//217 112//219
f 144//283 112//219 113//221
f 145//285 113//221 114//223
f 146//287 114//223 115//225
f 147//289 115//225 116//227
f 148//291 116//227 117//229
f 149//293 117//229 118//231
f 150//295 118//231 119//233
f 151//297 119//233 120//235
f 152//299 120//235 121//237
f 153//301 121//237 122//239
f 154//303 122//239 123//241
f 155//305 123//241 124//243
f 156//307 124//243 125//245
f 157//309 125//245 126//247
f 158//311 126//247 127//249
f 159//313 127//249 128//251
f 160//315 128//251 129//253
f 161//317 129//253 130//255
f 162//319 130//255 131//257
f 163//321 131//257 132//259
f 164//323 132//259 133//261
f 165//325 133//261 102//199
f 134//263 103//201 135//265
f 135//265 104//203 136//267
f 136//267 105//205 137//269
f 137//269 106//207 138//271
f 138//271 107//209 139//273
f 139//273 108//211 140//275
f 140//275 109//213 141//277
f 141//277 110//215 142//279
f 142//279 111//217 143//281
f 143//281 112//219 144//283
f 144//283 113//221 145//285
f 145//285 114//223 146//287
f 146//287 115//225 147//289
f 147//289 116//227 148//291
f 148//291 117//229 149//293
f 149//293 118//231 150//295
f 150//295 119//233 151//297
f 151//297 120//235 152//299
f 152//299 121//237 153//301
f 153//301 122//239 154//303
f 154//303 123//241 155//305
f 155//305 124//243 156//307
f 156//307 125//245 157//309
f 157//309 126//247 158//311
f 158//311 127//249 159//313
f 159//313 128//251 160//315
f 160//315 129//253 161//317
f 161//317 130//255 162//319
f 162//319 131//257 163//321
f 163//321 132//259 164//323
f 164//323 133//261 165//325
f 165//325 102//199 134//263
f 166//326 134//262 135//264
f 166//326 135//264 136//266
f 166//326 136//266 137//268
f 166//326 137//268 138//270
f 166//326 138//270 139//272
f 166//326 139//272 140//274
f 166//326 140//274 141//276
f 166//326 141//276 142//278
f 166//326 142//278 143//280
f 166//326 143//280 144//282
f 166//326 144//282 145//284
f 166//326 145//284 146//286
f 166//326 146//286 147//288
f 166//326 147//288 148//290
f 166//326 148//290 149//292
f 166//326 149//292 150//294
f 166//326 150//294 151//296
f 166//326 151//296 152//298
f 166//326 152//298 153//300
f 166//326 153//300 154//302
f 166//326 154//302 155//304
f 166//326 155//304 156//306
f 166//326 156//306 157//308
f 166//326 157//308 158//310
f 166//326 158//310 159//312
f 166//326 159//312 160//314
f 166//326 160//314 161//316
f 166//326 161//316 162//318
f 166//326 162//318 163//320
f 166//326 163//320 164//322
f 166//326 164//322 165//324
f 166//326 165//324 134//262
