#Produced by Art of Illusion 2.4.1, Mon Jul 02 13:57:33 CEST 2007
g Porte
usemtl white
v 0.00284 0.01103 -0.01157
v 0.79284 0.01103 -0.01157
v 0.79284 0.01103 -0.02157
v 0.00284 0.01103 -0.02157
v 0.00284 2.48103 -0.01157
v 0.79284 2.48103 -0.01157
v 0.79284 2.48103 -0.02157
v 0.00284 2.48103 -0.02157
v 0.39784 1.24603 -0.01157
v 0.79284 1.24603 -0.01657
v 0.39784 1.24603 -0.02157
v 0.00284 1.24603 -0.01657
v 0.39784 0.01103 -0.01657
v 0.39784 2.48103 -0.01657
vn 1 0 0
vn 0 -1 0
vn 0 -1 0
vn 0 -1 0
vn 0 -1 0
vn 1 0 0
vn 1 0 0
vn 1 0 0
vn 1 0 0
vn 0 0 1
vn 0 0 1
vn 0 0 1
vn 0 0 1
vn -1 0 0
vn -1 0 0
vn -1 0 0
vn -1 0 0
vn 0 1 0
vn 0 1 0
vn 0 1 0
vn 0 1 0
vn 0 0 -1
vn 0 0 -1
vn 0 0 -1
vn 0 0 -1
f 2//2 1//2 13//2
f 3//3 2//3 13//3
f 4//4 3//4 13//4
f 1//5 4//5 13//5
f 2//6 3//6 10//6
f 3//7 7//7 10//7
f 7//8 6//8 10//8
f 6//9 2//9 10//9
f 1//10 2//10 9//10
f 2//11 6//11 9//11
f 6//12 5//12 9//12
f 5//13 1//13 9//13
f 4//14 1//14 12//14
f 1//15 5//15 12//15
f 5//16 8//16 12//16
f 8//17 4//17 12//17
f 5//18 6//18 14//18
f 6//19 7//19 14//19
f 7//20 8//20 14//20
f 8//21 5//21 14//21
f 3//22 4//22 11//22
f 4//23 8//23 11//23
f 8//24 7//24 11//24
f 7//25 3//25 11//25
g Bord
v 0.78054 2.48041 -0.00449
v 0.78054 0.01041 -0.00449
v 0.78143 2.48041 -0.00478
v 0.78143 0.01041 -0.00478
v 0.78337 2.48041 -0.00626
v 0.78337 0.01041 -0.00626
v 0.78771 2.48041 -0.00651
v 0.78771 0.01041 -0.00651
v 0.79214 2.48041 -0.00635
v 0.79214 0.01041 -0.00635
v 0.79439 2.48041 -0.00542
v 0.79439 0.01041 -0.00542
v 0.79613 2.48041 -0.00452
v 0.79613 0.01041 -0.00452
v 0.79839 2.48041 -0.00427
v 0.79839 0.01041 -0.00427
v 0.80021 2.48041 -0.00488
v 0.80021 0.01041 -0.00488
v 0.80032 2.48041 -0.01969
v 0.80032 0.01041 -0.01969
v 0.80034 2.48041 -0.03449
v 0.80034 0.01041 -0.03449
v 0.79034 2.48041 -0.03449
v 0.79034 0.01041 -0.03449
v 0.78034 2.48041 -0.03449
v 0.78034 0.01041 -0.03449
v 0.78034 2.48041 -0.02565
v 0.78034 0.01041 -0.02565
v 0.78034 2.48041 -0.0168
v 0.78034 0.01041 -0.0168
v 0.7803 2.48041 -0.01056
v 0.7803 0.01041 -0.01056
vn -0.5746 0 0.81844
vn -0.5746 0 0.81844
vn 0.46074 0 0.88754
vn 0.46074 0 0.88754
vn 0.34709 0 0.93783
vn 0.34709 0 0.93783
vn 0.01135 0 0.99994
vn 0.01135 0 0.99994
vn -0.21254 0 0.97715
vn -0.21254 0 0.97715
vn -0.42146 0 0.90685
vn -0.42146 0 0.90685
vn -0.29027 0 0.95695
vn -0.29027 0 0.95695
vn 0.10701 0 0.99426
vn 0.10701 0 0.99426
vn 0.99997 0 0.00745
vn 0.31982 0 0.94748
vn 0.99997 0 0.00745
vn 0.31982 0 0.94748
vn 0.99999 0 0.00436
vn 0.99999 0 0.00436
vn 0 0 -1
vn 1 0 0.00126
vn 0 0 -1
vn 1 0 0.00126
vn 0 0 -1
vn 0 0 -1
vn -1 0 0
vn 0 0 -1
vn -1 0 0
vn 0 0 -1
vn -1 0 0
vn -1 0 0
vn -0.99998 0 -0.00581
vn -1 0 0
vn -0.99998 0 -0.00581
vn -1 0 0
vn -0.99986 0 0.0166
vn -0.99986 0 0.0166
f 15//26 16//27 18//29
f 15//26 18//29 17//28
f 17//28 18//29 20//31
f 17//28 20//31 19//30
f 19//30 20//31 22//33
f 19//30 22//33 21//32
f 21//32 22//33 24//35
f 21//32 24//35 23//34
f 23//34 24//35 26//37
f 23//34 26//37 25//36
f 25//36 26//37 28//39
f 25//36 28//39 27//38
f 27//38 28//39 30//41
f 27//38 30//41 29//40
f 29//40 30//41 32//45
f 29//40 32//45 31//43
f 31//42 32//44 34//47
f 31//42 34//47 33//46
f 33//46 34//47 36//51
f 33//46 36//51 35//49
f 35//48 36//50 38//53
f 35//48 38//53 37//52
f 37//52 38//53 40//57
f 37//52 40//57 39//55
f 39//54 40//56 42//59
f 39//54 42//59 41//58
f 41//58 42//59 44//63
f 41//58 44//63 43//61
f 43//60 44//62 46//65
f 43//60 46//65 45//64
f 45//64 46//65 16//27
f 45//64 16//27 15//26
g Bord_1
v 0.01894 0.01 -0.00446
v 0.01894 2.48 -0.00446
v 0.01805 0.01 -0.00474
v 0.01805 2.48 -0.00474
v 0.0161 0.01 -0.00622
v 0.0161 2.48 -0.00622
v 0.01176 0.01 -0.00648
v 0.01176 2.48 -0.00648
v 0.00734 0.01 -0.00632
v 0.00734 2.48 -0.00632
v 0.00508 0.01 -0.00538
v 0.00508 2.48 -0.00538
v 0.00334 0.01 -0.00448
v 0.00334 2.48 -0.00448
v 0.00109 0.01 -0.00423
v 0.00109 2.48 -0.00423
v -0.00073 0.01 -0.00484
v -0.00073 2.48 -0.00484
v -0.00084 0.01 -0.01965
v -0.00084 2.48 -0.01965
v -0.00086 0.01 -0.03446
v -0.00086 2.48 -0.03446
v 0.00914 0.01 -0.03446
v 0.00914 2.48 -0.03446
v 0.01914 0.01 -0.03446
v 0.01914 2.48 -0.03446
v 0.01914 0.01 -0.02561
v 0.01914 2.48 -0.02561
v 0.01914 0.01 -0.01677
v 0.01914 2.48 -0.01677
v 0.01918 0.01 -0.01053
v 0.01918 2.48 -0.01053
vn 0.5746 0 0.81844
vn 0.5746 0 0.81844
vn -0.46074 -0 0.88754
vn -0.46074 -0 0.88754
vn -0.34709 -0 0.93783
vn -0.34709 -0 0.93783
vn -0.01135 -0 0.99994
vn -0.01135 -0 0.99994
vn 0.21254 0 0.97715
vn 0.21254 0 0.97715
vn 0.42146 0 0.90685
vn 0.42146 0 0.90685
vn 0.29027 0 0.95695
vn 0.29027 0 0.95695
vn -0.10701 -0 0.99426
vn -0.10701 -0 0.99426
vn -0.99997 -0 0.00745
vn -0.31982 -0 0.94748
vn -0.99997 -0 0.00745
vn -0.31982 -0 0.94748
vn -0.99999 -0 0.00436
vn -0.99999 -0 0.00436
vn 0 -0 -1
vn -1 -0 0.00126
vn 0 -0 -1
vn -1 -0 0.00126
vn 0 -0 -1
vn 0 -0 -1
vn 1 0 0
vn 0 -0 -1
vn 1 0 0
vn 0 -0 -1
vn 1 0 0
vn 1 0 0
vn 0.99998 0 -0.00581
vn 1 0 0
vn 0.99998 0 -0.00581
vn 1 0 0
vn 0.99986 0 0.0166
vn 0.99986 0 0.0166
f 47//66 48//67 50//69
f 47//66 50//69 49//68
f 49//68 50//69 52//71
f 49//68 52//71 51//70
f 51//70 52//71 54//73
f 51//70 54//73 53//72
f 53//72 54//73 56//75
f 53//72 56//75 55//74
f 55//74 56//75 58//77
f 55//74 58//77 57//76
f 57//76 58//77 60//79
f 57//76 60//79 59//78
f 59//78 60//79 62//81
f 59//78 62//81 61//80
f 61//80 62//81 64//85
f 61//80 64//85 63//83
f 63//82 64//84 66//87
f 63//82 66//87 65//86
f 65//86 66//87 68//91
f 65//86 68//91 67//89
f 67//88 68//90 70//93
f 67//88 70//93 69//92
f 69//92 70//93 72//97
f 69//92 72//97 71//95
f 71//94 72//96 74//99
f 71//94 74//99 73//98
f 73//98 74//99 76//103
f 73//98 76//103 75//101
f 75//100 76//102 78//105
f 75//100 78//105 77//104
f 77//104 78//105 48//67
f 77//104 48//67 47//66
g Bord_2
v -0.72336 0.01 -0.04266
v -0.72336 2.48 -0.04266
v -0.72425 0.01 -0.04294
v -0.72425 2.48 -0.04294
v -0.7262 0.01 -0.04442
v -0.7262 2.48 -0.04442
v -0.73054 0.01 -0.04468
v -0.73054 2.48 -0.04468
v -0.73496 0.01 -0.04452
v -0.73496 2.48 -0.04452
v -0.73722 0.01 -0.04358
v -0.73722 2.48 -0.04358
v -0.73896 0.01 -0.04268
v -0.73896 2.48 -0.04268
v -0.74121 0.01 -0.04243
v -0.74121 2.48 -0.04243
v -0.74303 0.01 -0.04304
v -0.74303 2.48 -0.04304
v -0.74314 0.01 -0.05785
v -0.74314 2.48 -0.05785
v -0.74316 0.01 -0.07266
v -0.74316 2.48 -0.07266
v -0.73316 0.01 -0.07266
v -0.73316 2.48 -0.07266
v -0.72316 0.01 -0.07266
v -0.72316 2.48 -0.07266
v -0.72316 0.01 -0.06381
v -0.72316 2.48 -0.06381
v -0.72316 0.01 -0.05497
v -0.72316 2.48 -0.05497
v -0.72312 0.01 -0.04873
v -0.72312 2.48 -0.04873
vn 0.5746 0 0.81844
vn 0.5746 0 0.81844
vn -0.46074 -0 0.88754
vn -0.46074 -0 0.88754
vn -0.34709 -0 0.93783
vn -0.34709 -0 0.93783
vn -0.01135 -0 0.99994
vn -0.01135 -0 0.99994
vn 0.21254 0 0.97715
vn 0.21254 0 0.97715
vn 0.42146 0 0.90685
vn 0.42146 0 0.90685
vn 0.29027 0 0.95695
vn 0.29027 0 0.95695
vn -0.10701 -0 0.99426
vn -0.10701 -0 0.99426
vn -0.99997 -0 0.00745
vn -0.31982 -0 0.94748
vn -0.99997 -0 0.00745
vn -0.31982 -0 0.94748
vn -0.99999 -0 0.00436
vn -0.99999 -0 0.00436
vn 0 -0 -1
vn -1 -0 0.00126
vn 0 -0 -1
vn -1 -0 0.00126
vn 0 -0 -1
vn 0 -0 -1
vn 1 0 0
vn 0 -0 -1
vn 1 0 0
vn 0 -0 -1
vn 1 0 0
vn 1 0 0
vn 0.99998 0 -0.00581
vn 1 0 0
vn 0.99998 0 -0.00581
vn 1 0 0
vn 0.99986 0 0.0166
vn 0.99986 0 0.0166
f 79//106 80//107 82//109
f 79//106 82//109 81//108
f 81//108 82//109 84//111
f 81//108 84//111 83//110
f 83//110 84//111 86//113
f 83//110 86//113 85//112
f 85//112 86//113 88//115
f 85//112 88//115 87//114
f 87//114 88//115 90//117
f 87//114 90//117 89//116
f 89//116 90//117 92//119
f 89//116 92//119 91//118
f 91//118 92//119 94//121
f 91//118 94//121 93//120
f 93//120 94//121 96//125
f 93//120 96//125 95//123
f 95//122 96//124 98//127
f 95//122 98//127 97//126
f 97//126 98//127 100//131
f 97//126 100//131 99//129
f 99//128 100//130 102//133
f 99//128 102//133 101//132
f 101//132 102//133 104//137
f 101//132 104//137 103//135
f 103//134 104//136 106//139
f 103//134 106//139 105//138
f 105//138 106//139 108//143
f 105//138 108//143 107//141
f 107//140 108//142 110//145
f 107//140 110//145 109//144
f 109//144 110//145 80//107
f 109//144 80//107 79//106
g Bord_3
v 0.03798 2.48041 -0.04266
v 0.03798 0.01041 -0.04266
v 0.03888 2.48041 -0.04294
v 0.03888 0.01041 -0.04294
v 0.04082 2.48041 -0.04442
v 0.04082 0.01041 -0.04442
v 0.04516 2.48041 -0.04468
v 0.04516 0.01041 -0.04468
v 0.04958 2.48041 -0.04452
v 0.04958 0.01041 -0.04452
v 0.05184 2.48041 -0.04359
v 0.05184 0.01041 -0.04359
v 0.05358 2.48041 -0.04269
v 0.05358 0.01041 -0.04269
v 0.05583 2.48041 -0.04243
v 0.05583 0.01041 -0.04243
v 0.05765 2.48041 -0.04305
v 0.05765 0.01041 -0.04305
v 0.05776 2.48041 -0.05786
v 0.05776 0.01041 -0.05786
v 0.05778 2.48041 -0.07266
v 0.05778 0.01041 -0.07266
v 0.04778 2.48041 -0.07266
v 0.04778 0.01041 -0.07266
v 0.03778 2.48041 -0.07266
v 0.03778 0.01041 -0.07266
v 0.03778 2.48041 -0.06382
v 0.03778 0.01041 -0.06382
v 0.03778 2.48041 -0.05497
v 0.03778 0.01041 -0.05497
v 0.03775 2.48041 -0.04873
v 0.03775 0.01041 -0.04873
vn -0.5746 0 0.81844
vn -0.5746 0 0.81844
vn 0.46074 0 0.88754
vn 0.46074 0 0.88754
vn 0.34709 0 0.93783
vn 0.34709 0 0.93783
vn 0.01135 0 0.99994
vn 0.01135 0 0.99994
vn -0.21254 0 0.97715
vn -0.21254 0 0.97715
vn -0.42146 0 0.90685
vn -0.42146 0 0.90685
vn -0.29027 0 0.95695
vn -0.29027 0 0.95695
vn 0.10701 0 0.99426
vn 0.10701 0 0.99426
vn 0.99997 0 0.00745
vn 0.31982 0 0.94748
vn 0.99997 0 0.00745
vn 0.31982 0 0.94748
vn 0.99999 0 0.00436
vn 0.99999 0 0.00436
vn 0 0 -1
vn 1 0 0.00126
vn 0 0 -1
vn 1 0 0.00126
vn 0 0 -1
vn 0 0 -1
vn -1 0 0
vn 0 0 -1
vn -1 0 0
vn 0 0 -1
vn -1 0 0
vn -1 0 0
vn -0.99998 0 -0.00581
vn -1 0 0
vn -0.99998 0 -0.00581
vn -1 0 0
vn -0.99986 0 0.0166
vn -0.99986 0 0.0166
f 111//146 112//147 114//149
f 111//146 114//149 113//148
f 113//148 114//149 116//151
f 113//148 116//151 115//150
f 115//150 116//151 118//153
f 115//150 118//153 117//152
f 117//152 118//153 120//155
f 117//152 120//155 119//154
f 119//154 120//155 122//157
f 119//154 122//157 121//156
f 121//156 122//157 124//159
f 121//156 124//159 123//158
f 123//158 124//159 126//161
f 123//158 126//161 125//160
f 125//160 126//161 128//165
f 125//160 128//165 127//163
f 127//162 128//164 130//167
f 127//162 130//167 129//166
f 129//166 130//167 132//171
f 129//166 132//171 131//169
f 131//168 132//170 134//173
f 131//168 134//173 133//172
f 133//172 134//173 136//177
f 133//172 136//177 135//175
f 135//174 136//176 138//179
f 135//174 138//179 137//178
f 137//178 138//179 140//183
f 137//178 140//183 139//181
f 139//180 140//182 142//185
f 139//180 142//185 141//184
f 141//184 142//185 112//147
f 141//184 112//147 111//146
g Porte_1
v -0.73972 0.01103 -0.04974
v 0.05028 0.01103 -0.04974
v 0.05028 0.01103 -0.05974
v -0.73972 0.01103 -0.05974
v -0.73972 2.48103 -0.04974
v 0.05028 2.48103 -0.04974
v 0.05028 2.48103 -0.05974
v -0.73972 2.48103 -0.05974
v -0.34472 1.24603 -0.04974
v 0.05028 1.24603 -0.05474
v -0.34472 1.24603 -0.05974
v -0.73972 1.24603 -0.05474
v -0.34472 0.01103 -0.05474
v -0.34472 2.48103 -0.05474
vn 1 0 0
vn 0 -1 0
vn 0 -1 0
vn 0 -1 0
vn 0 -1 0
vn 1 0 0
vn 1 0 0
vn 1 0 0
vn 1 0 0
vn 0 0 1
vn 0 0 1
vn 0 0 1
vn 0 0 1
vn -1 0 0
vn -1 0 0
vn -1 0 0
vn -1 0 0
vn 0 1 0
vn 0 1 0
vn 0 1 0
vn 0 1 0
vn 0 0 -1
vn 0 0 -1
vn 0 0 -1
vn 0 0 -1
f 144//187 143//187 155//187
f 145//188 144//188 155//188
f 146//189 145//189 155//189
f 143//190 146//190 155//190
f 144//191 145//191 152//191
f 145//192 149//192 152//192
f 149//193 148//193 152//193
f 148//194 144//194 152//194
f 143//195 144//195 151//195
f 144//196 148//196 151//196
f 148//197 147//197 151//197
f 147//198 143//198 151//198
f 146//199 143//199 154//199
f 143//200 147//200 154//200
f 147//201 150//201 154//201
f 150//202 146//202 154//202
f 147//203 148//203 156//203
f 148//204 149//204 156//204
f 149//205 150//205 156//205
f 150//206 147//206 156//206
f 145//207 146//207 153//207
f 146//208 150//208 153//208
f 150//209 149//209 153//209
f 149//210 145//210 153//210
g Rail_bas
v 0.80027 0.0002 -0.07604
v -0.73973 0.0002 -0.07604
v 0.80027 0.00217 -0.07513
v -0.73973 0.00217 -0.07513
v 0.80027 0.00425 -0.07382
v -0.73973 0.00425 -0.07382
v 0.80027 0.00498 -0.07214
v -0.73973 0.00498 -0.07214
v 0.80027 0.0052 -0.07074
v -0.73973 0.0052 -0.07074
v 0.80027 0.0027 -0.07074
v -0.73973 0.0027 -0.07074
v 0.80027 0.0002 -0.07074
v -0.73973 0.0002 -0.07074
v 0.80027 0.0002 -0.0672
v -0.73973 0.0002 -0.0672
v 0.80027 0.0002 -0.06367
v -0.73973 0.0002 -0.06367
v 0.80027 0.0027 -0.06367
v -0.73973 0.0027 -0.06367
v 0.80027 0.0052 -0.06367
v -0.73973 0.0052 -0.06367
v 0.80027 0.00515 -0.06204
v -0.73973 0.00515 -0.06204
v 0.80027 0.00456 -0.06016
v -0.73973 0.00456 -0.06016
v 0.80027 0.00234 -0.05893
v -0.73973 0.00234 -0.05893
v 0.80027 0.0002 -0.05814
v -0.73973 0.0002 -0.05814
v 0.80027 0.0002 -0.04824
v -0.73973 0.0002 -0.04824
v 0.80027 0.0002 -0.03834
v -0.73973 0.0002 -0.03834
v 0.80027 0.00211 -0.03756
v -0.73973 0.00211 -0.03756
v 0.80027 0.00417 -0.03632
v -0.73973 0.00417 -0.03632
v 0.80027 0.00499 -0.03435
v -0.73973 0.00499 -0.03435
v 0.80027 0.00531 -0.03264
v -0.73973 0.00531 -0.03264
v 0.80027 0.00276 -0.03263
v -0.73973 0.00276 -0.03263
v 0.80027 0.0002 -0.03261
v -0.73973 0.0002 -0.03261
v 0.80027 0.0002 -0.02891
v -0.73973 0.0002 -0.02891
v 0.80027 0.0002 -0.02521
v -0.73973 0.0002 -0.02521
v 0.80027 0.0027 -0.02522
v -0.73973 0.0027 -0.02522
v 0.80027 0.0052 -0.02523
v -0.73973 0.0052 -0.02523
v 0.80027 0.00493 -0.02359
v -0.73973 0.00493 -0.02359
v 0.80027 0.00417 -0.02173
v -0.73973 0.00417 -0.02173
v 0.80027 0.00212 -0.02062
v -0.73973 0.00212 -0.02062
v 0.80027 0.0002 -0.01996
v -0.73973 0.0002 -0.01996
vn 0 0.42211 -0.90654
vn 0 0.42211 -0.90654
vn 0 0.42211 -0.90654
vn 0 0.47668 -0.87908
vn 0 0.47668 -0.87908
vn 0 0.75797 -0.65229
vn 0 0.75797 -0.65229
vn 0 0.96042 -0.27854
vn 0 0.96042 -0.27854
vn 0 0 1
vn 0 0.98783 -0.15553
vn 0 0 1
vn 0 0.98783 -0.15553
vn 0 0 1
vn 0 0 1
vn 0 1 0
vn 0 0 1
vn 0 1 0
vn 0 0 1
vn 0 1 0
vn 0 1 0
vn 0 0 -1
vn 0 1 0
vn 0 0 -1
vn 0 1 0
vn 0 0 -1
vn 0 0 -1
vn 0 0.99958 0.02901
vn 0 0 -1
vn 0 0.99958 0.02901
vn 0 0 -1
vn 0 0.98606 0.16636
vn 0 0.98606 0.16636
vn 0 0.77428 0.63285
vn 0 0.77428 0.63285
vn 0 0.41666 0.90906
vn 0 0.41666 0.90906
vn 0 1 0
vn 0 0.34659 0.93802
vn 0 1 0
vn 0 0.34659 0.93802
vn 0 1 0
vn 0 1 0
vn 0 0.37779 -0.92589
vn 0 1 0
vn 0 0.37779 -0.92589
vn 0 1 0
vn 0 0.44849 -0.89379
vn 0 0.44849 -0.89379
vn 0 0.75716 -0.65323
vn 0 0.75716 -0.65323
vn 0 0.95783 -0.28733
vn 0 0.95783 -0.28733
vn 0 0.00553 0.99998
vn 0 0.98252 -0.18616
vn 0 0.00553 0.99998
vn 0 0.98252 -0.18616
vn 0 0.00553 0.99998
vn 0 0.00553 0.99998
vn 0 1 0
vn 0 0.00553 0.99998
vn 0 1 0
vn 0 0.00553 0.99998
vn 0 1 0
vn 0 1 0
vn 0 -0.00566 -0.99998
vn 0 1 0
vn 0 -0.00566 -0.99998
vn 0 1 0
vn 0 -0.00566 -0.99998
vn 0 -0.00566 -0.99998
vn 0 0.98693 0.16113
vn 0 -0.00566 -0.99998
vn 0 0.98693 0.16113
vn 0 -0.00566 -0.99998
vn 0 0.9623 0.272
vn 0 0.9623 0.272
vn 0 0.74318 0.6691
vn 0 0.74318 0.6691
vn 0 0.40193 0.91567
vn 0 0.40193 0.91567
vn 0 0.3272 0.94496
vn 0 0.3272 0.94496
vn 0 0.3272 0.94496
f 157//211 158//213 160//215
f 157//211 160//215 159//214
f 159//214 160//215 162//217
f 159//214 162//217 161//216
f 161//216 162//217 164//219
f 161//216 164//219 163//218
f 163//218 164//219 166//223
f 163//218 166//223 165//221
f 165//220 166//222 168//225
f 165//220 168//225 167//224
f 167//224 168//225 170//229
f 167//224 170//229 169//227
f 169//226 170//228 172//231
f 169//226 172//231 171//230
f 171//230 172//231 174//235
f 171//230 174//235 173//233
f 173//232 174//234 176//237
f 173//232 176//237 175//236
f 175//236 176//237 178//241
f 175//236 178//241 177//239
f 177//238 178//240 180//243
f 177//238 180//243 179//242
f 179//242 180//243 182//245
f 179//242 182//245 181//244
f 181//244 182//245 184//247
f 181//244 184//247 183//246
f 183//246 184//247 186//251
f 183//246 186//251 185//249
f 185//248 186//250 188//253
f 185//248 188//253 187//252
f 187//252 188//253 190//257
f 187//252 190//257 189//255
f 189//254 190//256 192//259
f 189//254 192//259 191//258
f 191//258 192//259 194//261
f 191//258 194//261 193//260
f 193//260 194//261 196//263
f 193//260 196//263 195//262
f 195//262 196//263 198//267
f 195//262 198//267 197//265
f 197//264 198//266 200//269
f 197//264 200//269 199//268
f 199//268 200//269 202//273
f 199//268 202//273 201//271
f 201//270 202//272 204//275
f 201//270 204//275 203//274
f 203//274 204//275 206//279
f 203//274 206//279 205//277
f 205//276 206//278 208//281
f 205//276 208//281 207//280
f 207//280 208//281 210//285
f 207//280 210//285 209//283
f 209//282 210//284 212//287
f 209//282 212//287 211//286
f 211//286 212//287 214//289
f 211//286 214//289 213//288
f 213//288 214//289 216//291
f 213//288 216//291 215//290
f 215//290 216//291 218//294
f 215//290 218//294 217//293
g Rail_haut
v -0.73955 2.458 0.00015
v 0.80045 2.458 0.00015
v -0.73955 2.458 -0.00088
v 0.80045 2.458 -0.00088
v -0.73955 2.458 -0.00191
v 0.80045 2.458 -0.00191
v -0.73955 2.478 -0.00198
v 0.80045 2.478 -0.00198
v -0.73955 2.498 -0.00205
v 0.80045 2.498 -0.00205
v -0.73955 2.498 -0.02006
v 0.80045 2.498 -0.02006
v -0.73955 2.498 -0.03807
v 0.80045 2.498 -0.03807
v -0.73955 2.478 -0.03806
v 0.80045 2.478 -0.03806
v -0.73955 2.458 -0.03805
v 0.80045 2.458 -0.03805
v -0.73955 2.458 -0.03908
v 0.80045 2.458 -0.03908
v -0.73955 2.458 -0.04011
v 0.80045 2.458 -0.04011
v -0.73955 2.478 -0.04011
v 0.80045 2.478 -0.04011
v -0.73955 2.498 -0.04012
v 0.80045 2.498 -0.04012
v -0.73955 2.498 -0.05876
v 0.80045 2.498 -0.05876
v -0.73955 2.498 -0.07741
v 0.80045 2.498 -0.07741
v -0.73955 2.478 -0.07739
v 0.80045 2.478 -0.07739
v -0.73955 2.458 -0.07738
v 0.80045 2.458 -0.07738
v -0.73955 2.458 -0.07851
v 0.80045 2.458 -0.07851
v -0.73955 2.458 -0.07964
v 0.80045 2.458 -0.07964
v -0.73955 2.479 -0.07967
v 0.80045 2.479 -0.07967
v -0.73955 2.5 -0.0797
v 0.80045 2.5 -0.0797
v -0.73955 2.5 -0.03988
v 0.80045 2.5 -0.03988
v -0.73955 2.5 -0.00005
v 0.80045 2.5 -0.00005
v -0.73955 2.479 0.00005
v 0.80045 2.479 0.00005
vn 0 -0.00474 -0.99999
vn 0 1 0
vn 0 1 0
vn 0 -0.00474 -0.99999
vn 0 1 0
vn 0 1 0
vn 0 0.00364 0.99999
vn 0 1 0
vn 0 0.00364 0.99999
vn 0 1 0
vn 0 0.00364 0.99999
vn 0 0.00364 0.99999
vn 0 1 0
vn 0 0.00364 0.99999
vn 0 1 0
vn 0 0.00364 0.99999
vn 0 1 0
vn 0 1 0
vn 0 -0.00067 -1
vn 0 1 0
vn 0 -0.00067 -1
vn 0 1 0
vn 0 -0.00067 -1
vn 0 -0.00067 -1
vn 0 1 0
vn 0 -0.00067 -1
vn 0 1 0
vn 0 -0.00067 -1
vn 0 1 0
vn 0 1 0
vn 0 0.00029 1
vn 0 1 0
vn 0 0.00029 1
vn 0 1 0
vn 0 0.00029 1
vn 0 0.00029 1
vn 0 1 0
vn 0 0.00029 1
vn 0 1 0
vn 0 0.00029 1
vn 0 1 0
vn 0 1 0
vn 0 -0.00067 -1
vn 0 1 0
vn 0 -0.00067 -1
vn 0 1 0
vn 0 -0.00067 -1
vn 0 -0.00067 -1
vn 0 1 0
vn 0 -0.00067 -1
vn 0 1 0
vn 0 -0.00067 -1
vn 0 1 0
vn 0 1 0
vn 0 0.00155 1
vn 0 1 0
vn 0 0.00155 1
vn 0 1 0
vn 0 0.00155 1
vn 0 0.00155 1
vn 0 -1 0
vn 0 0.00155 1
vn 0 -1 0
vn 0 0.00155 1
vn 0 -1 0
vn 0 -1 0
vn 0 -0.00474 -0.99999
vn 0 -1 0
vn 0 -0.00474 -0.99999
vn 0 -1 0
vn 0 -0.00474 -0.99999
vn 0 -0.00474 -0.99999
f 219//296 220//297 222//300
f 219//296 222//300 221//299
f 221//299 222//300 224//304
f 221//299 224//304 223//302
f 223//301 224//303 226//306
f 223//301 226//306 225//305
f 225//305 226//306 228//310
f 225//305 228//310 227//308
f 227//307 228//309 230//312
f 227//307 230//312 229//311
f 229//311 230//312 232//316
f 229//311 232//316 231//314
f 231//313 232//315 234//318
f 231//313 234//318 233//317
f 233//317 234//318 236//322
f 233//317 236//322 235//320
f 235//319 236//321 238//324
f 235//319 238//324 237//323
f 237//323 238//324 240//328
f 237//323 240//328 239//326
f 239//325 240//327 242//330
f 239//325 242//330 241//329
f 241//329 242//330 244//334
f 241//329 244//334 243//332
f 243//331 244//333 246//336
f 243//331 246//336 245//335
f 245//335 246//336 248//340
f 245//335 248//340 247//338
f 247//337 248//339 250//342
f 247//337 250//342 249//341
f 249//341 250//342 252//346
f 249//341 252//346 251//344
f 251//343 252//345 254//348
f 251//343 254//348 253//347
f 253//347 254//348 256//352
f 253//347 256//352 255//350
f 255//349 256//351 258//354
f 255//349 258//354 257//353
f 257//353 258//354 260//358
f 257//353 260//358 259//356
f 259//355 260//357 262//360
f 259//355 262//360 261//359
f 261//359 262//360 264//364
f 261//359 264//364 263//362
f 263//361 264//363 266//366
f 263//361 266//366 265//365
f 265//365 266//366 220//298
f 265//365 220//298 219//295
