#Produced by Art of Illusion 2.4.1, Wed Jun 27 17:19:25 CEST 2007
#
# Copyright (c) 2006-2007 Emmanuel PUYBARET / eTeks <info@eteks.com>. All Rights Reserved.
#
# This program is free software; you can redistribute it and/or modify it under
# the terms of the GNU General Public License as published by the Free Software
# Foundation, and available at http://www.gnu.org/copyleft/gpl.txt
g sweethome3d_window_pane
usemtl flltgrey
v -0.34433 0.61367 -0.0125
v 0.34567 0.61367 -0.0125
v 0.34567 0.61367 -0.0225
v -0.34433 0.61367 -0.0225
v -0.34433 2.08367 -0.0125
v 0.34567 2.08367 -0.0125
v 0.34567 2.08367 -0.0225
v -0.34433 2.08367 -0.0225
v 0.00067 1.34867 -0.0125
v 0.34567 1.34867 -0.0175
v 0.00067 1.34867 -0.0225
v -0.34433 1.34867 -0.0175
v 0.00067 0.61367 -0.0175
v 0.00067 2.08367 -0.0175
vn 1 0 0
vn 0 -1 0
vn 0 -1 0
vn 0 -1 0
vn 0 -1 0
vn 1 0 0
vn 1 0 0
vn 1 0 0
vn 1 0 0
vn 0 0 1
vn 0 0 1
vn 0 0 1
vn 0 0 1
vn -1 0 0
vn -1 0 0
vn -1 0 0
vn -1 0 0
vn 0 1 0
vn 0 1 0
vn 0 1 0
vn 0 1 0
vn 0 0 -1
vn 0 0 -1
vn 0 0 -1
vn 0 0 -1
f 2//2 1//2 13//2
f 3//3 2//3 13//3
f 4//4 3//4 13//4
f 1//5 4//5 13//5
f 2//6 3//6 10//6
f 3//7 7//7 10//7
f 7//8 6//8 10//8
f 6//9 2//9 10//9
f 1//10 2//10 9//10
f 2//11 6//11 9//11
f 6//12 5//12 9//12
f 5//13 1//13 9//13
f 4//14 1//14 12//14
f 1//15 5//15 12//15
f 5//16 8//16 12//16
f 8//17 4//17 12//17
f 5//18 6//18 14//18
f 6//19 7//19 14//19
f 7//20 8//20 14//20
f 8//21 5//21 14//21
f 3//22 4//22 11//22
f 4//23 8//23 11//23
f 8//24 7//24 11//24
f 7//25 3//25 11//25
g Fenetre
usemtl white
v -0.42433 0.53367 0.0125
v 0.42567 0.53367 0.0125
v 0.42567 0.53367 -0.0475
v -0.42433 0.53367 -0.0475
v -0.42433 2.16367 0.0125
v 0.42567 2.16367 0.0125
v 0.42567 2.16367 -0.0475
v -0.42433 2.16367 -0.0475
v 0.42567 1.34867 -0.0175
v -0.42433 1.34867 -0.0175
v 0.00067 0.53367 -0.0175
v 0.00067 2.16367 -0.0175
v 0.20467 0.61867 0.0125
v -0.20333 0.61867 0.0125
v 0.34067 0.69667 0.0125
v 0.34067 0.91067 0.0125
v 0.34067 2.00067 0.0125
v 0.34067 2.07867 0.0125
v -0.33933 0.69667 0.0125
v -0.33933 0.91067 0.0125
v 0.34067 0.61867 -0.0475
v 0.20467 0.61867 -0.0475
v -0.33933 0.69667 -0.0475
v -0.33933 0.91067 -0.0475
v 0.34067 2.00067 -0.0475
v 0.34067 2.07867 -0.0475
v 0.34067 0.69667 -0.0475
v 0.34067 0.91067 -0.0475
v 0.34067 0.61867 0.0125
v -0.33933 0.61867 0.0125
v 0.34067 1.78667 0.0125
v -0.33933 2.00067 0.0125
v -0.33933 2.07867 0.0125
v -0.33933 1.78667 0.0125
v -0.20333 0.61867 -0.0475
v -0.33933 2.00067 -0.0475
v -0.33933 1.78667 -0.0475
v -0.33933 2.07867 -0.0475
v 0.34067 1.78667 -0.0475
v 0.20467 2.07867 0.0125
v -0.20333 2.07867 0.0125
v -0.33933 0.61867 -0.0475
v 0.20467 2.07867 -0.0475
v -0.20333 2.07867 -0.0475
v 0.34067 2.05917 -0.0475
v 0.34067 0.63817 -0.0475
v -0.33933 2.05917 -0.0475
v 0.34067 0.62354 0.0125
v -0.33933 0.63817 -0.0475
v -0.30533 2.07867 -0.0475
v 0.34067 1.34867 -0.0175
v -0.33933 1.34867 -0.0175
v 0.00067 0.61867 -0.0175
v 0.00067 2.07867 -0.0175
vn 0 -1 0
vn 0 -1 0
vn -1 0 0
vn -1 0 0
vn 0 0 1
vn 0 0 1
vn 0 -1 0
vn 0 -1 0
vn 1 0 0
vn 1 0 0
vn 0 0 1
vn 0 0 1
vn 0 -1 0
vn 0 -1 0
vn 0 0 -1
vn 0 0 -1
vn 1 0 0
vn 1 0 0
vn 0 -1 0
vn 0 -1 0
vn -1 0 0
vn -1 0 0
vn 0 0 -1
vn 0 0 -1
vn -1 0 0
vn 0 1 0
vn 0 1 0
vn 0 0 1
vn 0 0 1
vn -1 0 0
vn 1 0 0
vn 1 0 0
vn 0 0 1
vn 0 0 1
vn 0 1 0
vn 0 1 0
vn 1 0 0
vn 1 0 0
vn 0 0 -1
vn 0 0 -1
vn 0 1 0
vn 0 1 0
vn -1 0 0
vn -1 0 0
vn 0 1 0
vn 0 1 0
vn 0 0 -1
vn 0 0 -1
vn 1 0 0
vn 1 0 0
vn 1 0 0
vn 1 0 0
vn -1 0 0
vn -1 0 0
vn -1 0 0
vn -1 0 0
vn 0 -1 0
vn 0 -1 0
vn 0 -1 0
vn 0 -1 0
vn 0 1 0
vn 0 1 0
vn 0 1 0
vn 0 1 0
vn 0 1 0
vn 0 1 0
vn 0 0 1
vn 0 1 0
vn 0 1 0
vn 0 0 1
vn 0 0 1
vn -1 0 0
vn 0 0 1
vn 0 0 1
vn -1 0 0
vn -1 0 0
vn 0 0 1
vn -1 0 0
vn 0 0 1
vn 0 0 1
vn 0 -1 0
vn -1 0 0
vn 0 0 1
vn 1 -0 0
vn 0 0 1
vn 1 0 0
vn 1 0 0
vn 0 0 1
vn 0 0 -1
vn -1 -0 -0
vn 0 1 0
vn 0 0 -1
vn 0 1 0
vn 0 1 0
vn 0 0 -1
vn 1 0 0
vn 0 0 -1
vn 0 0 -1
vn 1 0 0
vn 1 0 0
vn 0 0 -1
vn -1 0 0
vn 0 0 -1
vn -1 0 0
vn 0 -1 0
vn 0 0 -1
vn 0 0 -1
vn 0 0 -1
vn -1 0 0
vn -1 0 0
vn -1 0 0
vn 0 0 -1
vn 0 0 1
vn -1 -0 -0
vn 0 1 0
vn 0 1 0
vn 1 -0 0
vn 0 0 1
vn -1 0 0
vn -1 0 0
vn 0 0 1
vn 0 0 1
vn 1 0 0
vn 0 0 1
vn 1 0 0
vn 0 -1 0
vn 0 0 1
vn 1 0 0
vn 1 0 0
vn 0 0 1
vn 0 0 -1
vn 0 1 0
vn 0 1 0
vn 0 0 -1
vn 0 0 -1
vn 1 0 0
vn 1 0 0
vn 1 0 0
vn 0 0 -1
vn 0 0 -1
vn 1 0 0
vn 0 -1 0
vn -1 0 0
vn -1 0 0
vn 0 0 -1
vn 0 0 1
vn 0 -1 0
vn 0 -1 0
vn 0 -1 0
vn 0 -1 0
vn 0 0 1
vn 0 0 -1
vn 1 -0 0
vn 0 1 0
vn 0 -1 0
vn 0 -1 0
vn 0 0 -1
vn 0 -1 0
vn 0 -1 0
vn 0 0 -1
vn -1 0 0
vn 0 0 -1
vn -1 -0 -0
vn 0 0 -1
vn 1 0 0
vn 0 0 -1
vn -1 0 0
vn 0 0 1
vn 1 0 0
vn 0 0 -1
vn 0 -1 0
vn 0 0 -1
vn -1 0 0
vn -1 0 0
vn -1 0 0
vn -1 0 0
vn 1 0 0
vn 1 0 0
vn 1 0 0
vn 1 0 0
vn 0 1 0
vn 0 1 0
vn 0 1 0
vn 0 1 0
vn 0 -1 0
vn 0 -1 0
vn 0 -1 0
vn 0 -1 0
f 16//32 15//26 25//82
f 17//38 16//33 25//85
f 18//44 17//39 25//84
f 15//27 18//45 25//83
f 16//34 17//43 23//74
f 17//42 21//63 23//75
f 21//62 20//56 23//76
f 20//57 16//35 23//77
f 18//46 15//28 24//78
f 15//29 19//55 24//79
f 19//50 22//69 24//80
f 22//68 18//47 24//81
f 19//52 20//60 26//86
f 20//61 21//67 26//87
f 21//66 22//71 26//88
f 22//70 19//51 26//89
f 16//37 27//92 28//95
f 16//37 28//95 15//31
f 29//96 16//36 30//99
f 16//36 20//58 30//99
f 31//102 20//59 32//105
f 20//59 19//53 32//105
f 15//30 33//110 34//113
f 19//54 15//30 34//113
f 17//40 36//117 35//114
f 17//40 18//49 36//117
f 37//120 18//48 38//123
f 18//48 22//73 38//123
f 22//72 21//65 40//131
f 17//41 41//133 42//137
f 21//64 17//41 42//137
f 27//92 16//37 43//138
f 15//31 28//95 44//143
f 20//58 31//104 45//146
f 30//99 20//58 45//146
f 19//53 46//149 47//152
f 19//54 34//113 48//155
f 36//117 18//49 49//156
f 22//73 50//160 51//164
f 38//123 22//73 51//164
f 21//64 42//137 53//170
f 33//108 15//31 44//143
f 47//152 55//176 19//53
f 55//176 54//171 19//53
f 54//171 32//105 19//53
f 46//147 19//54 48//155
f 49//156 18//49 56//177
f 40//131 57//182 22//72
f 39//126 21//64 53//170
f 57//182 58//185 22//72
f 39//128 59//187 21//65
f 59//187 40//131 21//65
f 35//114 60//189 17//40
f 60//189 41//132 17//40
f 52//165 61//191 22//72
f 61//191 50//159 22//72
f 29//98 62//193 16//37
f 62//193 43//138 16//37
f 37//122 63//195 18//49
f 63//195 56//177 18//49
f 58//185 64//197 22//72
f 64//197 52//165 22//72
f 67//206 28//93 27//91
f 36//119 67//207 35//116
f 67//208 36//118 49//158
f 28//94 67//209 44//141
f 30//101 65//201 29//97
f 65//200 53//168 42//136
f 65//198 30//100 45//145
f 66//202 34//111 33//109
f 66//205 48//153 34//112
f 66//203 38//124 51//163
f 68//210 54//173 55//175
f 54//172 68//213 32//106
f 68//212 58//183 57//181
f 43//140 35//116 27//90
f 27//90 35//116 67//207
f 56//179 44//141 49//157
f 49//157 44//141 67//209
f 65//201 42//135 41//134
f 29//97 65//201 41//134
f 59//186 31//103 40//129
f 40//129 31//103 32//107
f 65//199 45//144 31//103
f 31//103 59//186 39//127
f 65//199 31//103 39//127
f 38//125 66//202 37//121
f 66//202 33//109 37//121
f 52//166 47//150 61//190
f 61//190 47//150 46//148
f 66//204 51//162 50//161
f 46//148 66//204 50//161
f 48//154 66//204 46//148
f 40//130 32//106 57//180
f 57//180 32//106 68//213
f 64//196 55//174 52//167
f 52//167 55//174 47//151
f 58//184 68//211 64//196
f 64//196 68//211 55//174
f 62//192 60//188 43//139
f 43//139 60//188 35//115
f 60//188 62//192 29//97
f 60//188 29//97 41//134
f 53//169 65//199 39//127
f 33//109 63//194 37//121
f 63//194 33//109 56//178
f 56//178 33//109 44//142
f 61//190 46//148 50//161
g Gond
v -0.43308 2.01433 0.003
v -0.42308 2.01433 0.003
v -0.43308 2.01433 -0.007
v -0.44308 2.01433 0.003
v -0.43308 2.01433 0.013
v -0.42308 2.05433 0.003
v -0.43308 2.05433 -0.007
v -0.44308 2.05433 0.003
v -0.43308 2.05433 0.013
v -0.43308 2.05433 0.003
vn 0 -1 0
vn 0 -1 0
vn 1 0 0
vn 0 -1 0
vn 0 0 -1
vn 0 -1 0
vn -1 0 -0
vn 0 -1 0
vn -0 0 1
vn 0 1 0
vn 1 0 -0
vn 0 1 0
vn -0 0 -1
vn 0 1 0
vn -1 0 0
vn 0 1 0
vn 0 0 1
vn 0 1 0
f 71//217 70//215 69//214
f 72//219 71//217 69//214
f 73//221 72//219 69//214
f 70//215 73//221 69//214
f 74//224 70//216 71//218
f 75//226 71//218 72//220
f 76//228 72//220 73//222
f 77//230 73//222 70//216
f 74//224 71//218 75//226
f 75//226 72//220 76//228
f 76//228 73//222 77//230
f 77//230 70//216 74//224
f 78//231 74//223 75//225
f 78//231 75//225 76//227
f 78//231 76//227 77//229
f 78//231 77//229 74//223
g Gond_1
v -0.433 1.353 0.003
v -0.423 1.353 0.003
v -0.433 1.353 -0.007
v -0.443 1.353 0.003
v -0.433 1.353 0.013
v -0.423 1.393 0.003
v -0.433 1.393 -0.007
v -0.443 1.393 0.003
v -0.433 1.393 0.013
v -0.433 1.393 0.003
vn 0 -1 0
vn 0 -1 0
vn 1 0 0
vn 0 -1 0
vn 0 0 -1
vn 0 -1 0
vn -1 0 -0
vn 0 -1 0
vn -0 0 1
vn 0 1 0
vn 1 0 -0
vn 0 1 0
vn -0 0 -1
vn 0 1 0
vn -1 0 0
vn 0 1 0
vn 0 0 1
vn 0 1 0
f 81//235 80//233 79//232
f 82//237 81//235 79//232
f 83//239 82//237 79//232
f 80//233 83//239 79//232
f 84//242 80//234 81//236
f 85//244 81//236 82//238
f 86//246 82//238 83//240
f 87//248 83//240 80//234
f 84//242 81//236 85//244
f 85//244 82//238 86//246
f 86//246 83//240 87//248
f 87//248 80//234 84//242
f 88//249 84//241 85//243
f 88//249 85//243 86//245
f 88//249 86//245 87//247
f 88//249 87//247 84//241
g Gond_2
v -0.43308 0.69233 0.003
v -0.42308 0.69233 0.003
v -0.43308 0.69233 -0.007
v -0.44308 0.69233 0.003
v -0.43308 0.69233 0.013
v -0.42308 0.73233 0.003
v -0.43308 0.73233 -0.007
v -0.44308 0.73233 0.003
v -0.43308 0.73233 0.013
v -0.43308 0.73233 0.003
vn 0 -1 0
vn 0 -1 0
vn 1 0 0
vn 0 -1 0
vn 0 0 -1
vn 0 -1 0
vn -1 0 -0
vn 0 -1 0
vn -0 0 1
vn 0 1 0
vn 1 0 -0
vn 0 1 0
vn -0 0 -1
vn 0 1 0
vn -1 0 0
vn 0 1 0
vn 0 0 1
vn 0 1 0
f 91//253 90//251 89//250
f 92//255 91//253 89//250
f 93//257 92//255 89//250
f 90//251 93//257 89//250
f 94//260 90//252 91//254
f 95//262 91//254 92//256
f 96//264 92//256 93//258
f 97//266 93//258 90//252
f 94//260 91//254 95//262
f 95//262 92//256 96//264
f 96//264 93//258 97//266
f 97//266 90//252 94//260
f 98//267 94//259 95//261
f 98//267 95//261 96//263
f 98//267 96//263 97//265
f 98//267 97//265 94//259
g Poignee
v 0.37562 1.14792 0.0098
v 0.38645 1.16654 0.0076
v 0.3648 1.16654 0.0076
v 0.37562 1.1489 0.03126
v 0.38645 1.16755 0.03324
v 0.3648 1.16755 0.03324
v 0.37562 1.1441 0.04598
v 0.38645 1.15195 0.06301
v 0.3648 1.15195 0.06301
v 0.37562 1.09649 0.0499
v 0.38645 1.09672 0.06865
v 0.3648 1.09672 0.06865
v 0.37563 1.04581 0.04884
v 0.38645 1.0451 0.06758
v 0.3648 1.0451 0.06758
v 0.37562 1.16033 0.00833
v 0.37562 1.04533 0.06133
vn -0 -0.11735 -0.99309
vn 0.00092 -0.99903 0.04397
vn -0 -0.11735 -0.99309
vn 0.84699 0.53126 -0.01929
vn -0 -0.11735 -0.99309
vn -0.84662 0.53178 -0.02091
vn 0.01739 -0.9847 -0.17336
vn 0.80995 0.56743 0.14832
vn -0.8054 0.57665 0.13717
vn 0.03684 -0.68102 -0.73134
vn 0.7565 0.37954 0.53259
vn -0.75309 0.37175 0.54282
vn -0.00163 -0.03519 -0.99938
vn 0.85147 0.02172 0.52395
vn -0.85222 0.02499 0.52259
vn 0 -0.99928 -0.03788
vn -0.00002 0.02074 -0.99978
vn 0.86188 -0.01047 0.50701
vn 0 -0.99928 -0.03788
vn -0.86189 -0.01042 0.50699
vn -0 -0.99928 -0.03788
vn -0 -0.11735 -0.99309
vn 0 -0.99928 -0.03788
f 99//269 100//271 102//274
f 100//271 103//275 102//274
f 100//271 101//273 103//275
f 101//273 104//276 103//275
f 101//273 99//269 104//276
f 99//269 102//274 104//276
f 102//274 103//275 105//277
f 103//275 106//278 105//277
f 103//275 104//276 106//278
f 104//276 107//279 106//278
f 104//276 102//274 107//279
f 102//274 105//277 107//279
f 105//277 106//278 108//280
f 106//278 109//281 108//280
f 106//278 107//279 109//281
f 107//279 110//282 109//281
f 107//279 105//277 110//282
f 105//277 108//280 110//282
f 108//280 109//281 111//284
f 109//281 112//285 111//284
f 109//281 110//282 112//285
f 110//282 113//287 112//285
f 110//282 108//280 113//287
f 108//280 111//284 113//287
f 100//270 99//268 114//289
f 101//272 100//270 114//289
f 99//268 101//272 114//289
f 111//283 112//286 115//290
f 112//286 113//288 115//290
f 113//288 111//283 115//290
g Tour_Fenetre
v -0.455 0.475 -0.00421
v 0.455 0.475 -0.00421
v 0.455 0.475 -0.27421
v -0.455 0.475 -0.27421
v -0.455 2.215 -0.00421
v 0.455 2.215 -0.00421
v 0.455 2.215 -0.27421
v -0.455 2.215 -0.27421
v 0.455 1.345 -0.13921
v -0.455 1.345 -0.13921
v 0 0.475 -0.13921
v 0 2.215 -0.13921
v 0.21727 0.5337 -0.00421
v -0.20336 0.5337 -0.00421
v 0.40696 0.56686 -0.00421
v 0.40696 0.92019 -0.00421
v 0.40696 2.12314 -0.00421
v 0.40696 2.1637 -0.00421
v -0.39304 0.59346 -0.00421
v -0.39304 0.92019 -0.00421
v 0.40696 0.5337 -0.27421
v 0.34907 0.5337 -0.27421
v -0.39304 0.59346 -0.27421
v -0.39304 0.65164 -0.27421
v 0.40696 2.12314 -0.27421
v 0.40696 2.1637 -0.27421
v 0.40696 0.56686 -0.27421
v 0.40696 0.65164 -0.27421
v 0.40696 0.5337 -0.00421
v -0.39304 0.5337 -0.00421
v 0.40696 1.77722 -0.00421
v -0.39304 2.09654 -0.00421
v -0.39304 2.1637 -0.00421
v -0.39304 1.77722 -0.00421
v -0.33516 0.5337 -0.27421
v -0.39304 2.09654 -0.27421
v -0.39304 2.04576 -0.27421
v -0.39304 2.1637 -0.27421
v 0.40696 2.04576 -0.27421
v 0.21727 2.1637 -0.00421
v -0.20336 2.1637 -0.00421
v -0.39304 0.5337 -0.27421
v 0.34907 2.1637 -0.27421
v -0.33516 2.1637 -0.27421
v 0.40696 2.15985 -0.27421
v 0.40696 0.53685 -0.27421
v -0.39304 2.15733 -0.27421
v 0.40696 0.53451 -0.00421
v -0.39304 0.53937 -0.27421
v -0.37505 2.1637 -0.27421
v 0.40696 1.3487 -0.107
v -0.39304 1.3487 -0.107
v 0.00696 0.5337 -0.107
v 0.00696 2.1637 -0.107
vn 0 -1 0
vn 0 -1 0
vn -1 0 0
vn -1 0 0
vn 0 0 1
vn 0 0 1
vn 0 -1 0
vn 0 -1 0
vn 1 0 0
vn 1 0 0
vn 0 0 1
vn 0 0 1
vn 0 -1 0
vn 0 -1 0
vn 0 0 -1
vn 0 0 -1
vn 1 0 0
vn 1 0 0
vn 0 -1 0
vn 0 -1 0
vn -1 0 0
vn -1 0 0
vn 0 0 -1
vn 0 0 -1
vn -1 0 0
vn 0 1 0
vn 0 1 0
vn 0 0 1
vn 0 0 1
vn -1 0 0
vn 1 0 0
vn 1 0 0
vn 0 0 1
vn 0 0 1
vn 0 1 0
vn 0 1 0
vn 1 0 0
vn 1 0 0
vn 0 0 -1
vn 0 0 -1
vn 0 1 0
vn 0 1 0
vn -1 0 0
vn -1 0 0
vn 0 1 0
vn 0 1 0
vn 0 0 -1
vn 0 0 -1
vn 1 0 0
vn 1 0 0
vn 1 0 0
vn 1 0 0
vn -1 0 0
vn -1 0 0
vn -1 0 0
vn -1 0 0
vn 0 -1 0
vn 0 -1 0
vn 0 -1 0
vn 0 -1 0
vn 0 1 0
vn 0 1 0
vn 0 1 0
vn 0 1 0
vn 0 1 0
vn 0 1 0
vn 0 0 1
vn 0 1 0
vn 0 1 0
vn 0 0 1
vn 0 0 1
vn -1 0 0
vn 0 0 1
vn 0 0 1
vn -1 0 0
vn -1 0 0
vn 0 0 1
vn -1 0 0
vn 0 0 1
vn 0 0 1
vn 0 -1 0
vn -1 0 0
vn 0 0 1
vn 1 0 0
vn 0 0 1
vn 1 0 0
vn 1 0 0
vn 0 0 1
vn 0 0 -1
vn -1 0 0
vn 0 1 0
vn 0 0 -1
vn 0 1 0
vn 0 1 0
vn 0 0 -1
vn 1 0 0
vn 0 0 -1
vn 0 0 -1
vn 1 0 0
vn 1 0 0
vn 0 0 -1
vn -1 0 0
vn 0 0 -1
vn -1 0 0
vn 0 -1 0
vn 0 0 -1
vn 0 0 -1
vn 0 0 -1
vn -1 0 0
vn -1 0 0
vn -1 0 0
vn 0 0 -1
vn 0 0 1
vn -1 0 0
vn 0 1 0
vn 0 1 0
vn 1 0 0
vn 0 0 1
vn -1 0 0
vn -1 0 0
vn 0 0 1
vn 0 0 1
vn 1 0 0
vn 0 0 1
vn 1 0 0
vn 0 -1 0
vn 0 0 1
vn 1 0 0
vn 1 0 0
vn 0 0 1
vn 0 0 -1
vn 0 1 0
vn 0 1 0
vn 0 0 -1
vn 0 0 -1
vn 1 0 0
vn 1 0 0
vn 1 0 0
vn 0 0 -1
vn 0 0 -1
vn 1 0 0
vn 0 -1 0
vn -1 0 0
vn -1 0 0
vn 0 0 -1
vn 0 0 1
vn 0 -1 0
vn 0 -1 0
vn 0 -1 0
vn 0 -1 0
vn 0 0 1
vn 0 0 -1
vn 1 0 -0
vn 0 1 0
vn 0 -1 0
vn 0 -1 0
vn 0 0 -1
vn 0 -1 0
vn 0 -1 0
vn 0 0 -1
vn -1 0 0
vn 0 0 -1
vn -1 0 0
vn 0 0 -1
vn 1 0 0
vn 0 0 -1
vn -1 0 0
vn 0 0 1
vn 1 0 -0
vn 0 0 -1
vn 0 -1 0
vn 0 0 -1
vn -1 0 0
vn -1 0 0
vn -1 0 0
vn -1 0 0
vn 1 0 0
vn 1 0 0
vn 1 0 0
vn 1 0 0
vn 0 1 0
vn 0 1 0
vn 0 1 0
vn 0 1 0
vn 0 -1 0
vn 0 -1 0
vn 0 -1 0
vn 0 -1 0
f 117//297 116//291 126//347
f 118//303 117//298 126//350
f 119//309 118//304 126//349
f 116//292 119//310 126//348
f 117//299 118//308 124//339
f 118//307 122//328 124//340
f 122//327 121//321 124//341
f 121//322 117//300 124//342
f 119//311 116//293 125//343
f 116//294 120//320 125//344
f 120//315 123//334 125//345
f 123//333 119//312 125//346
f 120//317 121//325 127//351
f 121//326 122//332 127//352
f 122//331 123//336 127//353
f 123//335 120//316 127//354
f 117//302 128//357 129//360
f 117//302 129//360 116//296
f 130//361 117//301 131//364
f 117//301 121//323 131//364
f 132//367 121//324 133//370
f 121//324 120//318 133//370
f 116//295 134//375 135//378
f 120//319 116//295 135//378
f 118//305 137//382 136//379
f 118//305 119//314 137//382
f 138//385 119//313 139//388
f 119//313 123//338 139//388
f 123//337 122//330 141//396
f 118//306 142//398 143//402
f 122//329 118//306 143//402
f 128//357 117//302 144//403
f 116//296 129//360 145//408
f 121//323 132//369 146//411
f 131//364 121//323 146//411
f 120//318 147//414 148//417
f 120//319 135//378 149//420
f 137//382 119//314 150//421
f 123//338 151//425 152//429
f 139//388 123//338 152//429
f 122//329 143//402 154//435
f 134//373 116//296 145//408
f 148//417 156//441 120//318
f 156//441 155//436 120//318
f 155//436 133//370 120//318
f 147//412 120//319 149//420
f 150//421 119//314 157//442
f 141//396 158//447 123//337
f 140//391 122//329 154//435
f 158//447 159//450 123//337
f 140//393 160//452 122//330
f 160//452 141//396 122//330
f 136//379 161//454 118//305
f 161//454 142//397 118//305
f 153//430 162//456 123//337
f 162//456 151//424 123//337
f 130//363 163//458 117//302
f 163//458 144//403 117//302
f 138//387 164//460 119//314
f 164//460 157//442 119//314
f 159//450 165//462 123//337
f 165//462 153//430 123//337
f 168//471 129//358 128//356
f 137//384 168//472 136//381
f 168//473 137//383 150//423
f 129//359 168//474 145//406
f 131//366 166//466 130//362
f 166//465 154//433 143//401
f 166//463 131//365 146//410
f 167//467 135//376 134//374
f 167//470 149//418 135//377
f 167//468 139//389 152//428
f 169//475 155//438 156//440
f 155//437 169//478 133//371
f 169//477 159//448 158//446
f 144//405 136//381 128//355
f 128//355 136//381 168//472
f 157//444 145//406 150//422
f 150//422 145//406 168//474
f 166//466 143//400 142//399
f 130//362 166//466 142//399
f 160//451 132//368 141//394
f 141//394 132//368 133//372
f 166//464 146//409 132//368
f 132//368 160//451 140//392
f 166//464 132//368 140//392
f 139//390 167//467 138//386
f 167//467 134//374 138//386
f 153//431 148//415 162//455
f 162//455 148//415 147//413
f 167//469 152//427 151//426
f 147//413 167//469 151//426
f 149//419 167//469 147//413
f 141//395 133//371 158//445
f 158//445 133//371 169//478
f 165//461 156//439 153//432
f 153//432 156//439 148//416
f 159//449 169//476 165//461
f 165//461 169//476 156//439
f 163//457 161//453 144//404
f 144//404 161//453 136//380
f 161//453 163//457 130//362
f 161//453 130//362 142//399
f 154//434 166//464 140//392
f 134//374 164//459 138//386
f 164//459 134//374 157//443
f 157//443 134//374 145//407
f 162//455 147//413 151//426
