# Sweet Home 3D, Copyright (c) 2006-2013 Emmanuel PUYBARET / eTeks <info@eteks.com>
#
# This program is free software; you can redistribute it and/or modify it under
# the terms of the GNU General Public License as published by the Free Software
# Foundation, and available at http://www.gnu.org/copyleft/gpl.txt
mtllib texturableCylinder.mtl
g cylinder
usemtl cylinder
v 0.5 1.0 0.0
v 0.5 0.0 0.0
v 0.39604416 1.0 0.010926187
v 0.39604416 0.0 0.010926187
v 0.2966317 1.0 0.043227285
v 0.2966317 0.0 0.043227285
v 0.20610738 1.0 0.0954915
v 0.20610738 0.0 0.0954915
v 0.1284276 1.0 0.16543469
v 0.1284276 0.0 0.16543469
v 0.066987306 1.0 0.25
v 0.066987306 0.0 0.25
v 0.02447173 1.0 0.3454915
v 0.02447173 0.0 0.3454915
v 0.002739042 1.0 0.44773576
v 0.002739042 0.0 0.44773576
v 0.002739042 1.0 0.5522642
v 0.002739042 0.0 0.5522642
v 0.02447173 1.0 0.6545085
v 0.02447173 0.0 0.6545085
v 0.066987306 1.0 0.75
v 0.066987306 0.0 0.75
v 0.1284276 1.0 0.8345653
v 0.1284276 0.0 0.8345653
v 0.20610738 1.0 0.9045085
v 0.20610738 0.0 0.9045085
v 0.2966317 1.0 0.9567727
v 0.2966317 0.0 0.9567727
v 0.39604416 1.0 0.9890738
v 0.39604416 0.0 0.9890738
v 0.5 1.0 1.0
v 0.5 0.0 1.0
v 0.60395586 1.0 0.9890738
v 0.60395586 0.0 0.9890738
v 0.7033683 1.0 0.9567727
v 0.7033683 0.0 0.9567727
v 0.7938926 1.0 0.9045085
v 0.7938926 0.0 0.9045085
v 0.8715724 1.0 0.8345653
v 0.8715724 0.0 0.8345653
v 0.9330127 1.0 0.75
v 0.9330127 0.0 0.75
v 0.97552824 1.0 0.6545085
v 0.97552824 0.0 0.6545085
v 0.9972609 1.0 0.5522642
v 0.9972609 0.0 0.5522642
v 0.9972609 1.0 0.44773576
v 0.9972609 0.0 0.44773576
v 0.97552824 1.0 0.3454915
v 0.97552824 0.0 0.3454915
v 0.9330127 1.0 0.25
v 0.9330127 0.0 0.25
v 0.8715724 1.0 0.16543469
v 0.8715724 0.0 0.16543469
v 0.7938926 1.0 0.0954915
v 0.7938926 0.0 0.0954915
v 0.7033683 1.0 0.043227285
v 0.7033683 0.0 0.043227285
v 0.60395586 1.0 0.010926187
v 0.60395586 0.0 0.010926187
vt 0.0 1.0 0
vt 0.0 0.0 0
vt 0.033333335 1.0 0
vt 0.033333335 0.0 0
vt 0.06666667 1.0 0
vt 0.06666667 0.0 0
vt 0.1 1.0 0
vt 0.1 0.0 0
vt 0.13333334 1.0 0
vt 0.13333334 0.0 0
vt 0.16666667 1.0 0
vt 0.16666667 0.0 0
vt 0.2 1.0 0
vt 0.2 0.0 0
vt 0.23333333 1.0 0
vt 0.23333333 0.0 0
vt 0.26666668 1.0 0
vt 0.26666668 0.0 0
vt 0.3 1.0 0
vt 0.3 0.0 0
vt 0.33333334 1.0 0
vt 0.33333334 0.0 0
vt 0.36666667 1.0 0
vt 0.36666667 0.0 0
vt 0.4 1.0 0
vt 0.4 0.0 0
vt 0.43333334 1.0 0
vt 0.43333334 0.0 0
vt 0.46666667 1.0 0
vt 0.46666667 0.0 0
vt 0.5 1.0 0
vt 0.5 0.0 0
vt 0.53333336 1.0 0
vt 0.53333336 0.0 0
vt 0.56666666 1.0 0
vt 0.56666666 0.0 0
vt 0.6 1.0 0
vt 0.6 0.0 0
vt 0.6333333 1.0 0
vt 0.6333333 0.0 0
vt 0.6666667 1.0 0
vt 0.6666667 0.0 0
vt 0.7 1.0 0
vt 0.7 0.0 0
vt 0.73333335 1.0 0
vt 0.73333335 0.0 0
vt 0.76666665 1.0 0
vt 0.76666665 0.0 0
vt 0.8 1.0 0
vt 0.8 0.0 0
vt 0.8333333 1.0 0
vt 0.8333333 0.0 0
vt 0.8666667 1.0 0
vt 0.8666667 0.0 0
vt 0.9 1.0 0
vt 0.9 0.0 0
vt 0.93333334 1.0 0
vt 0.93333334 0.0 0
vt 0.96666664 1.0 0
vt 0.96666664 0.0 0
vt 1.0 1.0 0
vt 1.0 0.0 0
vn -0 0.0 -1.0
vn -0.20791167 0.0 -0.97814757
vn -0.40673664 0.0 -0.9135454
vn -0.58778524 0.0 -0.809017
vn -0.7431448 0.0 -0.6691306
vn -0.8660254 0.0 -0.5
vn -0.95105654 0.0 -0.309017
vn -0.9945219 0.0 -0.104528464
vn -0.9945219 0.0 0.104528464
vn -0.95105654 0.0 0.309017
vn -0.8660254 0.0 0.5
vn -0.7431448 0.0 0.6691306
vn -0.58778524 0.0 0.809017
vn -0.40673664 0.0 0.9135454
vn -0.20791167 0.0 0.97814757
vn 0 0.0 1.0
vn 0.20791167 0.0 0.97814757
vn 0.40673664 0.0 0.9135454
vn 0.58778524 0.0 0.809017
vn 0.7431448 0.0 0.6691306
vn 0.8660254 0.0 0.5
vn 0.95105654 0.0 0.309017
vn 0.9945219 0.0 0.104528464
vn 0.9945219 0.0 -0.104528464
vn 0.95105654 0.0 -0.309017
vn 0.8660254 0.0 -0.5
vn 0.7431448 0.0 -0.6691306
vn 0.58778524 0.0 -0.809017
vn 0.40673664 0.0 -0.9135454
vn 0.20791167 0.0 -0.97814757
vn 0 0.0 -1.0
f 1/1/1 2/2/1 3/3/2
f 2/2/1 4/4/2 3/3/2
f 3/3/2 4/4/2 5/5/3
f 4/4/2 6/6/3 5/5/3
f 5/5/3 6/6/3 7/7/4
f 6/6/3 8/8/4 7/7/4
f 7/7/4 8/8/4 9/9/5
f 8/8/4 10/10/5 9/9/5
f 9/9/5 10/10/5 11/11/6
f 10/10/5 12/12/6 11/11/6
f 11/11/6 12/12/6 13/13/7
f 12/12/6 14/14/7 13/13/7
f 13/13/7 14/14/7 15/15/8
f 14/14/7 16/16/8 15/15/8
f 15/15/8 16/16/8 17/17/9
f 16/16/8 18/18/9 17/17/9
f 17/17/9 18/18/9 19/19/10
f 18/18/9 20/20/10 19/19/10
f 19/19/10 20/20/10 21/21/11
f 20/20/10 22/22/11 21/21/11
f 21/21/11 22/22/11 23/23/12
f 22/22/11 24/24/12 23/23/12
f 23/23/12 24/24/12 25/25/13
f 24/24/12 26/26/13 25/25/13
f 25/25/13 26/26/13 27/27/14
f 26/26/13 28/28/14 27/27/14
f 27/27/14 28/28/14 29/29/15
f 28/28/14 30/30/15 29/29/15
f 29/29/15 30/30/15 31/31/16
f 30/30/15 32/32/16 31/31/16
f 31/31/16 32/32/16 33/33/17
f 32/32/16 34/34/17 33/33/17
f 33/33/17 34/34/17 35/35/18
f 34/34/17 36/36/18 35/35/18
f 35/35/18 36/36/18 37/37/19
f 36/36/18 38/38/19 37/37/19
f 37/37/19 38/38/19 39/39/20
f 38/38/19 40/40/20 39/39/20
f 39/39/20 40/40/20 41/41/21
f 40/40/20 42/42/21 41/41/21
f 41/41/21 42/42/21 43/43/22
f 42/42/21 44/44/22 43/43/22
f 43/43/22 44/44/22 45/45/23
f 44/44/22 46/46/23 45/45/23
f 45/45/23 46/46/23 47/47/24
f 46/46/23 48/48/24 47/47/24
f 47/47/24 48/48/24 49/49/25
f 48/48/24 50/50/25 49/49/25
f 49/49/25 50/50/25 51/51/26
f 50/50/25 52/52/26 51/51/26
f 51/51/26 52/52/26 53/53/27
f 52/52/26 54/54/27 53/53/27
f 53/53/27 54/54/27 55/55/28
f 54/54/27 56/56/28 55/55/28
f 55/55/28 56/56/28 57/57/29
f 56/56/28 58/58/29 57/57/29
f 57/57/29 58/58/29 59/59/30
f 58/58/29 60/60/30 59/59/30
f 59/59/30 60/60/30 1/61/31
f 60/60/30 2/62/31 1/61/31
g top
usemtl top
v 0.5 1.0 0.5
vt 0.5 0.5 0
vt 0.39604416 0.9890738 0
vt 0.29663166 0.95677274 0
vt 0.20610738 0.9045085 0
vt 0.12842758 0.8345653 0
vt 0.0669873 0.75 0
vt 0.024471741 0.6545085 0
vt 0.0027390523 0.5522642 0
vt 0.0027390523 0.44773576 0
vt 0.024471741 0.3454915 0
vt 0.0669873 0.25 0
vt 0.12842758 0.1654347 0
vt 0.20610738 0.095491506 0
vt 0.29663166 0.04322727 0
vt 0.39604416 0.0109262 0
vt 0.60395586 0.0109262 0
vt 0.7033683 0.04322727 0
vt 0.7938926 0.095491506 0
vt 0.87157243 0.1654347 0
vt 0.9330127 0.25 0
vt 0.97552824 0.3454915 0
vt 0.9972609 0.44773576 0
vt 0.9972609 0.5522642 0
vt 0.97552824 0.6545085 0
vt 0.9330127 0.75 0
vt 0.87157243 0.8345653 0
vt 0.7938926 0.9045085 0
vt 0.7033683 0.95677274 0
vt 0.60395586 0.9890738 0
vn 0.0 1.0 0.0
f 61/63/32 1/31/32 3/64/32
f 61/63/32 3/64/32 5/65/32
f 61/63/32 5/65/32 7/66/32
f 61/63/32 7/66/32 9/67/32
f 61/63/32 9/67/32 11/68/32
f 61/63/32 11/68/32 13/69/32
f 61/63/32 13/69/32 15/70/32
f 61/63/32 15/70/32 17/71/32
f 61/63/32 17/71/32 19/72/32
f 61/63/32 19/72/32 21/73/32
f 61/63/32 21/73/32 23/74/32
f 61/63/32 23/74/32 25/75/32
f 61/63/32 25/75/32 27/76/32
f 61/63/32 27/76/32 29/77/32
f 61/63/32 29/77/32 31/32/32
f 61/63/32 31/32/32 33/78/32
f 61/63/32 33/78/32 35/79/32
f 61/63/32 35/79/32 37/80/32
f 61/63/32 37/80/32 39/81/32
f 61/63/32 39/81/32 41/82/32
f 61/63/32 41/82/32 43/83/32
f 61/63/32 43/83/32 45/84/32
f 61/63/32 45/84/32 47/85/32
f 61/63/32 47/85/32 49/86/32
f 61/63/32 49/86/32 51/87/32
f 61/63/32 51/87/32 53/88/32
f 61/63/32 53/88/32 55/89/32
f 61/63/32 55/89/32 57/90/32
f 61/63/32 57/90/32 59/91/32
f 61/63/32 59/91/32 1/31/32
g bottom
usemtl bottom
v 0.5 0.0 0.5
vn 0.0 -1.0 0.0
f 62/63/33 2/32/33 60/78/33
f 62/63/33 60/78/33 58/79/33
f 62/63/33 58/79/33 56/80/33
f 62/63/33 56/80/33 54/81/33
f 62/63/33 54/81/33 52/82/33
f 62/63/33 52/82/33 50/83/33
f 62/63/33 50/83/33 48/84/33
f 62/63/33 48/84/33 46/85/33
f 62/63/33 46/85/33 44/86/33
f 62/63/33 44/86/33 42/87/33
f 62/63/33 42/87/33 40/88/33
f 62/63/33 40/88/33 38/89/33
f 62/63/33 38/89/33 36/90/33
f 62/63/33 36/90/33 34/91/33
f 62/63/33 34/91/33 32/31/33
f 62/63/33 32/31/33 30/64/33
f 62/63/33 30/64/33 28/65/33
f 62/63/33 28/65/33 26/66/33
f 62/63/33 26/66/33 24/67/33
f 62/63/33 24/67/33 22/68/33
f 62/63/33 22/68/33 20/69/33
f 62/63/33 20/69/33 18/70/33
f 62/63/33 18/70/33 16/71/33
f 62/63/33 16/71/33 14/72/33
f 62/63/33 14/72/33 12/73/33
f 62/63/33 12/73/33 10/74/33
f 62/63/33 10/74/33 8/75/33
f 62/63/33 8/75/33 6/76/33
f 62/63/33 6/76/33 4/77/33
f 62/63/33 4/77/33 2/32/33
